Archivo Narrow Devanagari-Bold.ufo
<glyph name="exclam" format="1">
  <advance width="273"/>
  <unicode hex="0021"/>
  <outline>
    <contour>
      <point x="60" y="686" type="line"/>
      <point x="72" y="523"/>
      <point x="83" y="360"/>
      <point x="95" y="197" type="curve"/>
      <point x="177" y="197" type="line"/>
      <point x="189" y="360"/>
      <point x="201" y="523"/>
      <point x="213" y="686" type="curve"/>
    </contour>
    <contour>
      <point x="68" y="137" type="line"/>
      <point x="68" y="0" type="line"/>
      <point x="206" y="0" type="line"/>
      <point x="206" y="137" type="line"/>
    </contour>
  </outline>
</glyph>
<glyph name="quotedbl" format="1">
  <advance width="344"/>
  <unicode hex="0022"/>
  <outline>
    <contour>
      <point x="148" y="476" type="line"/>
      <point x="148" y="606" type="line"/>
      <point x="40" y="606" type="line"/>
      <point x="40" y="476" type="line"/>
      <point x="59" y="360" type="line"/>
      <point x="129" y="360" type="line"/>
    </contour>
    <contour>
      <point x="308" y="476" type="line"/>
      <point x="308" y="606" type="line"/>
      <point x="200" y="606" type="line"/>
      <point x="200" y="476" type="line"/>
      <point x="219" y="360" type="line"/>
      <point x="289" y="360" type="line"/>
    </contour>
  </outline>
</glyph>
<glyph name="dollar" format="1">
  <advance width="403"/>
  <unicode hex="0024"/>
  <outline>
    <contour>
      <point x="224" y="639" type="line"/>
      <point x="175" y="639" type="line"/>
      <point x="175" y="545" type="line"/>
      <point x="95" y="537"/>
      <point x="36" y="490"/>
      <point x="36" y="405" type="curve" smooth="yes"/>
      <point x="36" y="309"/>
      <point x="110" y="287"/>
      <point x="175" y="269" type="curve"/>
      <point x="175" y="142" type="line"/>
      <point x="149" y="150"/>
      <point x="127" y="171"/>
      <point x="127" y="212" type="curve" smooth="yes"/>
      <point x="127" y="218" type="line"/>
      <point x="30" y="218" type="line" smooth="yes"/>
      <point x="30" y="218"/>
      <point x="29" y="212"/>
      <point x="29" y="208" type="curve" smooth="yes"/>
      <point x="29" y="126"/>
      <point x="82" y="69"/>
      <point x="175" y="61" type="curve"/>
      <point x="175" y="-43" type="line"/>
      <point x="224" y="-43" type="line"/>
      <point x="224" y="61" type="line"/>
      <point x="309" y="67"/>
      <point x="371" y="107"/>
      <point x="371" y="210" type="curve" smooth="yes"/>
      <point x="371" y="312"/>
      <point x="291" y="333"/>
      <point x="224" y="351" type="curve"/>
      <point x="224" y="465" type="line"/>
      <point x="247" y="456"/>
      <point x="261" y="436"/>
      <point x="262" y="401" type="curve" smooth="yes"/>
      <point x="262" y="400" type="line"/>
      <point x="359" y="400" type="line"/>
      <point x="359" y="400"/>
      <point x="360" y="410"/>
      <point x="360" y="420" type="curve" smooth="yes"/>
      <point x="360" y="492"/>
      <point x="301" y="538"/>
      <point x="224" y="545" type="curve"/>
    </contour>
    <contour>
      <point x="175" y="366" type="line"/>
      <point x="150" y="376"/>
      <point x="133" y="389"/>
      <point x="133" y="414" type="curve" smooth="yes"/>
      <point x="133" y="438"/>
      <point x="150" y="457"/>
      <point x="175" y="465" type="curve"/>
    </contour>
    <contour>
      <point x="224" y="253" type="line"/>
      <point x="253" y="241"/>
      <point x="274" y="226"/>
      <point x="274" y="197" type="curve" smooth="yes"/>
      <point x="274" y="164"/>
      <point x="249" y="147"/>
      <point x="224" y="141" type="curve"/>
    </contour>
  </outline>
</glyph>
<glyph name="ampersand" format="1">
  <advance width="523"/>
  <unicode hex="0026"/>
  <outline>
    <contour>
      <point x="135" y="311" type="line"/>
      <point x="76" y="292"/>
      <point x="32" y="243"/>
      <point x="32" y="163" type="curve" smooth="yes"/>
      <point x="32" y="55"/>
      <point x="118" y="-11"/>
      <point x="238" y="-11" type="curve" smooth="yes"/>
      <point x="370" y="-11"/>
      <point x="440" y="61"/>
      <point x="440" y="171" type="curve" smooth="yes"/>
      <point x="440" y="263" type="line"/>
      <point x="510" y="263" type="line"/>
      <point x="510" y="353" type="line"/>
      <point x="334" y="353" type="line"/>
      <point x="334" y="169" type="line" smooth="yes"/>
      <point x="334" y="111"/>
      <point x="303" y="79"/>
      <point x="240" y="79" type="curve" smooth="yes"/>
      <point x="180" y="79"/>
      <point x="142" y="107"/>
      <point x="142" y="168" type="curve" smooth="yes"/>
      <point x="142" y="244"/>
      <point x="190" y="263"/>
      <point x="244" y="263" type="curve" smooth="yes"/>
      <point x="278" y="263" type="line"/>
      <point x="278" y="353" type="line"/>
      <point x="241" y="353" type="line" smooth="yes"/>
      <point x="191" y="353"/>
      <point x="155" y="388"/>
      <point x="155" y="446" type="curve" smooth="yes"/>
      <point x="155" y="497"/>
      <point x="188" y="528"/>
      <point x="245" y="528" type="curve" smooth="yes"/>
      <point x="303" y="528"/>
      <point x="334" y="499"/>
      <point x="334" y="443" type="curve" smooth="yes"/>
      <point x="334" y="426" type="line"/>
      <point x="440" y="426" type="line"/>
      <point x="440" y="451" type="line" smooth="yes"/>
      <point x="440" y="552"/>
      <point x="361" y="617"/>
      <point x="247" y="617" type="curve" smooth="yes"/>
      <point x="126" y="617"/>
      <point x="44" y="559"/>
      <point x="44" y="451" type="curve" smooth="yes"/>
      <point x="44" y="379"/>
      <point x="83" y="340"/>
      <point x="135" y="315" type="curve"/>
    </contour>
  </outline>
</glyph>
<glyph name="hyphen" format="1">
  <advance width="241"/>
  <unicode hex="002D"/>
  <outline>
    <contour>
      <point x="14" y="187" type="line"/>
      <point x="227" y="187" type="line"/>
      <point x="227" y="291" type="line"/>
      <point x="14" y="291" type="line"/>
    </contour>
  </outline>
</glyph>
<glyph name="slash" format="1">
  <advance width="202"/>
  <unicode hex="002F"/>
  <outline>
    <contour>
      <point x="126" y="650" type="line"/>
      <point x="1" y="-43" type="line"/>
      <point x="77" y="-43" type="line"/>
      <point x="202" y="650" type="line"/>
    </contour>
  </outline>
</glyph>
<glyph name="one" format="1">
  <advance width="403"/>
  <unicode hex="0031"/>
  <outline>
    <contour>
      <point x="402" y="89" type="line"/>
      <point x="278" y="89" type="line"/>
      <point x="278" y="606" type="line"/>
      <point x="225" y="606" type="line"/>
      <point x="169" y="571"/>
      <point x="84" y="544"/>
      <point x="34" y="538" type="curve"/>
      <point x="34" y="468" type="line"/>
      <point x="171" y="468" type="line"/>
      <point x="171" y="89" type="line"/>
      <point x="35" y="89" type="line"/>
      <point x="35" y="0" type="line"/>
      <point x="402" y="0" type="line"/>
    </contour>
  </outline>
</glyph>
<glyph name="two" format="1">
  <advance width="456"/>
  <unicode hex="0032"/>
  <outline>
    <contour>
      <point x="132" y="698"/>
      <point x="39" y="637"/>
      <point x="39" y="490" type="curve" smooth="yes"/>
      <point x="39" y="466"/>
      <point x="42" y="450"/>
      <point x="42" y="450" type="curve"/>
      <point x="165" y="450" type="line"/>
      <point x="165" y="491" type="line" smooth="yes"/>
      <point x="165" y="547"/>
      <point x="184" y="595"/>
      <point x="234" y="595" type="curve" smooth="yes"/>
      <point x="283" y="595"/>
      <point x="297" y="553"/>
      <point x="297" y="521" type="curve" smooth="yes"/>
      <point x="297" y="364"/>
      <point x="114" y="273"/>
      <point x="53" y="123" type="curve" smooth="yes"/>
      <point x="40" y="93"/>
      <point x="33" y="60"/>
      <point x="33" y="24" type="curve" smooth="yes"/>
      <point x="33" y="0" type="line"/>
      <point x="426" y="0" type="line"/>
      <point x="426" y="112" type="line"/>
      <point x="183" y="112" type="line"/>
      <point x="190" y="126"/>
      <point x="202" y="142"/>
      <point x="216" y="160" type="curve" smooth="yes"/>
      <point x="287" y="245"/>
      <point x="423" y="370"/>
      <point x="423" y="520" type="curve" smooth="yes"/>
      <point x="423" y="646"/>
      <point x="341" y="698"/>
      <point x="239" y="698" type="curve" smooth="yes"/>
    </contour>
  </outline>
</glyph>
<glyph name="three" format="1">
  <advance width="403"/>
  <unicode hex="0033"/>
  <outline>
    <contour>
      <point x="33" y="426" type="line"/>
      <point x="143" y="426" type="line"/>
      <point x="143" y="443" type="line" smooth="yes"/>
      <point x="143" y="499"/>
      <point x="164" y="528"/>
      <point x="200" y="528" type="curve" smooth="yes"/>
      <point x="234" y="528"/>
      <point x="255" y="503"/>
      <point x="255" y="446" type="curve" smooth="yes"/>
      <point x="255" y="384"/>
      <point x="229" y="353"/>
      <point x="195" y="353" type="curve" smooth="yes"/>
      <point x="164" y="353" type="line"/>
      <point x="164" y="263" type="line"/>
      <point x="194" y="263" type="line" smooth="yes"/>
      <point x="232" y="263"/>
      <point x="266" y="244"/>
      <point x="266" y="168" type="curve" smooth="yes"/>
      <point x="266" y="107"/>
      <point x="240" y="79"/>
      <point x="200" y="79" type="curve" smooth="yes"/>
      <point x="156" y="79"/>
      <point x="133" y="111"/>
      <point x="133" y="169" type="curve" smooth="yes"/>
      <point x="133" y="187" type="line"/>
      <point x="22" y="187" type="line"/>
      <point x="22" y="171" type="line" smooth="yes"/>
      <point x="22" y="61"/>
      <point x="86" y="-11"/>
      <point x="202" y="-11" type="curve" smooth="yes"/>
      <point x="304" y="-11"/>
      <point x="377" y="55"/>
      <point x="377" y="163" type="curve" smooth="yes"/>
      <point x="377" y="243"/>
      <point x="339" y="292"/>
      <point x="287" y="311" type="curve"/>
      <point x="287" y="315" type="line"/>
      <point x="332" y="340"/>
      <point x="366" y="379"/>
      <point x="366" y="451" type="curve" smooth="yes"/>
      <point x="366" y="559"/>
      <point x="299" y="617"/>
      <point x="199" y="617" type="curve" smooth="yes"/>
      <point x="102" y="617"/>
      <point x="33" y="552"/>
      <point x="33" y="451" type="curve" smooth="yes"/>
    </contour>
  </outline>
</glyph>
<glyph name="four" format="1">
  <advance width="403"/>
  <unicode hex="0034"/>
  <outline>
    <contour>
      <point x="160" y="617" type="line"/>
      <point x="125" y="483"/>
      <point x="71" y="334"/>
      <point x="7" y="222" type="curve"/>
      <point x="7" y="137" type="line"/>
      <point x="225" y="137" type="line"/>
      <point x="225" y="0" type="line"/>
      <point x="331" y="0" type="line"/>
      <point x="331" y="137" type="line"/>
      <point x="393" y="137" type="line"/>
      <point x="393" y="226" type="line"/>
      <point x="331" y="226" type="line"/>
      <point x="331" y="527" type="line"/>
      <point x="285" y="527" type="line"/>
      <point x="273" y="480"/>
      <point x="248" y="408"/>
      <point x="225" y="362" type="curve"/>
      <point x="225" y="226" type="line"/>
      <point x="99" y="226" type="line"/>
      <point x="133" y="274"/>
      <point x="232" y="460"/>
      <point x="266" y="617" type="curve"/>
    </contour>
  </outline>
</glyph>
<glyph name="seven" format="1">
  <advance width="403"/>
  <unicode hex="0037"/>
  <outline>
    <contour>
      <point x="383" y="606" type="line"/>
      <point x="20" y="606" type="line"/>
      <point x="20" y="507" type="line"/>
      <point x="268" y="507" type="line"/>
      <point x="175" y="385"/>
      <point x="88" y="194"/>
      <point x="88" y="0" type="curve"/>
      <point x="205" y="0" type="line"/>
      <point x="204" y="21"/>
      <point x="204" y="28"/>
      <point x="204" y="45" type="curve" smooth="yes"/>
      <point x="204" y="231"/>
      <point x="303" y="415"/>
      <point x="383" y="535" type="curve"/>
    </contour>
  </outline>
</glyph>
<glyph name="nine" format="1">
  <advance width="403"/>
  <unicode hex="0039"/>
  <outline>
    <contour>
      <point x="42" y="187" type="line"/>
      <point x="42" y="74"/>
      <point x="89" y="-11"/>
      <point x="202" y="-11" type="curve" smooth="yes"/>
      <point x="311" y="-11"/>
      <point x="377" y="68"/>
      <point x="377" y="321" type="curve" smooth="yes"/>
      <point x="377" y="545"/>
      <point x="308" y="617"/>
      <point x="194" y="617" type="curve" smooth="yes"/>
      <point x="97" y="617"/>
      <point x="27" y="542"/>
      <point x="27" y="421" type="curve" smooth="yes"/>
      <point x="27" y="309"/>
      <point x="75" y="225"/>
      <point x="173" y="225" type="curve" smooth="yes"/>
      <point x="212" y="225"/>
      <point x="247" y="243"/>
      <point x="267" y="273" type="curve"/>
      <point x="265" y="155"/>
      <point x="260" y="79"/>
      <point x="205" y="79" type="curve" smooth="yes"/>
      <point x="164" y="79"/>
      <point x="151" y="118"/>
      <point x="151" y="187" type="curve"/>
    </contour>
    <contour>
      <point x="240" y="528"/>
      <point x="261" y="482"/>
      <point x="261" y="421" type="curve" smooth="yes"/>
      <point x="261" y="356"/>
      <point x="240" y="312"/>
      <point x="198" y="312" type="curve" smooth="yes"/>
      <point x="156" y="312"/>
      <point x="136" y="356"/>
      <point x="136" y="421" type="curve" smooth="yes"/>
      <point x="136" y="482"/>
      <point x="156" y="528"/>
      <point x="198" y="528" type="curve" smooth="yes"/>
    </contour>
  </outline>
</glyph>
<glyph name="semicolon" format="1">
  <advance width="241"/>
  <unicode hex="003B"/>
  <outline>
    <contour>
      <point x="49" y="344" type="line"/>
      <point x="171" y="344" type="line"/>
      <point x="171" y="465" type="line"/>
      <point x="49" y="465" type="line"/>
    </contour>
    <contour>
      <point x="111" y="-138" type="line"/>
      <point x="170" y="11" type="line"/>
      <point x="170" y="121" type="line"/>
      <point x="48" y="121" type="line"/>
      <point x="48" y="0" type="line"/>
      <point x="96" y="0" type="line"/>
      <point x="48" y="-138" type="line"/>
    </contour>
  </outline>
</glyph>
<glyph name="question" format="1">
  <advance width="443"/>
  <unicode hex="003F"/>
  <outline>
    <contour>
      <point x="156" y="406" type="line"/>
      <point x="156" y="406"/>
      <point x="155" y="415"/>
      <point x="155" y="430" type="curve" smooth="yes"/>
      <point x="155" y="462"/>
      <point x="164" y="522"/>
      <point x="223" y="522" type="curve" smooth="yes"/>
      <point x="278" y="522"/>
      <point x="285" y="468"/>
      <point x="285" y="450" type="curve" smooth="yes"/>
      <point x="285" y="336"/>
      <point x="179" y="318"/>
      <point x="179" y="212" type="curve" smooth="yes"/>
      <point x="179" y="174" type="line"/>
      <point x="290" y="174" type="line"/>
      <point x="290" y="199" type="line" smooth="yes"/>
      <point x="290" y="302"/>
      <point x="400" y="303"/>
      <point x="400" y="460" type="curve" smooth="yes"/>
      <point x="400" y="552"/>
      <point x="335" y="617"/>
      <point x="230" y="617" type="curve" smooth="yes"/>
      <point x="103" y="617"/>
      <point x="42" y="536"/>
      <point x="42" y="437" type="curve" smooth="yes"/>
      <point x="42" y="426"/>
      <point x="44" y="406"/>
      <point x="44" y="406" type="curve"/>
    </contour>
    <contour>
      <point x="174" y="121" type="line"/>
      <point x="174" y="0" type="line"/>
      <point x="296" y="0" type="line"/>
      <point x="296" y="121" type="line"/>
    </contour>
  </outline>
</glyph>
<glyph name="at" format="1">
  <advance width="707"/>
  <unicode hex="0040"/>
  <outline>
    <contour>
      <point x="179" y="617"/>
      <point x="22" y="514"/>
      <point x="22" y="232" type="curve" smooth="yes"/>
      <point x="22" y="-24"/>
      <point x="142" y="-135"/>
      <point x="336" y="-135" type="curve" smooth="yes"/>
      <point x="373" y="-135"/>
      <point x="441" y="-126"/>
      <point x="477" y="-111" type="curve"/>
      <point x="477" y="-46" type="line"/>
      <point x="446" y="-62"/>
      <point x="376" y="-74"/>
      <point x="336" y="-74" type="curve" smooth="yes"/>
      <point x="165" y="-74"/>
      <point x="87" y="28"/>
      <point x="87" y="231" type="curve" smooth="yes"/>
      <point x="87" y="450"/>
      <point x="193" y="556"/>
      <point x="363" y="556" type="curve" smooth="yes"/>
      <point x="515" y="556"/>
      <point x="621" y="476"/>
      <point x="621" y="285" type="curve" smooth="yes"/>
      <point x="621" y="146"/>
      <point x="575" y="101"/>
      <point x="535" y="101" type="curve" smooth="yes"/>
      <point x="518" y="101"/>
      <point x="508" y="110"/>
      <point x="508" y="134" type="curve" smooth="yes"/>
      <point x="508" y="336" type="line" smooth="yes"/>
      <point x="508" y="415"/>
      <point x="462" y="461"/>
      <point x="364" y="461" type="curve" smooth="yes"/>
      <point x="278" y="461"/>
      <point x="222" y="414"/>
      <point x="222" y="344" type="curve" smooth="yes"/>
      <point x="222" y="336"/>
      <point x="222" y="331"/>
      <point x="223" y="326" type="curve"/>
      <point x="316" y="326" type="line"/>
      <point x="316" y="338" type="line" smooth="yes"/>
      <point x="316" y="358"/>
      <point x="327" y="382"/>
      <point x="367" y="382" type="curve" smooth="yes"/>
      <point x="404" y="382"/>
      <point x="411" y="359"/>
      <point x="411" y="330" type="curve" smooth="yes"/>
      <point x="411" y="286" type="line"/>
      <point x="288" y="286"/>
      <point x="202" y="252"/>
      <point x="202" y="138" type="curve" smooth="yes"/>
      <point x="202" y="41"/>
      <point x="268" y="19"/>
      <point x="308" y="19" type="curve" smooth="yes"/>
      <point x="363" y="19"/>
      <point x="390" y="41"/>
      <point x="414" y="75" type="curve"/>
      <point x="418" y="75" type="line"/>
      <point x="431" y="42"/>
      <point x="452" y="19"/>
      <point x="510" y="19" type="curve" smooth="yes"/>
      <point x="583" y="19"/>
      <point x="686" y="83"/>
      <point x="686" y="284" type="curve" smooth="yes"/>
      <point x="686" y="521"/>
      <point x="549" y="617"/>
      <point x="364" y="617" type="curve" smooth="yes"/>
    </contour>
    <contour>
      <point x="411" y="192" type="line" smooth="yes"/>
      <point x="411" y="142"/>
      <point x="393" y="100"/>
      <point x="347" y="100" type="curve" smooth="yes"/>
      <point x="315" y="100"/>
      <point x="301" y="118"/>
      <point x="301" y="147" type="curve" smooth="yes"/>
      <point x="301" y="202"/>
      <point x="354" y="216"/>
      <point x="411" y="216" type="curve"/>
    </contour>
  </outline>
</glyph>
<glyph name="B" format="1">
  <advance width="523"/>
  <unicode hex="0042"/>
  <outline>
    <contour>
      <point x="53" y="606" type="line"/>
      <point x="53" y="0" type="line"/>
      <point x="314" y="0" type="line" smooth="yes"/>
      <point x="411" y="0"/>
      <point x="493" y="61"/>
      <point x="493" y="163" type="curve" smooth="yes"/>
      <point x="493" y="240"/>
      <point x="446" y="296"/>
      <point x="386" y="315" type="curve"/>
      <point x="386" y="318" type="line"/>
      <point x="438" y="337"/>
      <point x="479" y="386"/>
      <point x="479" y="456" type="curve" smooth="yes"/>
      <point x="479" y="545"/>
      <point x="409" y="606"/>
      <point x="314" y="606" type="curve" smooth="yes"/>
    </contour>
    <contour>
      <point x="166" y="361" type="line"/>
      <point x="166" y="506" type="line"/>
      <point x="288" y="506" type="line" smooth="yes"/>
      <point x="333" y="506"/>
      <point x="363" y="482"/>
      <point x="363" y="436" type="curve" smooth="yes"/>
      <point x="363" y="395"/>
      <point x="337" y="361"/>
      <point x="283" y="361" type="curve" smooth="yes"/>
    </contour>
    <contour>
      <point x="166" y="101" type="line"/>
      <point x="166" y="261" type="line"/>
      <point x="290" y="261" type="line" smooth="yes"/>
      <point x="349" y="261"/>
      <point x="377" y="224"/>
      <point x="377" y="177" type="curve" smooth="yes"/>
      <point x="377" y="127"/>
      <point x="342" y="101"/>
      <point x="295" y="101" type="curve" smooth="yes"/>
    </contour>
  </outline>
</glyph>
<glyph name="C" format="1">
  <advance width="523"/>
  <unicode hex="0043"/>
  <outline>
    <contour>
      <point x="384" y="225" type="line"/>
      <point x="384" y="131"/>
      <point x="340" y="87"/>
      <point x="275" y="87" type="curve" smooth="yes"/>
      <point x="188" y="87"/>
      <point x="147" y="160"/>
      <point x="147" y="281" type="curve" smooth="yes"/>
      <point x="147" y="325" type="line" smooth="yes"/>
      <point x="147" y="446"/>
      <point x="187" y="520"/>
      <point x="271" y="520" type="curve" smooth="yes"/>
      <point x="335" y="520"/>
      <point x="378" y="475"/>
      <point x="378" y="381" type="curve"/>
      <point x="494" y="381" type="line"/>
      <point x="494" y="545"/>
      <point x="398" y="617"/>
      <point x="271" y="617" type="curve" smooth="yes"/>
      <point x="119" y="617"/>
      <point x="30" y="517"/>
      <point x="30" y="303" type="curve" smooth="yes"/>
      <point x="30" y="89"/>
      <point x="119" y="-11"/>
      <point x="271" y="-11" type="curve" smooth="yes"/>
      <point x="400" y="-11"/>
      <point x="494" y="65"/>
      <point x="494" y="225" type="curve"/>
    </contour>
    <contour>
      <point x="262" y="606" type="move" name="top"/>
    </contour>
    <contour>
      <point x="262" y="0" type="move" name="bottom"/>
    </contour>
  </outline>
</glyph>
<glyph name="G" format="1">
  <advance width="564"/>
  <unicode hex="0047"/>
  <outline>
    <contour>
      <point x="124" y="617"/>
      <point x="30" y="517"/>
      <point x="30" y="303" type="curve" smooth="yes"/>
      <point x="30" y="88"/>
      <point x="116" y="-11"/>
      <point x="264" y="-11" type="curve" smooth="yes"/>
      <point x="328" y="-11"/>
      <point x="387" y="16"/>
      <point x="426" y="67" type="curve"/>
      <point x="446" y="0" type="line"/>
      <point x="519" y="0" type="line"/>
      <point x="519" y="330" type="line"/>
      <point x="267" y="330" type="line"/>
      <point x="267" y="232" type="line"/>
      <point x="451" y="232" type="line"/>
      <point x="403" y="275" type="line"/>
      <point x="403" y="235" type="line"/>
      <point x="404" y="144"/>
      <point x="354" y="87"/>
      <point x="285" y="87" type="curve" smooth="yes"/>
      <point x="190" y="87"/>
      <point x="147" y="157"/>
      <point x="147" y="281" type="curve" smooth="yes"/>
      <point x="147" y="325" type="line" smooth="yes"/>
      <point x="147" y="446"/>
      <point x="189" y="520"/>
      <point x="284" y="520" type="curve" smooth="yes"/>
      <point x="349" y="520"/>
      <point x="403" y="476"/>
      <point x="403" y="394" type="curve"/>
      <point x="519" y="394" type="line"/>
      <point x="519" y="539"/>
      <point x="409" y="617"/>
      <point x="287" y="617" type="curve" smooth="yes"/>
    </contour>
    <contour>
      <point x="282" y="606" type="move" name="top"/>
    </contour>
    <contour>
      <point x="282" y="0" type="move" name="bottom"/>
    </contour>
  </outline>
</glyph>
<glyph name="J" format="1">
  <advance width="403"/>
  <unicode hex="004A"/>
  <outline>
    <contour>
      <point x="202" y="606" type="move" name="top"/>
    </contour>
    <contour>
      <point x="350" y="606" type="line"/>
      <point x="237" y="606" type="line"/>
      <point x="237" y="153" type="line" smooth="yes"/>
      <point x="237" y="110"/>
      <point x="217" y="87"/>
      <point x="179" y="87" type="curve" smooth="yes"/>
      <point x="141" y="87"/>
      <point x="120" y="110"/>
      <point x="120" y="153" type="curve" smooth="yes"/>
      <point x="120" y="191" type="line"/>
      <point x="8" y="191" type="line"/>
      <point x="8" y="144" type="line" smooth="yes"/>
      <point x="8" y="43"/>
      <point x="70" y="-11"/>
      <point x="179" y="-11" type="curve" smooth="yes"/>
      <point x="289" y="-11"/>
      <point x="350" y="43"/>
      <point x="350" y="144" type="curve" smooth="yes"/>
    </contour>
  </outline>
</glyph>
<glyph name="L" format="1">
  <advance width="501"/>
  <unicode hex="004C"/>
  <outline>
    <contour>
      <point x="60" y="686" type="line"/>
      <point x="60" y="0" type="line"/>
      <point x="478" y="0" type="line"/>
      <point x="478" y="120" type="line"/>
      <point x="188" y="120" type="line"/>
      <point x="188" y="686" type="line"/>
    </contour>
    <contour>
      <point x="251" y="686" type="move" name="top"/>
    </contour>
    <contour>
      <point x="251" y="0" type="move" name="bottom"/>
    </contour>
  </outline>
</glyph>
<glyph name="P" format="1">
  <advance width="484"/>
  <unicode hex="0050"/>
  <outline>
    <contour>
      <point x="53" y="0" type="line"/>
      <point x="166" y="0" type="line"/>
      <point x="166" y="235" type="line"/>
      <point x="270" y="235" type="line" smooth="yes"/>
      <point x="384" y="235"/>
      <point x="460" y="310"/>
      <point x="460" y="424" type="curve" smooth="yes"/>
      <point x="460" y="530"/>
      <point x="395" y="606"/>
      <point x="270" y="606" type="curve" smooth="yes"/>
      <point x="53" y="606" type="line"/>
    </contour>
    <contour>
      <point x="166" y="335" type="line"/>
      <point x="166" y="506" type="line"/>
      <point x="258" y="506" type="line" smooth="yes"/>
      <point x="312" y="506"/>
      <point x="343" y="474"/>
      <point x="343" y="424" type="curve" smooth="yes"/>
      <point x="343" y="369"/>
      <point x="313" y="335"/>
      <point x="258" y="335" type="curve" smooth="yes"/>
    </contour>
  </outline>
</glyph>
<glyph name="T" format="1">
  <advance width="443"/>
  <unicode hex="0054"/>
  <outline>
    <contour>
      <point x="222" y="0" type="move" name="bottom"/>
    </contour>
    <contour>
      <point x="222" y="303" type="move" name="center"/>
    </contour>
    <contour>
      <point x="222" y="606" type="move" name="top"/>
    </contour>
    <contour>
      <point x="278" y="506" type="line"/>
      <point x="429" y="506" type="line"/>
      <point x="429" y="606" type="line"/>
      <point x="15" y="606" type="line"/>
      <point x="15" y="506" type="line"/>
      <point x="165" y="506" type="line"/>
      <point x="165" y="0" type="line"/>
      <point x="278" y="0" type="line"/>
    </contour>
  </outline>
</glyph>
<glyph name="Y" format="1">
  <advance width="484"/>
  <unicode hex="0059"/>
  <outline>
    <contour>
      <point x="242" y="606" type="move" name="top"/>
    </contour>
    <contour>
      <point x="186" y="0" type="line"/>
      <point x="299" y="0" type="line"/>
      <point x="299" y="229" type="line"/>
      <point x="484" y="606" type="line"/>
      <point x="370" y="606" type="line"/>
      <point x="247" y="340" type="line"/>
      <point x="243" y="340" type="line"/>
      <point x="119" y="606" type="line"/>
      <point x="0" y="606" type="line"/>
      <point x="186" y="229" type="line"/>
    </contour>
  </outline>
</glyph>
<glyph name="bracketleft" format="1">
  <advance width="241"/>
  <unicode hex="005B"/>
  <outline>
    <contour>
      <point x="146" y="-58" type="line"/>
      <point x="146" y="566" type="line"/>
      <point x="219" y="566" type="line"/>
      <point x="219" y="650" type="line"/>
      <point x="43" y="650" type="line"/>
      <point x="43" y="-142" type="line"/>
      <point x="219" y="-142" type="line"/>
      <point x="219" y="-58" type="line"/>
    </contour>
  </outline>
</glyph>
<glyph name="backslash" format="1">
  <advance width="202"/>
  <unicode hex="005C"/>
  <outline>
    <contour>
      <point x="126" y="-43" type="line"/>
      <point x="202" y="-43" type="line"/>
      <point x="76" y="650" type="line"/>
      <point x="1" y="650" type="line"/>
    </contour>
  </outline>
</glyph>
<glyph name="bracketright" format="1">
  <advance width="241"/>
  <unicode hex="005D"/>
  <outline>
    <contour>
      <point x="22" y="-58" type="line"/>
      <point x="22" y="-142" type="line"/>
      <point x="198" y="-142" type="line"/>
      <point x="198" y="650" type="line"/>
      <point x="22" y="650" type="line"/>
      <point x="22" y="566" type="line"/>
      <point x="95" y="566" type="line"/>
      <point x="95" y="-58" type="line"/>
    </contour>
  </outline>
</glyph>
<glyph name="asciicircum" format="1">
  <advance width="423"/>
  <unicode hex="005E"/>
  <outline>
    <contour>
      <point x="302" y="260" type="line"/>
      <point x="400" y="260" type="line"/>
      <point x="261" y="606" type="line"/>
      <point x="166" y="606" type="line"/>
      <point x="28" y="260" type="line"/>
      <point x="126" y="260" type="line"/>
      <point x="213" y="499" type="line"/>
    </contour>
  </outline>
</glyph>
<glyph name="b" format="1">
  <advance width="443"/>
  <unicode hex="0062"/>
  <outline>
    <contour>
      <point x="155" y="417" type="line"/>
      <point x="155" y="639" type="line"/>
      <point x="49" y="639" type="line"/>
      <point x="49" y="0" type="line"/>
      <point x="137" y="0" type="line"/>
      <point x="148" y="57" type="line"/>
      <point x="152" y="57" type="line"/>
      <point x="175" y="12"/>
      <point x="213" y="-11"/>
      <point x="257" y="-11" type="curve" smooth="yes"/>
      <point x="349" y="-11"/>
      <point x="407" y="65"/>
      <point x="407" y="233" type="curve" smooth="yes"/>
      <point x="407" y="402"/>
      <point x="345" y="476"/>
      <point x="263" y="476" type="curve" smooth="yes"/>
      <point x="216" y="476"/>
      <point x="176" y="454"/>
      <point x="159" y="417" type="curve"/>
    </contour>
    <contour>
      <point x="296" y="216" type="line" smooth="yes"/>
      <point x="296" y="132"/>
      <point x="277" y="86"/>
      <point x="225" y="86" type="curve" smooth="yes"/>
      <point x="174" y="86"/>
      <point x="155" y="132"/>
      <point x="155" y="216" type="curve" smooth="yes"/>
      <point x="155" y="248" type="line" smooth="yes"/>
      <point x="155" y="331"/>
      <point x="174" y="379"/>
      <point x="225" y="379" type="curve" smooth="yes"/>
      <point x="277" y="379"/>
      <point x="296" y="333"/>
      <point x="296" y="249" type="curve" smooth="yes"/>
    </contour>
  </outline>
</glyph>
<glyph name="h" format="1">
  <advance width="443"/>
  <unicode hex="0068"/>
  <outline>
    <contour>
      <point x="155" y="415" type="line"/>
      <point x="155" y="639" type="line"/>
      <point x="49" y="639" type="line"/>
      <point x="49" y="0" type="line"/>
      <point x="155" y="0" type="line"/>
      <point x="155" y="286" type="line" smooth="yes"/>
      <point x="155" y="339"/>
      <point x="186" y="379"/>
      <point x="227" y="379" type="curve" smooth="yes"/>
      <point x="265" y="379"/>
      <point x="288" y="357"/>
      <point x="288" y="297" type="curve" smooth="yes"/>
      <point x="288" y="0" type="line"/>
      <point x="394" y="0" type="line"/>
      <point x="394" y="326" type="line" smooth="yes"/>
      <point x="394" y="436"/>
      <point x="342" y="476"/>
      <point x="271" y="476" type="curve" smooth="yes"/>
      <point x="216" y="476"/>
      <point x="179" y="445"/>
      <point x="158" y="415" type="curve"/>
    </contour>
    <contour>
      <point x="222" y="232" type="move" name="center"/>
    </contour>
    <contour>
      <point x="222" y="465" type="move" name="top"/>
    </contour>
  </outline>
</glyph>
<glyph name="i" format="1">
  <advance width="202"/>
  <unicode hex="0069"/>
  <outline>
    <contour>
      <point x="48" y="543" type="line"/>
      <point x="154" y="543" type="line"/>
      <point x="154" y="639" type="line"/>
      <point x="48" y="639" type="line"/>
    </contour>
    <contour>
      <point x="48" y="0" type="line"/>
      <point x="154" y="0" type="line"/>
      <point x="154" y="465" type="line"/>
      <point x="48" y="465" type="line"/>
    </contour>
  </outline>
</glyph>
<glyph name="m" format="1">
  <advance width="644"/>
  <unicode hex="006D"/>
  <outline>
    <contour>
      <point x="148" y="408" type="line"/>
      <point x="137" y="465" type="line"/>
      <point x="49" y="465" type="line"/>
      <point x="49" y="0" type="line"/>
      <point x="155" y="0" type="line"/>
      <point x="155" y="286" type="line" smooth="yes"/>
      <point x="155" y="341"/>
      <point x="182" y="379"/>
      <point x="218" y="379" type="curve" smooth="yes"/>
      <point x="254" y="379"/>
      <point x="271" y="357"/>
      <point x="271" y="297" type="curve" smooth="yes"/>
      <point x="271" y="0" type="line"/>
      <point x="376" y="0" type="line"/>
      <point x="376" y="293" type="line" smooth="yes"/>
      <point x="376" y="345"/>
      <point x="406" y="379"/>
      <point x="440" y="379" type="curve" smooth="yes"/>
      <point x="476" y="379"/>
      <point x="492" y="357"/>
      <point x="492" y="297" type="curve" smooth="yes"/>
      <point x="492" y="0" type="line"/>
      <point x="598" y="0" type="line"/>
      <point x="598" y="326" type="line" smooth="yes"/>
      <point x="598" y="438"/>
      <point x="550" y="476"/>
      <point x="484" y="476" type="curve" smooth="yes"/>
      <point x="428" y="476"/>
      <point x="387" y="444"/>
      <point x="363" y="408" type="curve"/>
      <point x="345" y="456"/>
      <point x="309" y="476"/>
      <point x="263" y="476" type="curve" smooth="yes"/>
      <point x="212" y="476"/>
      <point x="175" y="444"/>
      <point x="153" y="408" type="curve"/>
    </contour>
  </outline>
</glyph>
<glyph name="q" format="1">
  <advance width="443"/>
  <unicode hex="0071"/>
  <outline>
    <contour>
      <point x="288" y="48" type="line"/>
      <point x="288" y="-153" type="line"/>
      <point x="394" y="-153" type="line"/>
      <point x="394" y="465" type="line"/>
      <point x="306" y="465" type="line"/>
      <point x="295" y="408" type="line"/>
      <point x="291" y="408" type="line"/>
      <point x="268" y="453"/>
      <point x="230" y="476"/>
      <point x="186" y="476" type="curve" smooth="yes"/>
      <point x="94" y="476"/>
      <point x="36" y="400"/>
      <point x="36" y="232" type="curve" smooth="yes"/>
      <point x="36" y="63"/>
      <point x="98" y="-11"/>
      <point x="180" y="-11" type="curve" smooth="yes"/>
      <point x="227" y="-11"/>
      <point x="267" y="11"/>
      <point x="284" y="48" type="curve"/>
    </contour>
    <contour>
      <point x="288" y="217" type="line" smooth="yes"/>
      <point x="288" y="133"/>
      <point x="269" y="86"/>
      <point x="217" y="86" type="curve" smooth="yes"/>
      <point x="166" y="86"/>
      <point x="147" y="132"/>
      <point x="147" y="216" type="curve" smooth="yes"/>
      <point x="147" y="249" type="line" smooth="yes"/>
      <point x="147" y="333"/>
      <point x="166" y="379"/>
      <point x="217" y="379" type="curve" smooth="yes"/>
      <point x="269" y="379"/>
      <point x="288" y="333"/>
      <point x="288" y="249" type="curve" smooth="yes"/>
    </contour>
  </outline>
</glyph>
<glyph name="t" format="1">
  <advance width="241"/>
  <unicode hex="0074"/>
  <outline>
    <contour>
      <point x="146" y="0" type="move" name="bottom"/>
    </contour>
    <contour>
      <point x="121" y="232" type="move" name="center"/>
    </contour>
    <contour>
      <point x="228" y="376" type="line"/>
      <point x="228" y="465" type="line"/>
      <point x="161" y="465" type="line"/>
      <point x="161" y="596" type="line"/>
      <point x="71" y="596" type="line"/>
      <point x="55" y="465" type="line"/>
      <point x="8" y="465" type="line"/>
      <point x="8" y="376" type="line"/>
      <point x="55" y="376" type="line"/>
      <point x="55" y="114" type="line" smooth="yes"/>
      <point x="55" y="52"/>
      <point x="80" y="-11"/>
      <point x="164" y="-11" type="curve" smooth="yes"/>
      <point x="185" y="-11"/>
      <point x="213" y="-5"/>
      <point x="228" y="0" type="curve"/>
      <point x="228" y="79" type="line"/>
      <point x="198" y="79" type="line" smooth="yes"/>
      <point x="174" y="79"/>
      <point x="161" y="92"/>
      <point x="161" y="117" type="curve" smooth="yes"/>
      <point x="161" y="376" type="line"/>
    </contour>
  </outline>
</glyph>
<glyph name="v" format="1">
  <advance width="456"/>
  <unicode hex="0076"/>
  <outline>
    <contour>
      <point x="332" y="526" type="line"/>
      <point x="265" y="300" type="line" smooth="yes"/>
      <point x="250" y="248"/>
      <point x="245" y="195"/>
      <point x="235" y="142" type="curve"/>
      <point x="231" y="142" type="line"/>
      <point x="220" y="195"/>
      <point x="214" y="248"/>
      <point x="198" y="300" type="curve" smooth="yes"/>
      <point x="130" y="526" type="line"/>
      <point x="4" y="526" type="line"/>
      <point x="167" y="0" type="line"/>
      <point x="289" y="0" type="line"/>
      <point x="452" y="526" type="line"/>
    </contour>
  </outline>
</glyph>
<glyph name="x" format="1">
  <advance width="403"/>
  <unicode hex="0078"/>
  <outline>
    <contour>
      <point x="399" y="0" type="line"/>
      <point x="266" y="243" type="line"/>
      <point x="392" y="465" type="line"/>
      <point x="278" y="465" type="line"/>
      <point x="209" y="330" type="line"/>
      <point x="204" y="330" type="line"/>
      <point x="135" y="465" type="line"/>
      <point x="15" y="465" type="line"/>
      <point x="139" y="240" type="line"/>
      <point x="4" y="0" type="line"/>
      <point x="118" y="0" type="line"/>
      <point x="196" y="154" type="line"/>
      <point x="201" y="154" type="line"/>
      <point x="279" y="0" type="line"/>
    </contour>
  </outline>
</glyph>
<glyph name="z" format="1">
  <advance width="362"/>
  <unicode hex="007A"/>
  <outline>
    <contour>
      <point x="181" y="465" type="move" name="top"/>
    </contour>
    <contour>
      <point x="347" y="89" type="line"/>
      <point x="159" y="89" type="line"/>
      <point x="340" y="421" type="line"/>
      <point x="340" y="465" type="line"/>
      <point x="27" y="465" type="line"/>
      <point x="27" y="376" type="line"/>
      <point x="196" y="376" type="line"/>
      <point x="16" y="45" type="line"/>
      <point x="16" y="0" type="line"/>
      <point x="347" y="0" type="line"/>
    </contour>
  </outline>
</glyph>
<glyph name="braceright" format="1">
  <advance width="282"/>
  <unicode hex="007D"/>
  <outline>
    <contour>
      <point x="19" y="582" type="line"/>
      <point x="50" y="582"/>
      <point x="88" y="573"/>
      <point x="88" y="528" type="curve" smooth="yes"/>
      <point x="88" y="469"/>
      <point x="93" y="414"/>
      <point x="95" y="354" type="curve" smooth="yes"/>
      <point x="96" y="294"/>
      <point x="121" y="259"/>
      <point x="190" y="259" type="curve"/>
      <point x="190" y="250" type="line"/>
      <point x="121" y="250"/>
      <point x="97" y="215"/>
      <point x="95" y="155" type="curve" smooth="yes"/>
      <point x="93" y="95"/>
      <point x="88" y="40"/>
      <point x="88" y="-19" type="curve" smooth="yes"/>
      <point x="88" y="-64"/>
      <point x="50" y="-72"/>
      <point x="19" y="-72" type="curve"/>
      <point x="19" y="-141" type="line"/>
      <point x="110" y="-141"/>
      <point x="193" y="-121"/>
      <point x="193" y="-10" type="curve" smooth="yes"/>
      <point x="193" y="161" type="line" smooth="yes"/>
      <point x="193" y="201"/>
      <point x="229" y="214"/>
      <point x="261" y="214" type="curve"/>
      <point x="261" y="295" type="line"/>
      <point x="229" y="295"/>
      <point x="193" y="309"/>
      <point x="193" y="348" type="curve" smooth="yes"/>
      <point x="193" y="519" type="line" smooth="yes"/>
      <point x="193" y="630"/>
      <point x="110" y="650"/>
      <point x="19" y="650" type="curve"/>
    </contour>
  </outline>
</glyph>
<glyph name="exclamdown" format="1">
  <advance width="273"/>
  <unicode hex="00A1"/>
  <outline>
    <contour>
      <point x="95" y="329" type="line"/>
      <point x="83" y="166"/>
      <point x="72" y="3"/>
      <point x="60" y="-160" type="curve"/>
      <point x="213" y="-160" type="line"/>
      <point x="201" y="3"/>
      <point x="189" y="166"/>
      <point x="177" y="329" type="curve"/>
    </contour>
    <contour>
      <point x="68" y="526" type="line"/>
      <point x="68" y="389" type="line"/>
      <point x="206" y="389" type="line"/>
      <point x="206" y="526" type="line"/>
    </contour>
  </outline>
</glyph>
<glyph name="brokenbar" format="1">
  <advance width="203"/>
  <unicode hex="00A6"/>
  <outline>
    <contour>
      <point x="62" y="639" type="line"/>
      <point x="62" y="310" type="line"/>
      <point x="141" y="310" type="line"/>
      <point x="141" y="639" type="line"/>
    </contour>
    <contour>
      <point x="62" y="176" type="line"/>
      <point x="62" y="-153" type="line"/>
      <point x="141" y="-153" type="line"/>
      <point x="141" y="176" type="line"/>
    </contour>
  </outline>
</glyph>
<glyph name="section" format="1">
  <advance width="403"/>
  <unicode hex="00A7"/>
  <outline>
    <contour>
      <point x="117" y="617"/>
      <point x="45" y="570"/>
      <point x="45" y="476" type="curve" smooth="yes"/>
      <point x="45" y="423"/>
      <point x="64" y="389"/>
      <point x="90" y="363" type="curve"/>
      <point x="53" y="331"/>
      <point x="33" y="284"/>
      <point x="33" y="237" type="curve" smooth="yes"/>
      <point x="33" y="59"/>
      <point x="261" y="90"/>
      <point x="261" y="-28" type="curve" smooth="yes"/>
      <point x="261" y="-57"/>
      <point x="239" y="-74"/>
      <point x="206" y="-74" type="curve" smooth="yes"/>
      <point x="174" y="-74"/>
      <point x="155" y="-57"/>
      <point x="154" y="-16" type="curve"/>
      <point x="154" y="-14" type="line"/>
      <point x="46" y="-14" type="line"/>
      <point x="46" y="-15"/>
      <point x="45" y="-25"/>
      <point x="45" y="-34" type="curve" smooth="yes"/>
      <point x="45" y="-114"/>
      <point x="114" y="-161"/>
      <point x="202" y="-161" type="curve" smooth="yes"/>
      <point x="297" y="-161"/>
      <point x="369" y="-114"/>
      <point x="369" y="-19" type="curve" smooth="yes"/>
      <point x="369" y="32"/>
      <point x="350" y="66"/>
      <point x="324" y="93" type="curve"/>
      <point x="361" y="125"/>
      <point x="381" y="171"/>
      <point x="381" y="219" type="curve" smooth="yes"/>
      <point x="381" y="397"/>
      <point x="153" y="366"/>
      <point x="153" y="484" type="curve" smooth="yes"/>
      <point x="153" y="513"/>
      <point x="175" y="530"/>
      <point x="208" y="530" type="curve" smooth="yes"/>
      <point x="239" y="530"/>
      <point x="259" y="513"/>
      <point x="260" y="472" type="curve" smooth="yes"/>
      <point x="260" y="470" type="line"/>
      <point x="368" y="470" type="line"/>
      <point x="368" y="471"/>
      <point x="369" y="481"/>
      <point x="369" y="491" type="curve" smooth="yes"/>
      <point x="369" y="570"/>
      <point x="300" y="617"/>
      <point x="211" y="617" type="curve" smooth="yes"/>
    </contour>
    <contour>
      <point x="215" y="284"/>
      <point x="277" y="259"/>
      <point x="277" y="188" type="curve" smooth="yes"/>
      <point x="277" y="170"/>
      <point x="269" y="152"/>
      <point x="257" y="138" type="curve"/>
      <point x="198" y="171"/>
      <point x="137" y="197"/>
      <point x="137" y="268" type="curve" smooth="yes"/>
      <point x="137" y="286"/>
      <point x="145" y="303"/>
      <point x="156" y="317" type="curve"/>
    </contour>
  </outline>
</glyph>
<glyph name="dieresis" format="1">
  <advance width="241"/>
  <unicode hex="00A8"/>
  <outline>
    <contour>
      <point x="121" y="465" type="move" name="_top"/>
    </contour>
    <contour>
      <point x="-1" y="639" type="line"/>
      <point x="-1" y="543" type="line"/>
      <point x="88" y="543" type="line"/>
      <point x="88" y="639" type="line"/>
    </contour>
    <contour>
      <point x="154" y="639" type="line"/>
      <point x="154" y="543" type="line"/>
      <point x="242" y="543" type="line"/>
      <point x="242" y="639" type="line"/>
    </contour>
  </outline>
</glyph>
<glyph name="ordfeminine" format="1">
  <advance width="268"/>
  <unicode hex="00AA"/>
  <outline>
    <contour>
      <point x="102" y="549" type="line"/>
      <point x="102" y="558" type="line" smooth="yes"/>
      <point x="102" y="571"/>
      <point x="109" y="587"/>
      <point x="135" y="587" type="curve" smooth="yes"/>
      <point x="160" y="587"/>
      <point x="164" y="571"/>
      <point x="164" y="552" type="curve" smooth="yes"/>
      <point x="164" y="519" type="line"/>
      <point x="75" y="519"/>
      <point x="12" y="493"/>
      <point x="12" y="409" type="curve" smooth="yes"/>
      <point x="12" y="336"/>
      <point x="62" y="321"/>
      <point x="91" y="321" type="curve" smooth="yes"/>
      <point x="133" y="321"/>
      <point x="153" y="337"/>
      <point x="171" y="362" type="curve"/>
      <point x="174" y="362" type="line"/>
      <point x="181" y="338"/>
      <point x="201" y="321"/>
      <point x="229" y="321" type="curve" smooth="yes"/>
      <point x="250" y="321"/>
      <point x="263" y="326"/>
      <point x="271" y="330" type="curve"/>
      <point x="271" y="385" type="line"/>
      <point x="257" y="385" type="line" smooth="yes"/>
      <point x="248" y="385"/>
      <point x="240" y="391"/>
      <point x="240" y="406" type="curve" smooth="yes"/>
      <point x="240" y="556" type="line" smooth="yes"/>
      <point x="240" y="615"/>
      <point x="206" y="649"/>
      <point x="133" y="649" type="curve" smooth="yes"/>
      <point x="69" y="649"/>
      <point x="27" y="614"/>
      <point x="27" y="561" type="curve" smooth="yes"/>
      <point x="27" y="556"/>
      <point x="27" y="552"/>
      <point x="28" y="549" type="curve"/>
    </contour>
    <contour>
      <point x="164" y="449" type="line" smooth="yes"/>
      <point x="164" y="414"/>
      <point x="152" y="384"/>
      <point x="121" y="384" type="curve" smooth="yes"/>
      <point x="99" y="384"/>
      <point x="89" y="396"/>
      <point x="89" y="415" type="curve" smooth="yes"/>
      <point x="89" y="456"/>
      <point x="126" y="467"/>
      <point x="164" y="467" type="curve"/>
    </contour>
  </outline>
</glyph>
<glyph name="guillemotleft" format="1">
  <advance width="403"/>
  <unicode hex="00AB"/>
  <outline>
    <contour>
      <point x="217" y="111" type="line"/>
      <point x="122" y="288" type="line"/>
      <point x="217" y="465" type="line"/>
      <point x="137" y="465" type="line"/>
      <point x="17" y="288" type="line"/>
      <point x="137" y="111" type="line"/>
    </contour>
    <contour>
      <point x="379" y="111" type="line"/>
      <point x="284" y="288" type="line"/>
      <point x="379" y="465" type="line"/>
      <point x="299" y="465" type="line"/>
      <point x="179" y="288" type="line"/>
      <point x="299" y="111" type="line"/>
    </contour>
  </outline>
</glyph>
<glyph name="paragraph" format="1">
  <advance width="403"/>
  <unicode hex="00B6"/>
  <outline>
    <contour>
      <point x="354" y="-153" type="line"/>
      <point x="354" y="539" type="line"/>
      <point x="397" y="539" type="line"/>
      <point x="397" y="606" type="line"/>
      <point x="186" y="606" type="line" smooth="yes"/>
      <point x="91" y="606"/>
      <point x="16" y="520"/>
      <point x="16" y="413" type="curve" smooth="yes"/>
      <point x="16" y="313"/>
      <point x="80" y="232"/>
      <point x="165" y="221" type="curve"/>
      <point x="165" y="-153" type="line"/>
      <point x="236" y="-153" type="line"/>
      <point x="236" y="539" type="line"/>
      <point x="283" y="539" type="line"/>
      <point x="283" y="-153" type="line"/>
    </contour>
  </outline>
</glyph>
<glyph name="onesuperior" format="1">
  <advance width="241"/>
  <unicode hex="00B9"/>
  <outline>
    <contour>
      <point x="224" y="283" type="line"/>
      <point x="224" y="344" type="line"/>
      <point x="165" y="344" type="line"/>
      <point x="165" y="639" type="line"/>
      <point x="130" y="639" type="line"/>
      <point x="101" y="620"/>
      <point x="55" y="603"/>
      <point x="28" y="599" type="curve"/>
      <point x="28" y="550" type="line"/>
      <point x="95" y="550" type="line"/>
      <point x="95" y="344" type="line"/>
      <point x="29" y="344" type="line"/>
      <point x="29" y="283" type="line"/>
    </contour>
  </outline>
</glyph>
<glyph name="guillemotright" format="1">
  <advance width="403"/>
  <unicode hex="00BB"/>
  <outline>
    <contour>
      <point x="24" y="111" type="line"/>
      <point x="104" y="111" type="line"/>
      <point x="225" y="288" type="line"/>
      <point x="104" y="465" type="line"/>
      <point x="24" y="465" type="line"/>
      <point x="119" y="288" type="line"/>
    </contour>
    <contour>
      <point x="186" y="111" type="line"/>
      <point x="266" y="111" type="line"/>
      <point x="386" y="288" type="line"/>
      <point x="266" y="465" type="line"/>
      <point x="186" y="465" type="line"/>
      <point x="281" y="288" type="line"/>
    </contour>
  </outline>
</glyph>
<glyph name="Atilde" format="1">
  <advance width="523"/>
  <unicode hex="00C3"/>
  <outline>
    <contour>
      <point x="352" y="781" type="line"/>
      <point x="348" y="756"/>
      <point x="336" y="748"/>
      <point x="317" y="748" type="curve" smooth="yes"/>
      <point x="278" y="748"/>
      <point x="243" y="781"/>
      <point x="200" y="781" type="curve" smooth="yes"/>
      <point x="138" y="781"/>
      <point x="113" y="721"/>
      <point x="113" y="673" type="curve"/>
      <point x="171" y="673" type="line"/>
      <point x="175" y="697"/>
      <point x="187" y="705"/>
      <point x="206" y="705" type="curve" smooth="yes"/>
      <point x="246" y="705"/>
      <point x="280" y="673"/>
      <point x="323" y="673" type="curve" smooth="yes"/>
      <point x="385" y="673"/>
      <point x="410" y="732"/>
      <point x="410" y="781" type="curve"/>
    </contour>
    <contour>
      <point x="407" y="0" type="line"/>
      <point x="522" y="0" type="line"/>
      <point x="327" y="606" type="line"/>
      <point x="195" y="606" type="line"/>
      <point x="0" y="0" type="line"/>
      <point x="110" y="0" type="line"/>
      <point x="146" y="119" type="line"/>
      <point x="370" y="119" type="line"/>
    </contour>
    <contour>
      <point x="260" y="505" type="line"/>
      <point x="260" y="505"/>
      <point x="268" y="454"/>
      <point x="278" y="423" type="curve" smooth="yes"/>
      <point x="339" y="220" type="line"/>
      <point x="177" y="220" type="line"/>
      <point x="239" y="423" type="line" smooth="yes"/>
      <point x="248" y="451"/>
      <point x="256" y="505"/>
      <point x="256" y="505" type="curve"/>
    </contour>
  </outline>
</glyph>
<glyph name="Atilde" format="1">
  <advance width="523"/>
  <unicode hex="00C3"/>
  <outline>
    <contour>
      <point x="352" y="781" type="line"/>
      <point x="348" y="756"/>
      <point x="336" y="748"/>
      <point x="317" y="748" type="curve" smooth="yes"/>
      <point x="278" y="748"/>
      <point x="243" y="781"/>
      <point x="200" y="781" type="curve" smooth="yes"/>
      <point x="138" y="781"/>
      <point x="113" y="721"/>
      <point x="113" y="673" type="curve"/>
      <point x="171" y="673" type="line"/>
      <point x="175" y="697"/>
      <point x="187" y="705"/>
      <point x="206" y="705" type="curve" smooth="yes"/>
      <point x="246" y="705"/>
      <point x="280" y="673"/>
      <point x="323" y="673" type="curve" smooth="yes"/>
      <point x="385" y="673"/>
      <point x="410" y="732"/>
      <point x="410" y="781" type="curve"/>
    </contour>
    <contour>
      <point x="522" y="0" type="line"/>
      <point x="327" y="606" type="line"/>
      <point x="195" y="606" type="line"/>
      <point x="0" y="0" type="line"/>
      <point x="110" y="0" type="line"/>
      <point x="146" y="119" type="line"/>
      <point x="370" y="119" type="line"/>
      <point x="407" y="0" type="line"/>
    </contour>
    <contour>
      <point x="260" y="505" type="line"/>
      <point x="260" y="505"/>
      <point x="268" y="454"/>
      <point x="278" y="423" type="curve" smooth="yes"/>
      <point x="339" y="220" type="line"/>
      <point x="177" y="220" type="line"/>
      <point x="239" y="423" type="line" smooth="yes"/>
      <point x="248" y="451"/>
      <point x="256" y="505"/>
      <point x="256" y="505" type="curve"/>
    </contour>
  </outline>
</glyph>
<glyph name="AE" format="1">
  <advance width="820"/>
  <unicode hex="00C6"/>
  <outline>
    <contour>
      <point x="255" y="686" type="line"/>
      <point x="-8" y="0" type="line"/>
      <point x="111" y="0" type="line"/>
      <point x="161" y="135" type="line"/>
      <point x="414" y="135" type="line"/>
      <point x="447" y="0" type="line"/>
      <point x="777" y="0" type="line"/>
      <point x="777" y="114" type="line"/>
      <point x="550" y="114" type="line"/>
      <point x="506" y="294" type="line"/>
      <point x="727" y="294" type="line"/>
      <point x="727" y="408" type="line"/>
      <point x="478" y="408" type="line"/>
      <point x="438" y="572" type="line"/>
      <point x="771" y="572" type="line"/>
      <point x="771" y="686" type="line"/>
    </contour>
    <contour>
      <point x="320" y="534"/>
      <point x="323" y="521"/>
      <point x="326" y="509" type="curve"/>
      <point x="387" y="249" type="line"/>
      <point x="203" y="249" type="line"/>
      <point x="299" y="509" type="line"/>
      <point x="304" y="521"/>
      <point x="308" y="534"/>
      <point x="313" y="546" type="curve"/>
      <point x="317" y="546" type="line"/>
    </contour>
    <contour>
      <point x="410" y="686" type="move" name="top"/>
    </contour>
  </outline>
</glyph>
<glyph name="Egrave" format="1">
  <advance width="484"/>
  <unicode hex="00C8"/>
  <outline>
    <contour>
      <point x="302" y="664" type="line"/>
      <point x="226" y="781" type="line"/>
      <point x="120" y="781" type="line"/>
      <point x="119" y="778" type="line"/>
      <point x="215" y="664" type="line"/>
    </contour>
    <contour>
      <point x="439" y="506" type="line"/>
      <point x="439" y="606" type="line"/>
      <point x="53" y="606" type="line"/>
      <point x="53" y="0" type="line"/>
      <point x="445" y="0" type="line"/>
      <point x="445" y="101" type="line"/>
      <point x="166" y="101" type="line"/>
      <point x="166" y="260" type="line"/>
      <point x="400" y="260" type="line"/>
      <point x="400" y="361" type="line"/>
      <point x="166" y="361" type="line"/>
      <point x="166" y="506" type="line"/>
    </contour>
  </outline>
</glyph>
<glyph name="Eacute" format="1">
  <advance width="484"/>
  <unicode hex="00C9"/>
  <outline>
    <contour>
      <point x="364" y="778" type="line"/>
      <point x="363" y="781" type="line"/>
      <point x="257" y="781" type="line"/>
      <point x="181" y="664" type="line"/>
      <point x="269" y="664" type="line"/>
    </contour>
    <contour>
      <point x="439" y="506" type="line"/>
      <point x="439" y="606" type="line"/>
      <point x="53" y="606" type="line"/>
      <point x="53" y="0" type="line"/>
      <point x="445" y="0" type="line"/>
      <point x="445" y="101" type="line"/>
      <point x="166" y="101" type="line"/>
      <point x="166" y="260" type="line"/>
      <point x="400" y="260" type="line"/>
      <point x="400" y="361" type="line"/>
      <point x="166" y="361" type="line"/>
      <point x="166" y="506" type="line"/>
    </contour>
  </outline>
</glyph>
<glyph name="Edieresis" format="1">
  <advance width="484"/>
  <unicode hex="00CB"/>
  <outline>
    <contour>
      <point x="209" y="684" type="line"/>
      <point x="209" y="781" type="line"/>
      <point x="120" y="781" type="line"/>
      <point x="120" y="684" type="line"/>
    </contour>
    <contour>
      <point x="363" y="684" type="line"/>
      <point x="363" y="781" type="line"/>
      <point x="275" y="781" type="line"/>
      <point x="275" y="684" type="line"/>
    </contour>
    <contour>
      <point x="439" y="506" type="line"/>
      <point x="439" y="606" type="line"/>
      <point x="53" y="606" type="line"/>
      <point x="53" y="0" type="line"/>
      <point x="445" y="0" type="line"/>
      <point x="445" y="101" type="line"/>
      <point x="166" y="101" type="line"/>
      <point x="166" y="260" type="line"/>
      <point x="400" y="260" type="line"/>
      <point x="400" y="361" type="line"/>
      <point x="166" y="361" type="line"/>
      <point x="166" y="506" type="line"/>
    </contour>
  </outline>
</glyph>
<glyph name="Igrave" format="1">
  <advance width="202"/>
  <unicode hex="00CC"/>
  <outline>
    <contour>
      <point x="74" y="664" type="line"/>
      <point x="162" y="664" type="line"/>
      <point x="86" y="781" type="line"/>
      <point x="-20" y="781" type="line"/>
      <point x="-21" y="778" type="line"/>
    </contour>
    <contour>
      <point x="44" y="0" type="line"/>
      <point x="157" y="0" type="line"/>
      <point x="157" y="606" type="line"/>
      <point x="44" y="606" type="line"/>
    </contour>
  </outline>
</glyph>
<glyph name="Igrave" format="1">
  <advance width="202"/>
  <unicode hex="00CC"/>
  <outline>
    <contour>
      <point x="162" y="664" type="line"/>
      <point x="86" y="781" type="line"/>
      <point x="-20" y="781" type="line"/>
      <point x="-21" y="778" type="line"/>
      <point x="74" y="664" type="line"/>
    </contour>
    <contour>
      <point x="157" y="0" type="line"/>
      <point x="157" y="606" type="line"/>
      <point x="44" y="606" type="line"/>
      <point x="44" y="0" type="line"/>
    </contour>
  </outline>
</glyph>
<glyph name="Icircumflex" format="1">
  <advance width="202"/>
  <unicode hex="00CE"/>
  <outline>
    <contour>
      <point x="141" y="661" type="line"/>
      <point x="220" y="661" type="line"/>
      <point x="145" y="781" type="line"/>
      <point x="58" y="781" type="line"/>
      <point x="-19" y="661" type="line"/>
      <point x="62" y="661" type="line"/>
      <point x="102" y="722" type="line"/>
    </contour>
    <contour>
      <point x="44" y="0" type="line"/>
      <point x="157" y="0" type="line"/>
      <point x="157" y="606" type="line"/>
      <point x="44" y="606" type="line"/>
    </contour>
  </outline>
</glyph>
<glyph name="Ntilde" format="1">
  <advance width="523"/>
  <unicode hex="00D1"/>
  <outline>
    <contour>
      <point x="370" y="0" type="line"/>
      <point x="470" y="0" type="line"/>
      <point x="470" y="606" type="line"/>
      <point x="370" y="606" type="line"/>
      <point x="370" y="218" type="line"/>
      <point x="368" y="216" type="line"/>
      <point x="368" y="216"/>
      <point x="350" y="257"/>
      <point x="340" y="272" type="curve"/>
      <point x="153" y="606" type="line"/>
      <point x="53" y="606" type="line"/>
      <point x="53" y="0" type="line"/>
      <point x="153" y="0" type="line"/>
      <point x="153" y="338" type="line" smooth="yes"/>
      <point x="153" y="354"/>
      <point x="151" y="388"/>
      <point x="151" y="388" type="curve"/>
      <point x="155" y="391" type="line"/>
      <point x="155" y="391"/>
      <point x="175" y="347"/>
      <point x="182" y="334" type="curve" smooth="yes"/>
    </contour>
    <contour>
      <point x="352" y="781" type="line"/>
      <point x="348" y="756"/>
      <point x="336" y="748"/>
      <point x="317" y="748" type="curve" smooth="yes"/>
      <point x="278" y="748"/>
      <point x="243" y="781"/>
      <point x="200" y="781" type="curve" smooth="yes"/>
      <point x="138" y="781"/>
      <point x="113" y="721"/>
      <point x="113" y="673" type="curve"/>
      <point x="171" y="673" type="line"/>
      <point x="175" y="697"/>
      <point x="187" y="705"/>
      <point x="206" y="705" type="curve" smooth="yes"/>
      <point x="246" y="705"/>
      <point x="280" y="673"/>
      <point x="323" y="673" type="curve" smooth="yes"/>
      <point x="385" y="673"/>
      <point x="410" y="732"/>
      <point x="410" y="781" type="curve"/>
    </contour>
  </outline>
</glyph>
<glyph name="Udieresis" format="1">
  <advance width="523"/>
  <unicode hex="00DC"/>
  <outline>
    <contour>
      <point x="229" y="684" type="line"/>
      <point x="229" y="781" type="line"/>
      <point x="141" y="781" type="line"/>
      <point x="141" y="684" type="line"/>
    </contour>
    <contour>
      <point x="384" y="684" type="line"/>
      <point x="384" y="781" type="line"/>
      <point x="294" y="781" type="line"/>
      <point x="294" y="684" type="line"/>
    </contour>
    <contour>
      <point x="470" y="606" type="line"/>
      <point x="357" y="606" type="line"/>
      <point x="357" y="194" type="line" smooth="yes"/>
      <point x="357" y="124"/>
      <point x="322" y="87"/>
      <point x="262" y="87" type="curve" smooth="yes"/>
      <point x="202" y="87"/>
      <point x="167" y="124"/>
      <point x="167" y="194" type="curve" smooth="yes"/>
      <point x="167" y="606" type="line"/>
      <point x="54" y="606" type="line"/>
      <point x="54" y="190" type="line" smooth="yes"/>
      <point x="54" y="58"/>
      <point x="132" y="-11"/>
      <point x="262" y="-11" type="curve" smooth="yes"/>
      <point x="392" y="-11"/>
      <point x="470" y="58"/>
      <point x="470" y="190" type="curve" smooth="yes"/>
    </contour>
  </outline>
</glyph>
<glyph name="Yacute" format="1">
  <advance width="484"/>
  <unicode hex="00DD"/>
  <outline>
    <contour>
      <point x="364" y="778" type="line"/>
      <point x="363" y="781" type="line"/>
      <point x="257" y="781" type="line"/>
      <point x="181" y="664" type="line"/>
      <point x="269" y="664" type="line"/>
    </contour>
    <contour>
      <point x="299" y="229" type="line"/>
      <point x="484" y="606" type="line"/>
      <point x="370" y="606" type="line"/>
      <point x="247" y="340" type="line"/>
      <point x="243" y="340" type="line"/>
      <point x="119" y="606" type="line"/>
      <point x="0" y="606" type="line"/>
      <point x="186" y="229" type="line"/>
      <point x="186" y="0" type="line"/>
      <point x="299" y="0" type="line"/>
    </contour>
  </outline>
</glyph>
<glyph name="germandbls" format="1">
  <advance width="443"/>
  <unicode hex="00DF"/>
  <outline>
    <contour>
      <point x="35" y="0" type="line"/>
      <point x="141" y="0" type="line"/>
      <point x="141" y="467" type="line" smooth="yes"/>
      <point x="141" y="527"/>
      <point x="173" y="560"/>
      <point x="220" y="560" type="curve" smooth="yes"/>
      <point x="268" y="560"/>
      <point x="293" y="528"/>
      <point x="293" y="482" type="curve" smooth="yes"/>
      <point x="293" y="430"/>
      <point x="263" y="386"/>
      <point x="227" y="386" type="curve" smooth="yes"/>
      <point x="184" y="386" type="line"/>
      <point x="184" y="286" type="line"/>
      <point x="230" y="286" type="line" smooth="yes"/>
      <point x="275" y="286"/>
      <point x="311" y="243"/>
      <point x="311" y="190" type="curve" smooth="yes"/>
      <point x="311" y="136"/>
      <point x="275" y="90"/>
      <point x="230" y="90" type="curve" smooth="yes"/>
      <point x="184" y="90" type="line"/>
      <point x="184" y="0" type="line"/>
      <point x="241" y="0" type="line" smooth="yes"/>
      <point x="340" y="0"/>
      <point x="418" y="75"/>
      <point x="418" y="189" type="curve" smooth="yes"/>
      <point x="418" y="257"/>
      <point x="376" y="324"/>
      <point x="316" y="346" type="curve"/>
      <point x="316" y="349" type="line"/>
      <point x="365" y="369"/>
      <point x="400" y="426"/>
      <point x="400" y="484" type="curve" smooth="yes"/>
      <point x="400" y="588"/>
      <point x="325" y="650"/>
      <point x="225" y="650" type="curve" smooth="yes"/>
      <point x="118" y="650"/>
      <point x="35" y="595"/>
      <point x="35" y="460" type="curve" smooth="yes"/>
    </contour>
  </outline>
</glyph>
<glyph name="eacute" format="1">
  <advance width="403"/>
  <unicode hex="00E9"/>
  <outline>
    <contour>
      <point x="324" y="636" type="line"/>
      <point x="323" y="639" type="line"/>
      <point x="217" y="639" type="line"/>
      <point x="141" y="522" type="line"/>
      <point x="228" y="522" type="line"/>
    </contour>
    <contour>
      <point x="269" y="164" type="line"/>
      <point x="269" y="109"/>
      <point x="246" y="76"/>
      <point x="210" y="76" type="curve" smooth="yes"/>
      <point x="157" y="76"/>
      <point x="139" y="123"/>
      <point x="138" y="206" type="curve"/>
      <point x="374" y="206" type="line"/>
      <point x="374" y="232" type="line" smooth="yes"/>
      <point x="374" y="400"/>
      <point x="318" y="476"/>
      <point x="206" y="476" type="curve" smooth="yes"/>
      <point x="91" y="476"/>
      <point x="27" y="400"/>
      <point x="27" y="232" type="curve" smooth="yes"/>
      <point x="27" y="65"/>
      <point x="90" y="-11"/>
      <point x="210" y="-11" type="curve" smooth="yes"/>
      <point x="304" y="-11"/>
      <point x="374" y="45"/>
      <point x="374" y="164" type="curve"/>
    </contour>
    <contour>
      <point x="139" y="283" type="line"/>
      <point x="142" y="350"/>
      <point x="161" y="389"/>
      <point x="206" y="389" type="curve" smooth="yes"/>
      <point x="245" y="389"/>
      <point x="263" y="350"/>
      <point x="263" y="283" type="curve"/>
    </contour>
  </outline>
</glyph>
<glyph name="icircumflex" format="1">
  <advance width="202"/>
  <unicode hex="00EE"/>
  <outline>
    <contour>
      <point x="141" y="520" type="line"/>
      <point x="220" y="520" type="line"/>
      <point x="145" y="639" type="line"/>
      <point x="58" y="639" type="line"/>
      <point x="-19" y="520" type="line"/>
      <point x="62" y="520" type="line"/>
      <point x="102" y="581" type="line"/>
    </contour>
    <contour>
      <point x="48" y="0" type="line"/>
      <point x="154" y="0" type="line"/>
      <point x="154" y="465" type="line"/>
      <point x="48" y="465" type="line"/>
    </contour>
  </outline>
</glyph>
<glyph name="idieresis" format="1">
  <advance width="202"/>
  <unicode hex="00EF"/>
  <outline>
    <contour>
      <point x="68" y="543" type="line"/>
      <point x="68" y="639" type="line"/>
      <point x="-20" y="639" type="line"/>
      <point x="-20" y="543" type="line"/>
    </contour>
    <contour>
      <point x="223" y="543" type="line"/>
      <point x="223" y="639" type="line"/>
      <point x="134" y="639" type="line"/>
      <point x="134" y="543" type="line"/>
    </contour>
    <contour>
      <point x="154" y="0" type="line"/>
      <point x="154" y="465" type="line"/>
      <point x="48" y="465" type="line"/>
      <point x="48" y="0" type="line"/>
    </contour>
  </outline>
</glyph>
<glyph name="ntilde" format="1">
  <advance width="443"/>
  <unicode hex="00F1"/>
  <outline>
    <contour>
      <point x="312" y="639" type="line"/>
      <point x="309" y="614"/>
      <point x="296" y="606"/>
      <point x="278" y="606" type="curve" smooth="yes"/>
      <point x="238" y="606"/>
      <point x="203" y="639"/>
      <point x="160" y="639" type="curve" smooth="yes"/>
      <point x="98" y="639"/>
      <point x="73" y="580"/>
      <point x="73" y="531" type="curve"/>
      <point x="132" y="531" type="line"/>
      <point x="135" y="555"/>
      <point x="148" y="564"/>
      <point x="166" y="564" type="curve" smooth="yes"/>
      <point x="206" y="564"/>
      <point x="240" y="531"/>
      <point x="283" y="531" type="curve" smooth="yes"/>
      <point x="346" y="531"/>
      <point x="370" y="591"/>
      <point x="370" y="639" type="curve"/>
    </contour>
    <contour>
      <point x="148" y="408" type="line"/>
      <point x="137" y="465" type="line"/>
      <point x="49" y="465" type="line"/>
      <point x="49" y="0" type="line"/>
      <point x="155" y="0" type="line"/>
      <point x="155" y="286" type="line" smooth="yes"/>
      <point x="155" y="339"/>
      <point x="186" y="379"/>
      <point x="227" y="379" type="curve" smooth="yes"/>
      <point x="265" y="379"/>
      <point x="288" y="357"/>
      <point x="288" y="297" type="curve" smooth="yes"/>
      <point x="288" y="0" type="line"/>
      <point x="394" y="0" type="line"/>
      <point x="394" y="326" type="line" smooth="yes"/>
      <point x="394" y="436"/>
      <point x="342" y="476"/>
      <point x="271" y="476" type="curve" smooth="yes"/>
      <point x="215" y="476"/>
      <point x="177" y="444"/>
      <point x="153" y="408" type="curve"/>
    </contour>
  </outline>
</glyph>
<glyph name="divide" format="1">
  <advance width="485"/>
  <unicode hex="00F7"/>
  <outline>
    <contour>
      <point x="196" y="415" type="line"/>
      <point x="196" y="317" type="line"/>
      <point x="288" y="317" type="line"/>
      <point x="288" y="415" type="line"/>
    </contour>
    <contour>
      <point x="29" y="271" type="line"/>
      <point x="29" y="179" type="line"/>
      <point x="455" y="179" type="line"/>
      <point x="455" y="271" type="line"/>
    </contour>
    <contour>
      <point x="196" y="133" type="line"/>
      <point x="196" y="36" type="line"/>
      <point x="288" y="36" type="line"/>
      <point x="288" y="133" type="line"/>
    </contour>
  </outline>
</glyph>
<glyph name="thorn" format="1">
  <advance width="443"/>
  <unicode hex="00FE"/>
  <outline>
    <contour>
      <point x="155" y="639" type="line"/>
      <point x="49" y="639" type="line"/>
      <point x="49" y="-153" type="line"/>
      <point x="155" y="-153" type="line"/>
      <point x="155" y="48" type="line"/>
      <point x="159" y="48" type="line"/>
      <point x="176" y="11"/>
      <point x="216" y="-11"/>
      <point x="263" y="-11" type="curve" smooth="yes"/>
      <point x="345" y="-11"/>
      <point x="407" y="63"/>
      <point x="407" y="232" type="curve" smooth="yes"/>
      <point x="407" y="400"/>
      <point x="349" y="476"/>
      <point x="257" y="476" type="curve" smooth="yes"/>
      <point x="215" y="476"/>
      <point x="178" y="455"/>
      <point x="155" y="413" type="curve"/>
    </contour>
    <contour>
      <point x="296" y="216" type="line" smooth="yes"/>
      <point x="296" y="132"/>
      <point x="277" y="86"/>
      <point x="225" y="86" type="curve" smooth="yes"/>
      <point x="174" y="86"/>
      <point x="155" y="133"/>
      <point x="155" y="217" type="curve" smooth="yes"/>
      <point x="155" y="249" type="line" smooth="yes"/>
      <point x="155" y="333"/>
      <point x="174" y="379"/>
      <point x="225" y="379" type="curve" smooth="yes"/>
      <point x="277" y="379"/>
      <point x="296" y="333"/>
      <point x="296" y="249" type="curve" smooth="yes"/>
    </contour>
  </outline>
</glyph>
<glyph name="Aogonek" format="1">
  <advance width="523"/>
  <unicode hex="0104"/>
  <outline>
    <contour>
      <point x="555" y="-107" type="line"/>
      <point x="536" y="-107" type="line" smooth="yes"/>
      <point x="507" y="-107"/>
      <point x="496" y="-85"/>
      <point x="496" y="-62" type="curve" smooth="yes"/>
      <point x="496" y="-34"/>
      <point x="512" y="-10"/>
      <point x="522" y="0" type="curve"/>
      <point x="327" y="606" type="line"/>
      <point x="195" y="606" type="line"/>
      <point x="0" y="0" type="line"/>
      <point x="110" y="0" type="line"/>
      <point x="146" y="119" type="line"/>
      <point x="370" y="119" type="line"/>
      <point x="407" y="0" type="line"/>
      <point x="449" y="0" type="line"/>
      <point x="430" y="-24"/>
      <point x="409" y="-44"/>
      <point x="409" y="-88" type="curve" smooth="yes"/>
      <point x="409" y="-149"/>
      <point x="456" y="-168"/>
      <point x="497" y="-168" type="curve" smooth="yes"/>
      <point x="516" y="-168"/>
      <point x="535" y="-164"/>
      <point x="555" y="-156" type="curve"/>
    </contour>
    <contour>
      <point x="339" y="220" type="line"/>
      <point x="177" y="220" type="line"/>
      <point x="239" y="423" type="line" smooth="yes"/>
      <point x="248" y="451"/>
      <point x="256" y="505"/>
      <point x="256" y="505" type="curve"/>
      <point x="260" y="505" type="line"/>
      <point x="260" y="505"/>
      <point x="268" y="454"/>
      <point x="278" y="423" type="curve" smooth="yes"/>
    </contour>
  </outline>
</glyph>
<glyph name="Cdotaccent" format="1">
  <advance width="523"/>
  <unicode hex="010A"/>
  <outline>
    <contour>
      <point x="224" y="781" type="line"/>
      <point x="224" y="679" type="line"/>
      <point x="318" y="679" type="line"/>
      <point x="318" y="781" type="line"/>
    </contour>
    <contour>
      <point x="384" y="225" type="line"/>
      <point x="384" y="131"/>
      <point x="340" y="87"/>
      <point x="275" y="87" type="curve" smooth="yes"/>
      <point x="188" y="87"/>
      <point x="147" y="160"/>
      <point x="147" y="281" type="curve" smooth="yes"/>
      <point x="147" y="325" type="line" smooth="yes"/>
      <point x="147" y="446"/>
      <point x="187" y="520"/>
      <point x="271" y="520" type="curve" smooth="yes"/>
      <point x="335" y="520"/>
      <point x="378" y="475"/>
      <point x="378" y="381" type="curve"/>
      <point x="494" y="381" type="line"/>
      <point x="494" y="545"/>
      <point x="398" y="617"/>
      <point x="271" y="617" type="curve" smooth="yes"/>
      <point x="119" y="617"/>
      <point x="30" y="517"/>
      <point x="30" y="303" type="curve" smooth="yes"/>
      <point x="30" y="89"/>
      <point x="119" y="-11"/>
      <point x="271" y="-11" type="curve" smooth="yes"/>
      <point x="400" y="-11"/>
      <point x="494" y="65"/>
      <point x="494" y="225" type="curve"/>
    </contour>
  </outline>
</glyph>
<glyph name="Ebreve" format="1">
  <advance width="484"/>
  <unicode hex="0114"/>
  <outline>
    <contour>
      <point x="294" y="781" type="line"/>
      <point x="293" y="768"/>
      <point x="271" y="751"/>
      <point x="241" y="751" type="curve" smooth="yes"/>
      <point x="212" y="751"/>
      <point x="192" y="768"/>
      <point x="189" y="781" type="curve"/>
      <point x="124" y="781" type="line"/>
      <point x="124" y="736"/>
      <point x="169" y="686"/>
      <point x="241" y="686" type="curve" smooth="yes"/>
      <point x="315" y="686"/>
      <point x="360" y="736"/>
      <point x="360" y="781" type="curve"/>
    </contour>
    <contour>
      <point x="439" y="606" type="line"/>
      <point x="53" y="606" type="line"/>
      <point x="53" y="0" type="line"/>
      <point x="445" y="0" type="line"/>
      <point x="445" y="101" type="line"/>
      <point x="166" y="101" type="line"/>
      <point x="166" y="260" type="line"/>
      <point x="400" y="260" type="line"/>
      <point x="400" y="361" type="line"/>
      <point x="166" y="361" type="line"/>
      <point x="166" y="506" type="line"/>
      <point x="439" y="506" type="line"/>
    </contour>
  </outline>
</glyph>
<glyph name="eogonek" format="1">
  <advance width="403"/>
  <unicode hex="0119"/>
  <outline>
    <contour>
      <point x="374" y="206" type="line"/>
      <point x="374" y="232" type="line" smooth="yes"/>
      <point x="374" y="400"/>
      <point x="318" y="476"/>
      <point x="206" y="476" type="curve" smooth="yes"/>
      <point x="91" y="476"/>
      <point x="27" y="400"/>
      <point x="27" y="232" type="curve" smooth="yes"/>
      <point x="27" y="71"/>
      <point x="86" y="-6"/>
      <point x="198" y="-11" type="curve"/>
      <point x="184" y="-29"/>
      <point x="173" y="-51"/>
      <point x="173" y="-84" type="curve" smooth="yes"/>
      <point x="173" y="-145"/>
      <point x="221" y="-164"/>
      <point x="261" y="-164" type="curve" smooth="yes"/>
      <point x="280" y="-164"/>
      <point x="299" y="-159"/>
      <point x="319" y="-151" type="curve"/>
      <point x="319" y="-103" type="line"/>
      <point x="300" y="-103" type="line" smooth="yes"/>
      <point x="271" y="-103"/>
      <point x="260" y="-80"/>
      <point x="260" y="-57" type="curve" smooth="yes"/>
      <point x="260" y="-33"/>
      <point x="276" y="-8"/>
      <point x="286" y="4" type="curve"/>
      <point x="339" y="28"/>
      <point x="374" y="80"/>
      <point x="374" y="164" type="curve"/>
      <point x="269" y="164" type="line"/>
      <point x="269" y="109"/>
      <point x="246" y="76"/>
      <point x="210" y="76" type="curve" smooth="yes"/>
      <point x="157" y="76"/>
      <point x="139" y="123"/>
      <point x="138" y="206" type="curve"/>
    </contour>
    <contour>
      <point x="139" y="283" type="line"/>
      <point x="142" y="350"/>
      <point x="161" y="389"/>
      <point x="206" y="389" type="curve" smooth="yes"/>
      <point x="245" y="389"/>
      <point x="263" y="350"/>
      <point x="263" y="283" type="curve"/>
    </contour>
  </outline>
</glyph>
<glyph name="Hbar" format="1">
  <advance width="523"/>
  <unicode hex="0126"/>
  <outline>
    <contour>
      <point x="470" y="0" type="line"/>
      <point x="470" y="433" type="line"/>
      <point x="514" y="433" type="line"/>
      <point x="514" y="510" type="line"/>
      <point x="470" y="510" type="line"/>
      <point x="470" y="606" type="line"/>
      <point x="357" y="606" type="line"/>
      <point x="357" y="510" type="line"/>
      <point x="166" y="510" type="line"/>
      <point x="166" y="606" type="line"/>
      <point x="53" y="606" type="line"/>
      <point x="53" y="510" type="line"/>
      <point x="9" y="510" type="line"/>
      <point x="9" y="433" type="line"/>
      <point x="53" y="433" type="line"/>
      <point x="53" y="0" type="line"/>
      <point x="166" y="0" type="line"/>
      <point x="166" y="254" type="line"/>
      <point x="357" y="254" type="line"/>
      <point x="357" y="0" type="line"/>
    </contour>
    <contour>
      <point x="166" y="433" type="line"/>
      <point x="357" y="433" type="line"/>
      <point x="357" y="354" type="line"/>
      <point x="166" y="354" type="line"/>
    </contour>
  </outline>
</glyph>
<glyph name="hbar" format="1">
  <advance width="443"/>
  <unicode hex="0127"/>
  <outline>
    <contour>
      <point x="271" y="592" type="line"/>
      <point x="155" y="592" type="line"/>
      <point x="155" y="639" type="line"/>
      <point x="49" y="639" type="line"/>
      <point x="49" y="592" type="line"/>
      <point x="0" y="592" type="line"/>
      <point x="0" y="515" type="line"/>
      <point x="49" y="515" type="line"/>
      <point x="49" y="0" type="line"/>
      <point x="155" y="0" type="line"/>
      <point x="155" y="286" type="line" smooth="yes"/>
      <point x="155" y="339"/>
      <point x="186" y="379"/>
      <point x="227" y="379" type="curve" smooth="yes"/>
      <point x="265" y="379"/>
      <point x="288" y="357"/>
      <point x="288" y="297" type="curve" smooth="yes"/>
      <point x="288" y="0" type="line"/>
      <point x="394" y="0" type="line"/>
      <point x="394" y="326" type="line" smooth="yes"/>
      <point x="394" y="436"/>
      <point x="342" y="476"/>
      <point x="271" y="476" type="curve" smooth="yes"/>
      <point x="216" y="476"/>
      <point x="179" y="445"/>
      <point x="158" y="415" type="curve"/>
      <point x="155" y="415" type="line"/>
      <point x="155" y="515" type="line"/>
      <point x="271" y="515" type="line"/>
    </contour>
  </outline>
</glyph>
<glyph name="Itilde" format="1">
  <advance width="202"/>
  <unicode hex="0128"/>
  <outline>
    <contour>
      <point x="191" y="781" type="line"/>
      <point x="187" y="756"/>
      <point x="176" y="748"/>
      <point x="157" y="748" type="curve" smooth="yes"/>
      <point x="117" y="748"/>
      <point x="83" y="781"/>
      <point x="39" y="781" type="curve" smooth="yes"/>
      <point x="-23" y="781"/>
      <point x="-48" y="721"/>
      <point x="-48" y="673" type="curve"/>
      <point x="11" y="673" type="line"/>
      <point x="15" y="697"/>
      <point x="27" y="705"/>
      <point x="46" y="705" type="curve" smooth="yes"/>
      <point x="86" y="705"/>
      <point x="120" y="673"/>
      <point x="163" y="673" type="curve" smooth="yes"/>
      <point x="225" y="673"/>
      <point x="250" y="732"/>
      <point x="250" y="781" type="curve"/>
    </contour>
    <contour>
      <point x="44" y="606" type="line"/>
      <point x="44" y="0" type="line"/>
      <point x="157" y="0" type="line"/>
      <point x="157" y="606" type="line"/>
    </contour>
  </outline>
</glyph>
<glyph name="imacron" format="1">
  <advance width="202"/>
  <unicode hex="012B"/>
  <outline>
    <contour>
      <point x="-12" y="530" type="line"/>
      <point x="214" y="530" type="line"/>
      <point x="214" y="606" type="line"/>
      <point x="-12" y="606" type="line"/>
    </contour>
    <contour>
      <point x="48" y="0" type="line"/>
      <point x="154" y="0" type="line"/>
      <point x="154" y="465" type="line"/>
      <point x="48" y="465" type="line"/>
    </contour>
  </outline>
</glyph>
<glyph name="Ibreve" format="1">
  <advance width="202"/>
  <unicode hex="012C"/>
  <outline>
    <contour>
      <point x="154" y="781" type="line"/>
      <point x="152" y="768"/>
      <point x="131" y="751"/>
      <point x="101" y="751" type="curve" smooth="yes"/>
      <point x="72" y="751"/>
      <point x="51" y="768"/>
      <point x="49" y="781" type="curve"/>
      <point x="-18" y="781" type="line"/>
      <point x="-18" y="736"/>
      <point x="28" y="686"/>
      <point x="101" y="686" type="curve" smooth="yes"/>
      <point x="174" y="686"/>
      <point x="219" y="736"/>
      <point x="219" y="781" type="curve"/>
    </contour>
    <contour>
      <point x="44" y="606" type="line"/>
      <point x="44" y="0" type="line"/>
      <point x="157" y="0" type="line"/>
      <point x="157" y="606" type="line"/>
    </contour>
  </outline>
</glyph>
<glyph name="dotlessi" format="1">
  <advance width="202"/>
  <unicode hex="0131"/>
  <outline>
    <contour>
      <point x="48" y="0" type="line"/>
      <point x="154" y="0" type="line"/>
      <point x="154" y="465" type="line"/>
      <point x="48" y="465" type="line"/>
    </contour>
    <contour>
      <point x="181" y="9" type="move" name="ogonek"/>
    </contour>
    <contour>
      <point x="101" y="465" type="move" name="top"/>
    </contour>
  </outline>
</glyph>
<glyph name="ij" format="1">
  <advance width="403"/>
  <unicode hex="0133"/>
  <outline>
    <contour>
      <point x="48" y="543" type="line"/>
      <point x="154" y="543" type="line"/>
      <point x="154" y="639" type="line"/>
      <point x="48" y="639" type="line"/>
    </contour>
    <contour>
      <point x="249" y="543" type="line"/>
      <point x="355" y="543" type="line"/>
      <point x="355" y="639" type="line"/>
      <point x="249" y="639" type="line"/>
    </contour>
    <contour>
      <point x="48" y="0" type="line"/>
      <point x="154" y="0" type="line"/>
      <point x="154" y="465" type="line"/>
      <point x="48" y="465" type="line"/>
    </contour>
    <contour>
      <point x="355" y="465" type="line"/>
      <point x="249" y="465" type="line"/>
      <point x="249" y="-29" type="line" smooth="yes"/>
      <point x="249" y="-57"/>
      <point x="235" y="-72"/>
      <point x="208" y="-72" type="curve" smooth="yes"/>
      <point x="169" y="-72" type="line"/>
      <point x="169" y="-150" type="line"/>
      <point x="187" y="-156"/>
      <point x="221" y="-161"/>
      <point x="248" y="-161" type="curve" smooth="yes"/>
      <point x="332" y="-161"/>
      <point x="355" y="-98"/>
      <point x="355" y="-36" type="curve" smooth="yes"/>
    </contour>
  </outline>
</glyph>
<glyph name="jcircumflex" format="1">
  <advance width="202"/>
  <unicode hex="0135"/>
  <outline>
    <contour>
      <point x="142" y="520" type="line"/>
      <point x="221" y="520" type="line"/>
      <point x="147" y="639" type="line"/>
      <point x="59" y="639" type="line"/>
      <point x="-17" y="520" type="line"/>
      <point x="63" y="520" type="line"/>
      <point x="103" y="581" type="line"/>
    </contour>
    <contour>
      <point x="154" y="465" type="line"/>
      <point x="48" y="465" type="line"/>
      <point x="48" y="-29" type="line" smooth="yes"/>
      <point x="48" y="-57"/>
      <point x="34" y="-72"/>
      <point x="6" y="-72" type="curve" smooth="yes"/>
      <point x="-33" y="-72" type="line"/>
      <point x="-33" y="-150" type="line"/>
      <point x="-14" y="-156"/>
      <point x="19" y="-161"/>
      <point x="46" y="-161" type="curve" smooth="yes"/>
      <point x="131" y="-161"/>
      <point x="154" y="-98"/>
      <point x="154" y="-36" type="curve" smooth="yes"/>
    </contour>
  </outline>
</glyph>
<glyph name="Kcommaaccent" format="1">
  <advance width="523"/>
  <unicode hex="0136"/>
  <outline>
    <contour>
      <point x="389" y="606" type="line"/>
      <point x="167" y="296" type="line"/>
      <point x="167" y="606" type="line"/>
      <point x="53" y="606" type="line"/>
      <point x="53" y="0" type="line"/>
      <point x="167" y="0" type="line"/>
      <point x="167" y="155" type="line"/>
      <point x="262" y="271" type="line"/>
      <point x="393" y="0" type="line"/>
      <point x="521" y="0" type="line"/>
      <point x="336" y="360" type="line"/>
      <point x="515" y="606" type="line"/>
    </contour>
    <contour>
      <point x="276" y="-232" type="line"/>
      <point x="316" y="-148" type="line"/>
      <point x="316" y="-49" type="line"/>
      <point x="207" y="-49" type="line"/>
      <point x="207" y="-157" type="line"/>
      <point x="250" y="-157" type="line"/>
      <point x="219" y="-232" type="line"/>
    </contour>
  </outline>
</glyph>
<glyph name="ldot" format="1">
  <advance width="295"/>
  <unicode hex="0140"/>
  <outline>
    <contour>
      <point x="48" y="639" type="line"/>
      <point x="48" y="0" type="line"/>
      <point x="154" y="0" type="line"/>
      <point x="154" y="639" type="line"/>
    </contour>
    <contour>
      <point x="188" y="362" type="line"/>
      <point x="188" y="246" type="line"/>
      <point x="295" y="246" type="line"/>
      <point x="295" y="362" type="line"/>
    </contour>
  </outline>
</glyph>
<glyph name="Lslash" format="1">
  <advance width="501"/>
  <unicode hex="0141"/>
  <outline>
    <contour>
      <point x="60" y="686" type="line"/>
      <point x="60" y="332" type="line"/>
      <point x="0" y="279" type="line"/>
      <point x="0" y="184" type="line"/>
      <point x="60" y="237" type="line"/>
      <point x="60" y="0" type="line"/>
      <point x="478" y="0" type="line"/>
      <point x="478" y="120" type="line"/>
      <point x="188" y="120" type="line"/>
      <point x="188" y="350" type="line"/>
      <point x="304" y="453" type="line"/>
      <point x="304" y="550" type="line"/>
      <point x="188" y="446" type="line"/>
      <point x="188" y="686" type="line"/>
    </contour>
  </outline>
</glyph>
<glyph name="Ncommaaccent" format="1">
  <advance width="523"/>
  <unicode hex="0145"/>
  <outline>
    <contour>
      <point x="370" y="606" type="line"/>
      <point x="370" y="269" type="line"/>
      <point x="370" y="218" type="line"/>
      <point x="368" y="216" type="line"/>
      <point x="368" y="216"/>
      <point x="350" y="257"/>
      <point x="340" y="272" type="curve"/>
      <point x="153" y="606" type="line"/>
      <point x="53" y="606" type="line"/>
      <point x="53" y="0" type="line"/>
      <point x="153" y="0" type="line"/>
      <point x="153" y="338" type="line" smooth="yes"/>
      <point x="153" y="354"/>
      <point x="151" y="388"/>
      <point x="151" y="388" type="curve"/>
      <point x="155" y="391" type="line"/>
      <point x="155" y="391"/>
      <point x="175" y="347"/>
      <point x="182" y="334" type="curve" smooth="yes"/>
      <point x="370" y="0" type="line"/>
      <point x="470" y="0" type="line"/>
      <point x="470" y="606" type="line"/>
    </contour>
    <contour>
      <point x="207" y="-49" type="line"/>
      <point x="207" y="-157" type="line"/>
      <point x="250" y="-157" type="line"/>
      <point x="219" y="-232" type="line"/>
      <point x="276" y="-232" type="line"/>
      <point x="316" y="-148" type="line"/>
      <point x="316" y="-49" type="line"/>
    </contour>
  </outline>
</glyph>
<glyph name="ncaron" format="1">
  <advance width="443"/>
  <unicode hex="0148"/>
  <outline>
    <contour>
      <point x="103" y="639" type="line"/>
      <point x="179" y="520" type="line"/>
      <point x="265" y="520" type="line"/>
      <point x="340" y="639" type="line"/>
      <point x="261" y="639" type="line"/>
      <point x="222" y="578" type="line"/>
      <point x="182" y="639" type="line"/>
    </contour>
    <contour>
      <point x="148" y="408" type="line"/>
      <point x="137" y="465" type="line"/>
      <point x="49" y="465" type="line"/>
      <point x="49" y="0" type="line"/>
      <point x="155" y="0" type="line"/>
      <point x="155" y="286" type="line" smooth="yes"/>
      <point x="155" y="339"/>
      <point x="186" y="379"/>
      <point x="227" y="379" type="curve" smooth="yes"/>
      <point x="265" y="379"/>
      <point x="288" y="357"/>
      <point x="288" y="297" type="curve" smooth="yes"/>
      <point x="288" y="0" type="line"/>
      <point x="394" y="0" type="line"/>
      <point x="394" y="326" type="line" smooth="yes"/>
      <point x="394" y="436"/>
      <point x="342" y="476"/>
      <point x="271" y="476" type="curve" smooth="yes"/>
      <point x="215" y="476"/>
      <point x="177" y="444"/>
      <point x="153" y="408" type="curve"/>
    </contour>
  </outline>
</glyph>
<glyph name="napostrophe" format="1">
  <advance width="598"/>
  <unicode hex="0149"/>
  <outline>
    <contour>
      <point x="129" y="423" type="line"/>
      <point x="169" y="507" type="line"/>
      <point x="169" y="606" type="line"/>
      <point x="59" y="606" type="line"/>
      <point x="59" y="498" type="line"/>
      <point x="103" y="498" type="line"/>
      <point x="72" y="423" type="line"/>
    </contour>
    <contour>
      <point x="302" y="408" type="line"/>
      <point x="292" y="465" type="line"/>
      <point x="203" y="465" type="line"/>
      <point x="203" y="0" type="line"/>
      <point x="309" y="0" type="line"/>
      <point x="309" y="286" type="line" smooth="yes"/>
      <point x="309" y="339"/>
      <point x="340" y="379"/>
      <point x="382" y="379" type="curve" smooth="yes"/>
      <point x="420" y="379"/>
      <point x="443" y="357"/>
      <point x="443" y="297" type="curve" smooth="yes"/>
      <point x="443" y="0" type="line"/>
      <point x="549" y="0" type="line"/>
      <point x="549" y="326" type="line" smooth="yes"/>
      <point x="549" y="436"/>
      <point x="497" y="476"/>
      <point x="425" y="476" type="curve" smooth="yes"/>
      <point x="370" y="476"/>
      <point x="331" y="444"/>
      <point x="308" y="408" type="curve"/>
    </contour>
  </outline>
</glyph>
<glyph name="eng" format="1">
  <advance width="443"/>
  <unicode hex="014B"/>
  <outline>
    <contour>
      <point x="148" y="408" type="line"/>
      <point x="137" y="465" type="line"/>
      <point x="49" y="465" type="line"/>
      <point x="49" y="0" type="line"/>
      <point x="155" y="0" type="line"/>
      <point x="155" y="286" type="line" smooth="yes"/>
      <point x="155" y="339"/>
      <point x="186" y="379"/>
      <point x="227" y="379" type="curve" smooth="yes"/>
      <point x="265" y="379"/>
      <point x="288" y="357"/>
      <point x="288" y="297" type="curve" smooth="yes"/>
      <point x="288" y="-29" type="line" smooth="yes"/>
      <point x="288" y="-57"/>
      <point x="274" y="-72"/>
      <point x="247" y="-72" type="curve" smooth="yes"/>
      <point x="208" y="-72" type="line"/>
      <point x="208" y="-150" type="line"/>
      <point x="226" y="-156"/>
      <point x="260" y="-161"/>
      <point x="286" y="-161" type="curve" smooth="yes"/>
      <point x="371" y="-161"/>
      <point x="394" y="-98"/>
      <point x="394" y="-36" type="curve" smooth="yes"/>
      <point x="394" y="326" type="line" smooth="yes"/>
      <point x="394" y="436"/>
      <point x="342" y="476"/>
      <point x="271" y="476" type="curve" smooth="yes"/>
      <point x="215" y="476"/>
      <point x="177" y="444"/>
      <point x="153" y="408" type="curve"/>
    </contour>
  </outline>
</glyph>
<glyph name="obreve" format="1">
  <advance width="443"/>
  <unicode hex="014F"/>
  <outline>
    <contour>
      <point x="274" y="639" type="line"/>
      <point x="272" y="627"/>
      <point x="251" y="610"/>
      <point x="221" y="610" type="curve" smooth="yes"/>
      <point x="192" y="610"/>
      <point x="171" y="627"/>
      <point x="169" y="639" type="curve"/>
      <point x="103" y="639" type="line"/>
      <point x="103" y="595"/>
      <point x="149" y="545"/>
      <point x="221" y="545" type="curve" smooth="yes"/>
      <point x="294" y="545"/>
      <point x="339" y="595"/>
      <point x="339" y="639" type="curve"/>
    </contour>
    <contour>
      <point x="222" y="476" type="curve" smooth="yes"/>
      <point x="98" y="476"/>
      <point x="36" y="400"/>
      <point x="36" y="232" type="curve" smooth="yes"/>
      <point x="36" y="65"/>
      <point x="98" y="-11"/>
      <point x="222" y="-11" type="curve" smooth="yes"/>
      <point x="346" y="-11"/>
      <point x="408" y="65"/>
      <point x="408" y="232" type="curve" smooth="yes"/>
      <point x="408" y="400"/>
      <point x="346" y="476"/>
    </contour>
    <contour>
      <point x="297" y="216" type="line" smooth="yes"/>
      <point x="297" y="126"/>
      <point x="277" y="79"/>
      <point x="222" y="79" type="curve" smooth="yes"/>
      <point x="167" y="79"/>
      <point x="147" y="126"/>
      <point x="147" y="216" type="curve" smooth="yes"/>
      <point x="147" y="249" type="line" smooth="yes"/>
      <point x="147" y="339"/>
      <point x="167" y="386"/>
      <point x="222" y="386" type="curve" smooth="yes"/>
      <point x="277" y="386"/>
      <point x="297" y="339"/>
      <point x="297" y="249" type="curve" smooth="yes"/>
    </contour>
  </outline>
</glyph>
<glyph name="Sacute" format="1">
  <advance width="484"/>
  <unicode hex="015A"/>
  <outline>
    <contour>
      <point x="134" y="617"/>
      <point x="39" y="562"/>
      <point x="39" y="447" type="curve" smooth="yes"/>
      <point x="39" y="217"/>
      <point x="333" y="302"/>
      <point x="333" y="158" type="curve" smooth="yes"/>
      <point x="333" y="123"/>
      <point x="309" y="87"/>
      <point x="241" y="87" type="curve" smooth="yes"/>
      <point x="179" y="87"/>
      <point x="144" y="126"/>
      <point x="144" y="183" type="curve"/>
      <point x="145" y="197" type="line"/>
      <point x="27" y="197" type="line"/>
      <point x="27" y="191"/>
      <point x="27" y="184"/>
      <point x="27" y="178" type="curve" smooth="yes"/>
      <point x="27" y="53"/>
      <point x="125" y="-11"/>
      <point x="236" y="-11" type="curve" smooth="yes"/>
      <point x="362" y="-11"/>
      <point x="450" y="43"/>
      <point x="450" y="182" type="curve" smooth="yes"/>
      <point x="450" y="405"/>
      <point x="156" y="332"/>
      <point x="156" y="455" type="curve" smooth="yes"/>
      <point x="156" y="492"/>
      <point x="186" y="520"/>
      <point x="240" y="520" type="curve" smooth="yes"/>
      <point x="292" y="520"/>
      <point x="323" y="487"/>
      <point x="323" y="436" type="curve" smooth="yes"/>
      <point x="323" y="428" type="line"/>
      <point x="438" y="428" type="line"/>
      <point x="438" y="438" type="line" smooth="yes"/>
      <point x="438" y="563"/>
      <point x="349" y="617"/>
      <point x="241" y="617" type="curve" smooth="yes"/>
    </contour>
    <contour>
      <point x="257" y="781" type="line"/>
      <point x="181" y="664" type="line"/>
      <point x="269" y="664" type="line"/>
      <point x="364" y="778" type="line"/>
      <point x="363" y="781" type="line"/>
    </contour>
  </outline>
</glyph>
<glyph name="Scircumflex" format="1">
  <advance width="484"/>
  <unicode hex="015C"/>
  <outline>
    <contour>
      <point x="134" y="617"/>
      <point x="39" y="562"/>
      <point x="39" y="447" type="curve" smooth="yes"/>
      <point x="39" y="217"/>
      <point x="333" y="302"/>
      <point x="333" y="158" type="curve" smooth="yes"/>
      <point x="333" y="123"/>
      <point x="309" y="87"/>
      <point x="241" y="87" type="curve" smooth="yes"/>
      <point x="179" y="87"/>
      <point x="144" y="126"/>
      <point x="144" y="183" type="curve"/>
      <point x="145" y="197" type="line"/>
      <point x="27" y="197" type="line"/>
      <point x="27" y="191"/>
      <point x="27" y="184"/>
      <point x="27" y="178" type="curve" smooth="yes"/>
      <point x="27" y="53"/>
      <point x="125" y="-11"/>
      <point x="236" y="-11" type="curve" smooth="yes"/>
      <point x="362" y="-11"/>
      <point x="450" y="43"/>
      <point x="450" y="182" type="curve" smooth="yes"/>
      <point x="450" y="405"/>
      <point x="156" y="332"/>
      <point x="156" y="455" type="curve" smooth="yes"/>
      <point x="156" y="492"/>
      <point x="186" y="520"/>
      <point x="240" y="520" type="curve" smooth="yes"/>
      <point x="292" y="520"/>
      <point x="323" y="487"/>
      <point x="323" y="436" type="curve" smooth="yes"/>
      <point x="323" y="428" type="line"/>
      <point x="438" y="428" type="line"/>
      <point x="438" y="438" type="line" smooth="yes"/>
      <point x="438" y="563"/>
      <point x="349" y="617"/>
      <point x="241" y="617" type="curve" smooth="yes"/>
    </contour>
    <contour>
      <point x="199" y="781" type="line"/>
      <point x="123" y="661" type="line"/>
      <point x="202" y="661" type="line"/>
      <point x="242" y="722" type="line"/>
      <point x="281" y="661" type="line"/>
      <point x="361" y="661" type="line"/>
      <point x="286" y="781" type="line"/>
    </contour>
  </outline>
</glyph>
<glyph name="Scedilla" format="1">
  <advance width="484"/>
  <unicode hex="015E"/>
  <outline>
    <contour>
      <point x="134" y="617"/>
      <point x="39" y="562"/>
      <point x="39" y="447" type="curve" smooth="yes"/>
      <point x="39" y="217"/>
      <point x="333" y="302"/>
      <point x="333" y="158" type="curve" smooth="yes"/>
      <point x="333" y="123"/>
      <point x="309" y="87"/>
      <point x="241" y="87" type="curve" smooth="yes"/>
      <point x="179" y="87"/>
      <point x="144" y="126"/>
      <point x="144" y="183" type="curve"/>
      <point x="145" y="197" type="line"/>
      <point x="27" y="197" type="line"/>
      <point x="27" y="191"/>
      <point x="27" y="184"/>
      <point x="27" y="178" type="curve" smooth="yes"/>
      <point x="27" y="66"/>
      <point x="103" y="4"/>
      <point x="199" y="-8" type="curve"/>
      <point x="192" y="-68" type="line"/>
      <point x="221" y="-68" type="line" smooth="yes"/>
      <point x="244" y="-68"/>
      <point x="251" y="-75"/>
      <point x="251" y="-89" type="curve" smooth="yes"/>
      <point x="251" y="-106"/>
      <point x="239" y="-111"/>
      <point x="219" y="-111" type="curve" smooth="yes"/>
      <point x="156" y="-111" type="line"/>
      <point x="156" y="-154" type="line"/>
      <point x="178" y="-158"/>
      <point x="206" y="-161"/>
      <point x="231" y="-161" type="curve" smooth="yes"/>
      <point x="269" y="-161"/>
      <point x="327" y="-149"/>
      <point x="327" y="-89" type="curve" smooth="yes"/>
      <point x="327" y="-49"/>
      <point x="295" y="-32"/>
      <point x="257" y="-29" type="curve"/>
      <point x="259" y="-10" type="line"/>
      <point x="372" y="-3"/>
      <point x="450" y="52"/>
      <point x="450" y="182" type="curve" smooth="yes"/>
      <point x="450" y="405"/>
      <point x="156" y="332"/>
      <point x="156" y="455" type="curve" smooth="yes"/>
      <point x="156" y="492"/>
      <point x="186" y="520"/>
      <point x="240" y="520" type="curve" smooth="yes"/>
      <point x="292" y="520"/>
      <point x="323" y="487"/>
      <point x="323" y="436" type="curve" smooth="yes"/>
      <point x="323" y="428" type="line"/>
      <point x="438" y="428" type="line"/>
      <point x="438" y="438" type="line" smooth="yes"/>
      <point x="438" y="563"/>
      <point x="349" y="617"/>
      <point x="241" y="617" type="curve" smooth="yes"/>
    </contour>
  </outline>
</glyph>
<glyph name="scedilla" format="1">
  <advance width="403"/>
  <unicode hex="015F"/>
  <outline>
    <contour>
      <point x="138" y="148" type="line"/>
      <point x="30" y="148" type="line"/>
      <point x="30" y="148"/>
      <point x="29" y="141"/>
      <point x="29" y="137" type="curve" smooth="yes"/>
      <point x="29" y="59"/>
      <point x="76" y="4"/>
      <point x="159" y="-8" type="curve"/>
      <point x="152" y="-68" type="line"/>
      <point x="181" y="-68" type="line" smooth="yes"/>
      <point x="203" y="-68"/>
      <point x="211" y="-75"/>
      <point x="211" y="-89" type="curve" smooth="yes"/>
      <point x="211" y="-106"/>
      <point x="199" y="-111"/>
      <point x="179" y="-111" type="curve" smooth="yes"/>
      <point x="117" y="-111" type="line"/>
      <point x="117" y="-154" type="line"/>
      <point x="138" y="-158"/>
      <point x="165" y="-161"/>
      <point x="191" y="-161" type="curve" smooth="yes"/>
      <point x="229" y="-161"/>
      <point x="287" y="-149"/>
      <point x="287" y="-89" type="curve" smooth="yes"/>
      <point x="287" y="-49"/>
      <point x="255" y="-32"/>
      <point x="217" y="-29" type="curve"/>
      <point x="219" y="-10" type="line"/>
      <point x="307" y="-4"/>
      <point x="371" y="34"/>
      <point x="371" y="140" type="curve" smooth="yes"/>
      <point x="371" y="324"/>
      <point x="144" y="253"/>
      <point x="144" y="343" type="curve" smooth="yes"/>
      <point x="144" y="371"/>
      <point x="166" y="389"/>
      <point x="199" y="389" type="curve" smooth="yes"/>
      <point x="231" y="389"/>
      <point x="250" y="370"/>
      <point x="251" y="331" type="curve" smooth="yes"/>
      <point x="251" y="329" type="line"/>
      <point x="359" y="329" type="line"/>
      <point x="359" y="330"/>
      <point x="360" y="339"/>
      <point x="360" y="349" type="curve" smooth="yes"/>
      <point x="360" y="429"/>
      <point x="291" y="476"/>
      <point x="202" y="476" type="curve" smooth="yes"/>
      <point x="110" y="476"/>
      <point x="36" y="429"/>
      <point x="36" y="334" type="curve" smooth="yes"/>
      <point x="36" y="155"/>
      <point x="263" y="225"/>
      <point x="263" y="126" type="curve" smooth="yes"/>
      <point x="263" y="88"/>
      <point x="230" y="76"/>
      <point x="202" y="76" type="curve" smooth="yes"/>
      <point x="171" y="76"/>
      <point x="139" y="92"/>
      <point x="138" y="141" type="curve" smooth="yes"/>
    </contour>
  </outline>
</glyph>
<glyph name="scaron" format="1">
  <advance width="403"/>
  <unicode hex="0161"/>
  <outline>
    <contour>
      <point x="246" y="520" type="line"/>
      <point x="321" y="639" type="line"/>
      <point x="241" y="639" type="line"/>
      <point x="202" y="578" type="line"/>
      <point x="163" y="639" type="line"/>
      <point x="83" y="639" type="line"/>
      <point x="159" y="520" type="line"/>
    </contour>
    <contour>
      <point x="138" y="148" type="line"/>
      <point x="30" y="148" type="line" smooth="yes"/>
      <point x="30" y="148"/>
      <point x="29" y="141"/>
      <point x="29" y="137" type="curve" smooth="yes"/>
      <point x="29" y="49"/>
      <point x="91" y="-11"/>
      <point x="198" y="-11" type="curve" smooth="yes"/>
      <point x="297" y="-11"/>
      <point x="371" y="27"/>
      <point x="371" y="140" type="curve" smooth="yes"/>
      <point x="371" y="324"/>
      <point x="144" y="253"/>
      <point x="144" y="343" type="curve" smooth="yes"/>
      <point x="144" y="371"/>
      <point x="166" y="389"/>
      <point x="199" y="389" type="curve" smooth="yes"/>
      <point x="231" y="389"/>
      <point x="250" y="370"/>
      <point x="251" y="331" type="curve" smooth="yes"/>
      <point x="251" y="329" type="line"/>
      <point x="359" y="329" type="line"/>
      <point x="359" y="330"/>
      <point x="360" y="339"/>
      <point x="360" y="349" type="curve" smooth="yes"/>
      <point x="360" y="429"/>
      <point x="291" y="476"/>
      <point x="202" y="476" type="curve" smooth="yes"/>
      <point x="110" y="476"/>
      <point x="36" y="429"/>
      <point x="36" y="334" type="curve" smooth="yes"/>
      <point x="36" y="155"/>
      <point x="263" y="225"/>
      <point x="263" y="126" type="curve" smooth="yes"/>
      <point x="263" y="88"/>
      <point x="230" y="76"/>
      <point x="202" y="76" type="curve" smooth="yes"/>
      <point x="171" y="76"/>
      <point x="139" y="92"/>
      <point x="138" y="141" type="curve"/>
    </contour>
  </outline>
</glyph>
<glyph name="Tcedilla" format="1">
  <advance width="443"/>
  <unicode hex="0162"/>
  <outline>
    <contour>
      <point x="278" y="0" type="line"/>
      <point x="278" y="506" type="line"/>
      <point x="429" y="506" type="line"/>
      <point x="429" y="606" type="line"/>
      <point x="15" y="606" type="line"/>
      <point x="15" y="506" type="line"/>
      <point x="165" y="506" type="line"/>
      <point x="165" y="0" type="line"/>
      <point x="179.718" y="0" type="line"/>
      <point x="171" y="-68" type="line"/>
      <point x="200" y="-68" type="line" smooth="yes"/>
      <point x="223" y="-68"/>
      <point x="230" y="-75"/>
      <point x="230" y="-89" type="curve" smooth="yes"/>
      <point x="230" y="-106"/>
      <point x="218" y="-111"/>
      <point x="199" y="-111" type="curve" smooth="yes"/>
      <point x="136" y="-111" type="line"/>
      <point x="136" y="-154" type="line"/>
      <point x="157" y="-158"/>
      <point x="185" y="-161"/>
      <point x="210" y="-161" type="curve" smooth="yes"/>
      <point x="248" y="-161"/>
      <point x="306" y="-149"/>
      <point x="306" y="-89" type="curve" smooth="yes"/>
      <point x="306" y="-49"/>
      <point x="275" y="-32"/>
      <point x="237" y="-29" type="curve"/>
      <point x="239.974" y="0" type="line"/>
    </contour>
  </outline>
</glyph>
<glyph name="tcedilla" format="1">
  <advance width="241"/>
  <unicode hex="0163"/>
  <outline>
    <contour>
      <point x="162.847" y="-11" type="line"/>
      <point x="164" y="-11" type="line" smooth="yes"/>
      <point x="185" y="-11"/>
      <point x="213" y="-5"/>
      <point x="228" y="0" type="curve"/>
      <point x="228" y="79" type="line"/>
      <point x="198" y="79" type="line" smooth="yes"/>
      <point x="174" y="79"/>
      <point x="161" y="92"/>
      <point x="161" y="117" type="curve" smooth="yes"/>
      <point x="161" y="376" type="line"/>
      <point x="228" y="376" type="line"/>
      <point x="228" y="465" type="line"/>
      <point x="161" y="465" type="line"/>
      <point x="161" y="596" type="line"/>
      <point x="70.9999" y="596" type="line"/>
      <point x="54.9999" y="465" type="line"/>
      <point x="7.9999" y="465" type="line"/>
      <point x="7.9999" y="376" type="line"/>
      <point x="54.9999" y="376" type="line"/>
      <point x="54.9999" y="114" type="line" smooth="yes"/>
      <point x="54.9999" y="70.2846"/>
      <point x="67.4292" y="26.0726"/>
      <point x="104.205" y="3.797" type="curve"/>
      <point x="95" y="-68" type="line"/>
      <point x="124" y="-68" type="line" smooth="yes"/>
      <point x="147" y="-68"/>
      <point x="154" y="-75"/>
      <point x="154" y="-89" type="curve" smooth="yes"/>
      <point x="154" y="-106"/>
      <point x="142" y="-111"/>
      <point x="123" y="-111" type="curve" smooth="yes"/>
      <point x="60" y="-111" type="line"/>
      <point x="60" y="-154" type="line"/>
      <point x="81" y="-158"/>
      <point x="109" y="-161"/>
      <point x="134" y="-161" type="curve" smooth="yes"/>
      <point x="172" y="-161"/>
      <point x="230" y="-149"/>
      <point x="230" y="-89" type="curve" smooth="yes"/>
      <point x="230" y="-49"/>
      <point x="199" y="-32"/>
      <point x="161" y="-29" type="curve"/>
    </contour>
  </outline>
</glyph>
<glyph name="Uring" format="1">
  <advance width="523"/>
  <unicode hex="016E"/>
  <outline>
    <contour>
      <point x="262" y="807" type="curve" smooth="yes"/>
      <point x="215" y="807"/>
      <point x="177" y="769"/>
      <point x="177" y="722" type="curve" smooth="yes"/>
      <point x="177" y="674"/>
      <point x="216" y="637"/>
      <point x="262" y="637" type="curve" smooth="yes"/>
      <point x="309" y="637"/>
      <point x="347" y="675"/>
      <point x="347" y="722" type="curve" smooth="yes"/>
      <point x="347" y="768"/>
      <point x="309" y="807"/>
    </contour>
    <contour>
      <point x="262" y="763" type="curve" smooth="yes"/>
      <point x="284" y="763"/>
      <point x="302" y="745"/>
      <point x="302" y="722" type="curve" smooth="yes"/>
      <point x="302" y="699"/>
      <point x="284" y="682"/>
      <point x="262" y="682" type="curve" smooth="yes"/>
      <point x="239" y="682"/>
      <point x="221" y="699"/>
      <point x="221" y="722" type="curve" smooth="yes"/>
      <point x="221" y="745"/>
      <point x="239" y="763"/>
    </contour>
    <contour>
      <point x="470" y="606" type="line"/>
      <point x="357" y="606" type="line"/>
      <point x="357" y="194" type="line" smooth="yes"/>
      <point x="357" y="124"/>
      <point x="322" y="87"/>
      <point x="262" y="87" type="curve" smooth="yes"/>
      <point x="202" y="87"/>
      <point x="167" y="124"/>
      <point x="167" y="194" type="curve" smooth="yes"/>
      <point x="167" y="606" type="line"/>
      <point x="54" y="606" type="line"/>
      <point x="54" y="190" type="line" smooth="yes"/>
      <point x="54" y="58"/>
      <point x="132" y="-11"/>
      <point x="262" y="-11" type="curve" smooth="yes"/>
      <point x="392" y="-11"/>
      <point x="470" y="58"/>
      <point x="470" y="190" type="curve" smooth="yes"/>
    </contour>
  </outline>
</glyph>
<glyph name="uring" format="1">
  <advance width="443"/>
  <unicode hex="016F"/>
  <outline>
    <contour>
      <point x="222" y="666" type="curve" smooth="yes"/>
      <point x="175" y="666"/>
      <point x="137" y="628"/>
      <point x="137" y="581" type="curve" smooth="yes"/>
      <point x="137" y="533"/>
      <point x="176" y="496"/>
      <point x="222" y="496" type="curve" smooth="yes"/>
      <point x="269" y="496"/>
      <point x="307" y="534"/>
      <point x="307" y="581" type="curve" smooth="yes"/>
      <point x="307" y="627"/>
      <point x="270" y="666"/>
    </contour>
    <contour>
      <point x="222" y="621" type="curve" smooth="yes"/>
      <point x="244" y="621"/>
      <point x="263" y="604"/>
      <point x="263" y="581" type="curve" smooth="yes"/>
      <point x="263" y="558"/>
      <point x="244" y="540"/>
      <point x="222" y="540" type="curve" smooth="yes"/>
      <point x="199" y="540"/>
      <point x="181" y="558"/>
      <point x="181" y="581" type="curve" smooth="yes"/>
      <point x="181" y="604"/>
      <point x="199" y="621"/>
    </contour>
    <contour>
      <point x="295" y="57" type="line"/>
      <point x="306" y="0" type="line"/>
      <point x="394" y="0" type="line"/>
      <point x="394" y="465" type="line"/>
      <point x="288" y="465" type="line"/>
      <point x="288" y="177" type="line" smooth="yes"/>
      <point x="288" y="125"/>
      <point x="257" y="86"/>
      <point x="216" y="86" type="curve" smooth="yes"/>
      <point x="176" y="86"/>
      <point x="155" y="108"/>
      <point x="155" y="168" type="curve" smooth="yes"/>
      <point x="155" y="465" type="line"/>
      <point x="49" y="465" type="line"/>
      <point x="49" y="139" type="line" smooth="yes"/>
      <point x="49" y="29"/>
      <point x="101" y="-11"/>
      <point x="172" y="-11" type="curve" smooth="yes"/>
      <point x="228" y="-11"/>
      <point x="266" y="21"/>
      <point x="290" y="57" type="curve"/>
    </contour>
  </outline>
</glyph>
<glyph name="Uogonek" format="1">
  <advance width="523"/>
  <unicode hex="0172"/>
  <outline>
    <contour>
      <point x="357" y="201" type="line" smooth="yes"/>
      <point x="357" y="126"/>
      <point x="322" y="87"/>
      <point x="262" y="87" type="curve" smooth="yes"/>
      <point x="202" y="87"/>
      <point x="167" y="126"/>
      <point x="167" y="201" type="curve" smooth="yes"/>
      <point x="167" y="606" type="line"/>
      <point x="54" y="606" type="line"/>
      <point x="54" y="197" type="line" smooth="yes"/>
      <point x="54" y="61"/>
      <point x="132" y="-11"/>
      <point x="262" y="-11" type="curve" smooth="yes"/>
      <point x="265" y="-11"/>
      <point x="267" y="-11"/>
      <point x="270.248" y="-11" type="curve"/>
      <point x="255.553" y="-30"/>
      <point x="245" y="-53"/>
      <point x="245" y="-84" type="curve" smooth="yes"/>
      <point x="245" y="-145"/>
      <point x="292" y="-164"/>
      <point x="332" y="-164" type="curve" smooth="yes"/>
      <point x="352" y="-164"/>
      <point x="370" y="-159"/>
      <point x="391" y="-151" type="curve"/>
      <point x="391" y="-103" type="line"/>
      <point x="371" y="-103" type="line" smooth="yes"/>
      <point x="342" y="-103"/>
      <point x="331" y="-80"/>
      <point x="331" y="-57" type="curve" smooth="yes"/>
      <point x="331" y="-33"/>
      <point x="347" y="-8"/>
      <point x="358" y="3.9854" type="curve"/>
      <point x="430" y="31.9854"/>
      <point x="470" y="96.9854"/>
      <point x="470" y="196.985" type="curve" smooth="yes"/>
      <point x="470" y="605.985" type="line"/>
      <point x="357" y="606" type="line"/>
    </contour>
  </outline>
</glyph>
<glyph name="wcircumflex" format="1">
  <advance width="564"/>
  <unicode hex="0175"/>
  <outline>
    <contour>
      <point x="322" y="520" type="line"/>
      <point x="401" y="520" type="line"/>
      <point x="326" y="639" type="line"/>
      <point x="240" y="639" type="line"/>
      <point x="164" y="520" type="line"/>
      <point x="243" y="520" type="line"/>
      <point x="283" y="581" type="line"/>
    </contour>
    <contour>
      <point x="344" y="0" type="line"/>
      <point x="451" y="0" type="line"/>
      <point x="563" y="465" type="line"/>
      <point x="465" y="465" type="line"/>
      <point x="424" y="272" type="line" smooth="yes"/>
      <point x="414" y="220"/>
      <point x="401" y="128"/>
      <point x="401" y="128" type="curve" smooth="yes"/>
      <point x="398" y="128" type="line" smooth="yes"/>
      <point x="398" y="128"/>
      <point x="388" y="227"/>
      <point x="378" y="272" type="curve" smooth="yes"/>
      <point x="339" y="465" type="line"/>
      <point x="232" y="465" type="line"/>
      <point x="193" y="273" type="line" smooth="yes"/>
      <point x="179" y="207"/>
      <point x="173" y="128"/>
      <point x="173" y="128" type="curve" smooth="yes"/>
      <point x="170" y="128" type="line" smooth="yes"/>
      <point x="170" y="128"/>
      <point x="165" y="211"/>
      <point x="151" y="274" type="curve" smooth="yes"/>
      <point x="107" y="465" type="line"/>
      <point x="1" y="465" type="line"/>
      <point x="114" y="0" type="line"/>
      <point x="221" y="0" type="line"/>
      <point x="266" y="223" type="line" smooth="yes"/>
      <point x="276" y="271"/>
      <point x="279" y="337"/>
      <point x="279" y="337" type="curve"/>
      <point x="285" y="337" type="line"/>
      <point x="285" y="337"/>
      <point x="288" y="269"/>
      <point x="298" y="222" type="curve" smooth="yes"/>
    </contour>
  </outline>
</glyph>
<glyph name="Ycircumflex" format="1">
  <advance width="484"/>
  <unicode hex="0176"/>
  <outline>
    <contour>
      <point x="242" y="722" type="line"/>
      <point x="281" y="661" type="line"/>
      <point x="361" y="661" type="line"/>
      <point x="286" y="781" type="line"/>
      <point x="199" y="781" type="line"/>
      <point x="123" y="661" type="line"/>
      <point x="202" y="661" type="line"/>
    </contour>
    <contour>
      <point x="186" y="0" type="line"/>
      <point x="299" y="0" type="line"/>
      <point x="299" y="229" type="line"/>
      <point x="484" y="606" type="line"/>
      <point x="370" y="606" type="line"/>
      <point x="247" y="340" type="line"/>
      <point x="243" y="340" type="line"/>
      <point x="119" y="606" type="line"/>
      <point x="0" y="606" type="line"/>
      <point x="186" y="229" type="line"/>
    </contour>
  </outline>
</glyph>
<glyph name="Ycircumflex" format="1">
  <advance width="484"/>
  <unicode hex="0176"/>
  <outline>
    <contour>
      <point x="281" y="661" type="line"/>
      <point x="361" y="661" type="line"/>
      <point x="286" y="781" type="line"/>
      <point x="199" y="781" type="line"/>
      <point x="123" y="661" type="line"/>
      <point x="202" y="661" type="line"/>
      <point x="242" y="722" type="line"/>
    </contour>
    <contour>
      <point x="299" y="0" type="line"/>
      <point x="299" y="229" type="line"/>
      <point x="484" y="606" type="line"/>
      <point x="370" y="606" type="line"/>
      <point x="247" y="340" type="line"/>
      <point x="243" y="340" type="line"/>
      <point x="119" y="606" type="line"/>
      <point x="0" y="606" type="line"/>
      <point x="186" y="229" type="line"/>
      <point x="186" y="0" type="line"/>
    </contour>
  </outline>
</glyph>
<glyph name="Ydieresis" format="1">
  <advance width="484"/>
  <unicode hex="0178"/>
  <outline>
    <contour>
      <point x="120" y="684" type="line"/>
      <point x="209" y="684" type="line"/>
      <point x="209" y="781" type="line"/>
      <point x="120" y="781" type="line"/>
    </contour>
    <contour>
      <point x="275" y="684" type="line"/>
      <point x="363" y="684" type="line"/>
      <point x="363" y="781" type="line"/>
      <point x="275" y="781" type="line"/>
    </contour>
    <contour>
      <point x="299" y="0" type="line"/>
      <point x="299" y="229" type="line"/>
      <point x="484" y="606" type="line"/>
      <point x="370" y="606" type="line"/>
      <point x="247" y="340" type="line"/>
      <point x="243" y="340" type="line"/>
      <point x="119" y="606" type="line"/>
      <point x="0" y="606" type="line"/>
      <point x="186" y="229" type="line"/>
      <point x="186" y="0" type="line"/>
    </contour>
  </outline>
</glyph>
<glyph name="Ydieresis" format="1">
  <advance width="484"/>
  <unicode hex="0178"/>
  <outline>
    <contour>
      <point x="209" y="684" type="line"/>
      <point x="209" y="781" type="line"/>
      <point x="120" y="781" type="line"/>
      <point x="120" y="684" type="line"/>
    </contour>
    <contour>
      <point x="363" y="684" type="line"/>
      <point x="363" y="781" type="line"/>
      <point x="275" y="781" type="line"/>
      <point x="275" y="684" type="line"/>
    </contour>
    <contour>
      <point x="299" y="229" type="line"/>
      <point x="484" y="606" type="line"/>
      <point x="370" y="606" type="line"/>
      <point x="247" y="340" type="line"/>
      <point x="243" y="340" type="line"/>
      <point x="119" y="606" type="line"/>
      <point x="0" y="606" type="line"/>
      <point x="186" y="229" type="line"/>
      <point x="186" y="0" type="line"/>
      <point x="299" y="0" type="line"/>
    </contour>
  </outline>
</glyph>
<glyph name="Zacute" format="1">
  <advance width="443"/>
  <unicode hex="0179"/>
  <outline>
    <contour>
      <point x="344" y="778" type="line"/>
      <point x="343" y="781" type="line"/>
      <point x="237" y="781" type="line"/>
      <point x="161" y="664" type="line"/>
      <point x="248" y="664" type="line"/>
    </contour>
    <contour>
      <point x="418" y="562" type="line"/>
      <point x="418" y="606" type="line"/>
      <point x="33" y="606" type="line"/>
      <point x="33" y="506" type="line"/>
      <point x="263" y="506" type="line"/>
      <point x="14" y="43" type="line"/>
      <point x="14" y="0" type="line"/>
      <point x="424" y="0" type="line"/>
      <point x="424" y="101" type="line"/>
      <point x="169" y="101" type="line"/>
    </contour>
  </outline>
</glyph>
<glyph name="zacute" format="1">
  <advance width="362"/>
  <unicode hex="017A"/>
  <outline>
    <contour>
      <point x="208" y="522" type="line"/>
      <point x="303" y="636" type="line"/>
      <point x="302" y="639" type="line"/>
      <point x="196" y="639" type="line"/>
      <point x="120" y="522" type="line"/>
    </contour>
    <contour>
      <point x="159" y="89" type="line"/>
      <point x="340" y="421" type="line"/>
      <point x="340" y="465" type="line"/>
      <point x="27" y="465" type="line"/>
      <point x="27" y="376" type="line"/>
      <point x="196" y="376" type="line"/>
      <point x="16" y="45" type="line"/>
      <point x="16" y="0" type="line"/>
      <point x="347" y="0" type="line"/>
      <point x="347" y="89" type="line"/>
    </contour>
  </outline>
</glyph>
<glyph name="Zdotaccent" format="1">
  <advance width="443"/>
  <unicode hex="017B"/>
  <outline>
    <contour>
      <point x="269" y="679" type="line"/>
      <point x="269" y="781" type="line"/>
      <point x="174" y="781" type="line"/>
      <point x="174" y="679" type="line"/>
    </contour>
    <contour>
      <point x="418" y="562" type="line"/>
      <point x="418" y="606" type="line"/>
      <point x="33" y="606" type="line"/>
      <point x="33" y="506" type="line"/>
      <point x="263" y="506" type="line"/>
      <point x="14" y="43" type="line"/>
      <point x="14" y="0" type="line"/>
      <point x="424" y="0" type="line"/>
      <point x="424" y="101" type="line"/>
      <point x="169" y="101" type="line"/>
    </contour>
  </outline>
</glyph>
<glyph name="zdotaccent" format="1">
  <advance width="362"/>
  <unicode hex="017C"/>
  <outline>
    <contour>
      <point x="134" y="639" type="line"/>
      <point x="134" y="537" type="line"/>
      <point x="229" y="537" type="line"/>
      <point x="229" y="639" type="line"/>
    </contour>
    <contour>
      <point x="347" y="89" type="line"/>
      <point x="159" y="89" type="line"/>
      <point x="340" y="421" type="line"/>
      <point x="340" y="465" type="line"/>
      <point x="27" y="465" type="line"/>
      <point x="27" y="376" type="line"/>
      <point x="196" y="376" type="line"/>
      <point x="16" y="45" type="line"/>
      <point x="16" y="0" type="line"/>
      <point x="347" y="0" type="line"/>
    </contour>
  </outline>
</glyph>
<glyph name="Aringacute" format="1">
  <advance width="523"/>
  <unicode hex="01FA"/>
  <outline>
    <contour>
      <point x="311" y="750" type="line"/>
      <point x="392" y="843" type="line"/>
      <point x="392" y="846" type="line"/>
      <point x="286" y="846" type="line"/>
      <point x="224" y="750" type="line"/>
    </contour>
    <contour>
      <point x="0" y="0" type="line"/>
      <point x="110" y="0" type="line"/>
      <point x="146" y="119" type="line"/>
      <point x="370" y="119" type="line"/>
      <point x="407" y="0" type="line"/>
      <point x="522" y="0" type="line"/>
      <point x="331" y="595" type="line"/>
      <point x="340" y="609"/>
      <point x="347" y="626"/>
      <point x="347" y="644" type="curve" smooth="yes"/>
      <point x="347" y="688"/>
      <point x="309" y="726"/>
      <point x="262" y="726" type="curve" smooth="yes"/>
      <point x="215" y="726"/>
      <point x="177" y="689"/>
      <point x="177" y="644" type="curve" smooth="yes"/>
      <point x="177" y="626"/>
      <point x="182" y="609"/>
      <point x="192" y="596" type="curve"/>
    </contour>
    <contour>
      <point x="284" y="682"/>
      <point x="302" y="666"/>
      <point x="302" y="644" type="curve" smooth="yes"/>
      <point x="302" y="621"/>
      <point x="284" y="604"/>
      <point x="262" y="604" type="curve" smooth="yes"/>
      <point x="239" y="604"/>
      <point x="221" y="621"/>
      <point x="221" y="644" type="curve" smooth="yes"/>
      <point x="221" y="666"/>
      <point x="239" y="682"/>
      <point x="262" y="682" type="curve" smooth="yes"/>
    </contour>
    <contour>
      <point x="260" y="505" type="line"/>
      <point x="260" y="505"/>
      <point x="268" y="454"/>
      <point x="278" y="423" type="curve" smooth="yes"/>
      <point x="339" y="220" type="line"/>
      <point x="177" y="220" type="line"/>
      <point x="239" y="423" type="line" smooth="yes"/>
      <point x="248" y="451"/>
      <point x="256" y="505"/>
      <point x="256" y="505" type="curve"/>
    </contour>
  </outline>
</glyph>
<glyph name="circumflex" format="1">
  <advance width="241"/>
  <unicode hex="02C6"/>
  <outline>
    <contour>
      <point x="119" y="465" type="move" name="_top"/>
    </contour>
    <contour>
      <point x="119" y="581" type="line"/>
      <point x="158" y="520" type="line"/>
      <point x="238" y="520" type="line"/>
      <point x="163" y="639" type="line"/>
      <point x="76" y="639" type="line"/>
      <point x="0" y="520" type="line"/>
      <point x="80" y="520" type="line"/>
    </contour>
  </outline>
</glyph>
<glyph name="breve" format="1">
  <advance width="241"/>
  <unicode hex="02D8"/>
  <outline>
    <contour>
      <point x="119" y="465" type="move" name="_top"/>
    </contour>
    <contour>
      <point x="171" y="639" type="line"/>
      <point x="170" y="627"/>
      <point x="149" y="610"/>
      <point x="118" y="610" type="curve" smooth="yes"/>
      <point x="89" y="610"/>
      <point x="69" y="627"/>
      <point x="66" y="639" type="curve"/>
      <point x="1" y="639" type="line"/>
      <point x="1" y="595"/>
      <point x="46" y="545"/>
      <point x="118" y="545" type="curve" smooth="yes"/>
      <point x="192" y="545"/>
      <point x="237" y="595"/>
      <point x="237" y="639" type="curve"/>
    </contour>
  </outline>
</glyph>
<glyph name="dotaccent" format="1">
  <advance width="241"/>
  <unicode hex="02D9"/>
  <outline>
    <contour>
      <point x="73" y="537" type="line"/>
      <point x="168" y="537" type="line"/>
      <point x="168" y="639" type="line"/>
      <point x="73" y="639" type="line"/>
    </contour>
    <contour>
      <point x="121" y="465" type="move" name="_top"/>
    </contour>
  </outline>
</glyph>
<glyph name="ring" format="1">
  <advance width="241"/>
  <unicode hex="02DA"/>
  <outline>
    <contour>
      <point x="76" y="666"/>
      <point x="38" y="628"/>
      <point x="38" y="581" type="curve" smooth="yes"/>
      <point x="38" y="533"/>
      <point x="77" y="496"/>
      <point x="123" y="496" type="curve" smooth="yes"/>
      <point x="170" y="496"/>
      <point x="208" y="534"/>
      <point x="208" y="581" type="curve" smooth="yes"/>
      <point x="208" y="627"/>
      <point x="171" y="666"/>
      <point x="123" y="666" type="curve" smooth="yes"/>
    </contour>
    <contour>
      <point x="145" y="621"/>
      <point x="164" y="604"/>
      <point x="164" y="581" type="curve" smooth="yes"/>
      <point x="164" y="558"/>
      <point x="145" y="540"/>
      <point x="123" y="540" type="curve" smooth="yes"/>
      <point x="100" y="540"/>
      <point x="82" y="558"/>
      <point x="82" y="581" type="curve" smooth="yes"/>
      <point x="82" y="604"/>
      <point x="100" y="621"/>
      <point x="123" y="621" type="curve" smooth="yes"/>
    </contour>
    <contour>
      <point x="123" y="465" type="move" name="_top"/>
    </contour>
  </outline>
</glyph>
<glyph name="commaaccentcomb" format="1">
  <advance width="273"/>
  <unicode hex="0326"/>
  <outline>
    <contour>
      <point x="197" y="-55" type="line"/>
      <point x="73" y="-55" type="line"/>
      <point x="73" y="-178" type="line"/>
      <point x="122" y="-178" type="line"/>
      <point x="86" y="-263" type="line"/>
      <point x="151" y="-263" type="line"/>
      <point x="197" y="-167" type="line"/>
    </contour>
    <contour>
      <point x="135" y="0" type="move" name="_bottom"/>
    </contour>
  </outline>
</glyph>
<glyph name="Delta" format="1">
  <advance width="521"/>
  <unicode hex="0394"/>
  <outline>
    <contour>
      <point x="502" y="49" type="line"/>
      <point x="323" y="606" type="line"/>
      <point x="191" y="606" type="line"/>
      <point x="11" y="49" type="line"/>
      <point x="11" y="0" type="line"/>
      <point x="502" y="0" type="line"/>
    </contour>
    <contour>
      <point x="252" y="478" type="line"/>
      <point x="255" y="478" type="line"/>
      <point x="371" y="101" type="line"/>
      <point x="136" y="101" type="line"/>
    </contour>
  </outline>
</glyph>
<glyph name="Omega" format="1">
  <advance width="679"/>
  <unicode hex="03A9"/>
  <outline>
    <contour>
      <point x="87" y="101" type="line"/>
      <point x="87" y="0" type="line"/>
      <point x="305" y="0" type="line"/>
      <point x="305" y="72" type="line"/>
      <point x="238" y="91"/>
      <point x="202" y="159"/>
      <point x="202" y="262" type="curve" smooth="yes"/>
      <point x="202" y="325" type="line" smooth="yes"/>
      <point x="202" y="446"/>
      <point x="248" y="520"/>
      <point x="339" y="520" type="curve" smooth="yes"/>
      <point x="429" y="520"/>
      <point x="474" y="446"/>
      <point x="474" y="325" type="curve" smooth="yes"/>
      <point x="474" y="262" type="line" smooth="yes"/>
      <point x="474" y="158"/>
      <point x="440" y="89"/>
      <point x="372" y="72" type="curve"/>
      <point x="372" y="0" type="line"/>
      <point x="590" y="0" type="line"/>
      <point x="590" y="101" type="line"/>
      <point x="568" y="101" type="line" smooth="yes"/>
      <point x="554" y="101"/>
      <point x="528" y="92"/>
      <point x="502" y="88" type="curve"/>
      <point x="555" y="133"/>
      <point x="590" y="204"/>
      <point x="590" y="303" type="curve" smooth="yes"/>
      <point x="590" y="517"/>
      <point x="495" y="617"/>
      <point x="339" y="617" type="curve" smooth="yes"/>
      <point x="182" y="617"/>
      <point x="87" y="517"/>
      <point x="87" y="303" type="curve" smooth="yes"/>
      <point x="87" y="204"/>
      <point x="121" y="133"/>
      <point x="174" y="88" type="curve"/>
      <point x="148" y="92"/>
      <point x="122" y="101"/>
      <point x="109" y="101" type="curve" smooth="yes"/>
    </contour>
    <contour>
      <point x="18" y="606" type="move" name="topleft"/>
    </contour>
  </outline>
</glyph>
<glyph name="mu" format="1">
  <advance width="443"/>
  <unicode hex="03BC"/>
  <outline>
    <contour>
      <point x="306" y="0" type="line"/>
      <point x="394" y="0" type="line"/>
      <point x="394" y="465" type="line"/>
      <point x="288" y="465" type="line"/>
      <point x="288" y="177" type="line" smooth="yes"/>
      <point x="288" y="125"/>
      <point x="257" y="86"/>
      <point x="216" y="86" type="curve" smooth="yes"/>
      <point x="176" y="86"/>
      <point x="155" y="108"/>
      <point x="155" y="168" type="curve" smooth="yes"/>
      <point x="155" y="465" type="line"/>
      <point x="49" y="465" type="line"/>
      <point x="49" y="-153" type="line"/>
      <point x="155" y="-153" type="line"/>
      <point x="155" y="-4" type="line"/>
      <point x="165" y="-8"/>
      <point x="178" y="-11"/>
      <point x="190" y="-11" type="curve" smooth="yes"/>
      <point x="237" y="-11"/>
      <point x="270" y="21"/>
      <point x="290" y="57" type="curve"/>
      <point x="295" y="57" type="line"/>
    </contour>
  </outline>
</glyph>
<glyph name="candrabindudeva" format="1">
  <advance width="0"/>
  <unicode hex="0901"/>
  <outline>
    <contour>
      <point x="-121" y="606" type="move" name="_top"/>
    </contour>
    <contour>
      <point x="-171" y="827" type="line"/>
      <point x="-171" y="744" type="line"/>
      <point x="-72" y="744" type="line"/>
      <point x="-72" y="827" type="line"/>
    </contour>
    <contour>
      <point x="-46" y="793" type="line"/>
      <point x="-46" y="726"/>
      <point x="-68" y="698"/>
      <point x="-122" y="698" type="curve" smooth="yes"/>
      <point x="-175" y="698"/>
      <point x="-197" y="726"/>
      <point x="-197" y="793" type="curve"/>
      <point x="-281" y="793" type="line"/>
      <point x="-281" y="699"/>
      <point x="-220" y="634"/>
      <point x="-122" y="634" type="curve" smooth="yes"/>
      <point x="-22" y="634"/>
      <point x="40" y="699"/>
      <point x="40" y="793" type="curve"/>
    </contour>
  </outline>
</glyph>
<glyph name="aShort-deva" format="1">
  <advance width="654"/>
  <unicode hex="0904"/>
  <outline>
    <contour>
      <point x="666" y="606" type="line"/>
      <point x="584" y="606" type="line"/>
      <point x="584" y="636" type="line" smooth="yes"/>
      <point x="584" y="726"/>
      <point x="564" y="794"/>
      <point x="445" y="794" type="curve" smooth="yes"/>
      <point x="382" y="794"/>
      <point x="255" y="769"/>
      <point x="205" y="769" type="curve" smooth="yes"/>
      <point x="178" y="769"/>
      <point x="165" y="781"/>
      <point x="165" y="814" type="curve" smooth="yes"/>
      <point x="165" y="827" type="line"/>
      <point x="76" y="827" type="line"/>
      <point x="75" y="820"/>
      <point x="75" y="814"/>
      <point x="75" y="806" type="curve" smooth="yes"/>
      <point x="75" y="732"/>
      <point x="106" y="677"/>
      <point x="195" y="677" type="curve" smooth="yes"/>
      <point x="250" y="677"/>
      <point x="385" y="701"/>
      <point x="431" y="701" type="curve" smooth="yes"/>
      <point x="463" y="701"/>
      <point x="478" y="677"/>
      <point x="478" y="646" type="curve" smooth="yes"/>
      <point x="478" y="606" type="line"/>
      <point x="434" y="606" type="line"/>
      <point x="434" y="513" type="line"/>
      <point x="479" y="513" type="line"/>
      <point x="479" y="301" type="line"/>
      <point x="317.005" y="301" type="line"/>
      <point x="303.523" y="317.583"/>
      <point x="286.365" y="329.583"/>
      <point x="267" y="336.583" type="curve"/>
      <point x="267" y="339.583" type="line"/>
      <point x="310" y="363.583"/>
      <point x="339" y="400.583"/>
      <point x="339" y="465.583" type="curve" smooth="yes"/>
      <point x="339" y="562.583"/>
      <point x="278" y="616.583"/>
      <point x="185" y="616.583" type="curve" smooth="yes"/>
      <point x="96" y="616.583"/>
      <point x="33" y="560.583"/>
      <point x="33" y="473.583" type="curve" smooth="yes"/>
      <point x="33" y="447.583" type="line"/>
      <point x="143" y="447.583" type="line"/>
      <point x="143" y="465.583" type="line" smooth="yes"/>
      <point x="143" y="506.583"/>
      <point x="157" y="528.583"/>
      <point x="186" y="528.583" type="curve" smooth="yes"/>
      <point x="215" y="528.583"/>
      <point x="229" y="506.583"/>
      <point x="229" y="462.583" type="curve" smooth="yes"/>
      <point x="229" y="404.583"/>
      <point x="208" y="377.583"/>
      <point x="177" y="377.583" type="curve" smooth="yes"/>
      <point x="147" y="377.583" type="line"/>
      <point x="147" y="289.583" type="line"/>
      <point x="176" y="289.583" type="line" smooth="yes"/>
      <point x="208" y="289.583"/>
      <point x="237" y="272.583"/>
      <point x="237" y="206.583" type="curve" smooth="yes"/>
      <point x="237" y="153.583"/>
      <point x="217" y="130.583"/>
      <point x="186" y="130.583" type="curve" smooth="yes"/>
      <point x="153" y="130.583"/>
      <point x="134" y="152.583"/>
      <point x="134" y="192.583" type="curve" smooth="yes"/>
      <point x="134" y="214.583" type="line"/>
      <point x="23" y="214.583" type="line"/>
      <point x="23" y="195.583" type="line" smooth="yes"/>
      <point x="23" y="102.583"/>
      <point x="83" y="41.5834"/>
      <point x="185" y="41.5834" type="curve" smooth="yes"/>
      <point x="283" y="41.5834"/>
      <point x="348" y="102.583"/>
      <point x="348" y="201.583" type="curve"/>
      <point x="348" y="204"/>
      <point x="348" y="206"/>
      <point x="347.92" y="207.583" type="curve"/>
      <point x="479" y="207.583" type="line"/>
      <point x="479" y="0" type="line"/>
      <point x="585" y="0" type="line"/>
      <point x="585" y="512.583" type="line"/>
      <point x="666" y="512.583" type="line"/>
    </contour>
    <contour>
      <point x="327" y="465" type="move" name="top"/>
    </contour>
    <contour>
      <point x="327" y="0" type="move" name="bottom"/>
    </contour>
  </outline>
</glyph>
<glyph name="a-deva" format="1">
  <advance width="654"/>
  <unicode hex="0905"/>
  <outline>
    <contour>
      <point x="96" y="616.583"/>
      <point x="33" y="560.583"/>
      <point x="33" y="473.583" type="curve" smooth="yes"/>
      <point x="33" y="447.583" type="line"/>
      <point x="143" y="447.583" type="line"/>
      <point x="143" y="465.583" type="line" smooth="yes"/>
      <point x="143" y="506.583"/>
      <point x="157" y="528.583"/>
      <point x="186" y="528.583" type="curve" smooth="yes"/>
      <point x="215" y="528.583"/>
      <point x="229" y="506.583"/>
      <point x="229" y="462.583" type="curve" smooth="yes"/>
      <point x="229" y="404.583"/>
      <point x="208" y="377.583"/>
      <point x="177" y="377.583" type="curve" smooth="yes"/>
      <point x="147" y="377.583" type="line"/>
      <point x="147" y="289.583" type="line"/>
      <point x="176" y="289.583" type="line" smooth="yes"/>
      <point x="208" y="289.583"/>
      <point x="237" y="272.583"/>
      <point x="237" y="206.583" type="curve" smooth="yes"/>
      <point x="237" y="153.583"/>
      <point x="217" y="130.583"/>
      <point x="186" y="130.583" type="curve" smooth="yes"/>
      <point x="153" y="130.583"/>
      <point x="134" y="152.583"/>
      <point x="134" y="192.583" type="curve" smooth="yes"/>
      <point x="134" y="214.583" type="line"/>
      <point x="23" y="214.583" type="line"/>
      <point x="23" y="195.583" type="line" smooth="yes"/>
      <point x="23" y="102.583"/>
      <point x="83" y="41.5834"/>
      <point x="185" y="41.5834" type="curve" smooth="yes"/>
      <point x="283" y="41.5834"/>
      <point x="348" y="102.583"/>
      <point x="348" y="201.583" type="curve"/>
      <point x="348" y="204"/>
      <point x="348" y="206"/>
      <point x="347.92" y="207.583" type="curve"/>
      <point x="479" y="207.583" type="line"/>
      <point x="479" y="0" type="line"/>
      <point x="585" y="0" type="line"/>
      <point x="585" y="512.583" type="line"/>
      <point x="666" y="512.583" type="line"/>
      <point x="666" y="606" type="line"/>
      <point x="434" y="606" type="line"/>
      <point x="434" y="513" type="line"/>
      <point x="479" y="513" type="line"/>
      <point x="479" y="301" type="line"/>
      <point x="317.005" y="301" type="line"/>
      <point x="303.523" y="317.583"/>
      <point x="286.365" y="329.583"/>
      <point x="267" y="336.583" type="curve"/>
      <point x="267" y="339.583" type="line"/>
      <point x="310" y="363.583"/>
      <point x="339" y="400.583"/>
      <point x="339" y="465.583" type="curve" smooth="yes"/>
      <point x="339" y="562.583"/>
      <point x="278" y="616.583"/>
      <point x="185" y="616.583" type="curve" smooth="yes"/>
    </contour>
    <contour>
      <point x="532" y="606" type="move" name="top"/>
    </contour>
    <contour>
      <point x="530.5" y="0" type="move" name="bottom"/>
    </contour>
  </outline>
</glyph>
<glyph name="aadeva" format="1">
  <advance width="900"/>
  <unicode hex="0906"/>
  <outline>
    <contour>
      <point x="779" y="0" type="move" name="bottom"/>
    </contour>
    <contour>
      <point x="779" y="606" type="move" name="top"/>
    </contour>
    <contour>
      <point x="922" y="513" type="line"/>
      <point x="922" y="606" type="line"/>
      <point x="434" y="606" type="line"/>
      <point x="434" y="513" type="line"/>
      <point x="479" y="513" type="line"/>
      <point x="479" y="311" type="line"/>
      <point x="308" y="311" type="line"/>
      <point x="296" y="323"/>
      <point x="282" y="331"/>
      <point x="267" y="337" type="curve"/>
      <point x="267" y="340" type="line"/>
      <point x="310" y="364"/>
      <point x="339" y="401"/>
      <point x="339" y="466" type="curve" smooth="yes"/>
      <point x="339" y="563"/>
      <point x="278" y="617"/>
      <point x="185" y="617" type="curve" smooth="yes"/>
      <point x="96" y="617"/>
      <point x="33" y="561"/>
      <point x="33" y="474" type="curve" smooth="yes"/>
      <point x="33" y="448" type="line"/>
      <point x="143" y="448" type="line"/>
      <point x="143" y="466" type="line" smooth="yes"/>
      <point x="143" y="507"/>
      <point x="157" y="529"/>
      <point x="186" y="529" type="curve" smooth="yes"/>
      <point x="215" y="529"/>
      <point x="229" y="507"/>
      <point x="229" y="463" type="curve" smooth="yes"/>
      <point x="229" y="405"/>
      <point x="208" y="378"/>
      <point x="177" y="378" type="curve" smooth="yes"/>
      <point x="147" y="378" type="line"/>
      <point x="147" y="290" type="line"/>
      <point x="176" y="290" type="line" smooth="yes"/>
      <point x="208" y="290"/>
      <point x="237" y="273"/>
      <point x="237" y="207" type="curve" smooth="yes"/>
      <point x="237" y="154"/>
      <point x="217" y="131"/>
      <point x="186" y="131" type="curve" smooth="yes"/>
      <point x="153" y="131"/>
      <point x="134" y="153"/>
      <point x="134" y="193" type="curve" smooth="yes"/>
      <point x="134" y="215" type="line"/>
      <point x="23" y="215" type="line"/>
      <point x="23" y="196" type="line" smooth="yes"/>
      <point x="23" y="103"/>
      <point x="83" y="42"/>
      <point x="185" y="42" type="curve" smooth="yes"/>
      <point x="283" y="42"/>
      <point x="348" y="103"/>
      <point x="348" y="202" type="curve"/>
      <point x="347" y="218" type="line"/>
      <point x="479" y="218" type="line"/>
      <point x="479" y="0" type="line"/>
      <point x="585" y="0" type="line"/>
      <point x="585" y="513" type="line"/>
      <point x="724" y="513" type="line"/>
      <point x="724" y="0" type="line"/>
      <point x="830" y="0" type="line"/>
      <point x="830" y="513" type="line"/>
    </contour>
  </outline>
</glyph>
<glyph name="i-deva" format="1">
  <advance width="402"/>
  <unicode hex="0907"/>
  <outline>
    <contour>
      <point x="331" y="354" type="line"/>
      <point x="331" y="513" type="line"/>
      <point x="426" y="513" type="line"/>
      <point x="426" y="606" type="line"/>
      <point x="-16" y="606" type="line"/>
      <point x="-16" y="513" type="line"/>
      <point x="225" y="513" type="line"/>
      <point x="225" y="447" type="line"/>
      <point x="198" y="447" type="line" smooth="yes"/>
      <point x="105" y="447"/>
      <point x="36" y="411"/>
      <point x="36" y="314" type="curve" smooth="yes"/>
      <point x="36" y="201"/>
      <point x="122" y="188"/>
      <point x="186" y="185" type="curve" smooth="yes"/>
      <point x="217" y="183"/>
      <point x="252" y="180"/>
      <point x="252" y="134" type="curve" smooth="yes"/>
      <point x="252" y="94"/>
      <point x="226" y="76"/>
      <point x="198" y="76" type="curve" smooth="yes"/>
      <point x="170" y="76"/>
      <point x="140" y="93"/>
      <point x="140" y="141" type="curve" smooth="yes"/>
      <point x="140" y="148" type="line"/>
      <point x="34" y="148" type="line"/>
      <point x="34" y="-80" type="line"/>
      <point x="131" y="-80" type="line"/>
      <point x="131" y="9.7001" type="line"/>
      <point x="153.673" y="-3"/>
      <point x="184.235" y="-11"/>
      <point x="222" y="-11" type="curve" smooth="yes"/>
      <point x="297" y="-11"/>
      <point x="360" y="27.9999"/>
      <point x="360" y="139" type="curve" smooth="yes"/>
      <point x="360" y="264"/>
      <point x="273" y="273"/>
      <point x="210" y="277" type="curve" smooth="yes"/>
      <point x="174" y="279"/>
      <point x="144" y="285"/>
      <point x="144" y="315" type="curve" smooth="yes"/>
      <point x="144" y="342"/>
      <point x="171" y="354"/>
      <point x="195" y="354" type="curve" smooth="yes"/>
    </contour>
    <contour>
      <point x="278.5" y="606" type="move" name="top"/>
    </contour>
    <contour>
      <point x="201" y="0" type="move" name="bottom"/>
    </contour>
  </outline>
</glyph>
<glyph name="ii-deva" format="1">
  <advance width="402"/>
  <unicode hex="0908"/>
  <outline>
    <contour>
      <point x="331" y="354" type="line"/>
      <point x="331" y="513" type="line"/>
      <point x="426" y="513" type="line"/>
      <point x="426" y="606" type="line"/>
      <point x="317.667" y="606" type="line"/>
      <point x="305.34" y="628.769"/>
      <point x="300" y="649.003"/>
      <point x="300" y="670" type="curve" smooth="yes"/>
      <point x="300" y="711"/>
      <point x="330" y="734"/>
      <point x="389" y="734" type="curve" smooth="yes"/>
      <point x="400" y="734" type="line"/>
      <point x="400" y="827" type="line"/>
      <point x="390" y="827"/>
      <point x="381" y="827"/>
      <point x="371" y="827" type="curve" smooth="yes"/>
      <point x="265" y="827"/>
      <point x="194" y="777"/>
      <point x="194" y="698" type="curve" smooth="yes"/>
      <point x="194" y="670.144"/>
      <point x="201.729" y="639.477"/>
      <point x="218.018" y="606" type="curve"/>
      <point x="-16" y="606" type="line"/>
      <point x="-16" y="513" type="line"/>
      <point x="225" y="513" type="line"/>
      <point x="225" y="447" type="line"/>
      <point x="198" y="447" type="line" smooth="yes"/>
      <point x="105" y="447"/>
      <point x="36" y="411"/>
      <point x="36" y="314" type="curve" smooth="yes"/>
      <point x="36" y="201"/>
      <point x="122" y="188"/>
      <point x="186" y="185" type="curve" smooth="yes"/>
      <point x="217" y="183"/>
      <point x="252" y="180"/>
      <point x="252" y="134" type="curve" smooth="yes"/>
      <point x="252" y="94"/>
      <point x="226" y="76"/>
      <point x="198" y="76" type="curve" smooth="yes"/>
      <point x="170" y="76"/>
      <point x="140" y="93"/>
      <point x="140" y="141" type="curve" smooth="yes"/>
      <point x="140" y="148" type="line"/>
      <point x="34" y="148" type="line"/>
      <point x="34" y="-80" type="line"/>
      <point x="131" y="-80" type="line"/>
      <point x="131" y="9.7002" type="line"/>
      <point x="153.673" y="-3"/>
      <point x="184.235" y="-11"/>
      <point x="222" y="-11" type="curve" smooth="yes"/>
      <point x="297" y="-11"/>
      <point x="360" y="28"/>
      <point x="360" y="139" type="curve" smooth="yes"/>
      <point x="360" y="264"/>
      <point x="273" y="273"/>
      <point x="210" y="277" type="curve" smooth="yes"/>
      <point x="174" y="279"/>
      <point x="144" y="285"/>
      <point x="144" y="315" type="curve" smooth="yes"/>
      <point x="144" y="342"/>
      <point x="171" y="354"/>
      <point x="195" y="354" type="curve" smooth="yes"/>
    </contour>
    <contour>
      <point x="255" y="606" type="move" name="top"/>
    </contour>
    <contour>
      <point x="255" y="0" type="move" name="bottom"/>
    </contour>
  </outline>
</glyph>
<glyph name="rvocalicdeva" format="1">
  <advance width="703"/>
  <unicode hex="090B"/>
  <outline>
    <contour>
      <point x="352" y="0" type="move" name="bottom"/>
    </contour>
    <contour>
      <point x="352" y="465" type="move" name="top"/>
    </contour>
    <contour>
      <point x="379" y="513" type="line"/>
      <point x="725" y="513" type="line"/>
      <point x="725" y="606" type="line"/>
      <point x="-22" y="606" type="line"/>
      <point x="-22" y="513" type="line"/>
      <point x="273" y="513" type="line"/>
      <point x="273" y="299" type="line"/>
      <point x="269" y="299" type="line"/>
      <point x="261" y="318" type="line" smooth="yes"/>
      <point x="231" y="393"/>
      <point x="197" y="461"/>
      <point x="99" y="461" type="curve" smooth="yes"/>
      <point x="55" y="461"/>
      <point x="27" y="454"/>
      <point x="27" y="453" type="curve"/>
      <point x="27" y="372" type="line"/>
      <point x="78" y="372" type="line" smooth="yes"/>
      <point x="111" y="372"/>
      <point x="143" y="362"/>
      <point x="172" y="285" type="curve" smooth="yes"/>
      <point x="184" y="252" type="line"/>
      <point x="19" y="54" type="line"/>
      <point x="138" y="54" type="line"/>
      <point x="273" y="226" type="line"/>
      <point x="273" y="0" type="line"/>
      <point x="379" y="0" type="line"/>
      <point x="379" y="301" type="line"/>
      <point x="443" y="301" type="line" smooth="yes"/>
      <point x="484" y="301"/>
      <point x="515" y="306"/>
      <point x="538" y="317" type="curve"/>
      <point x="538" y="265" type="line"/>
      <point x="490" y="245"/>
      <point x="455" y="204"/>
      <point x="455" y="144" type="curve" smooth="yes"/>
      <point x="455" y="57"/>
      <point x="529" y="10"/>
      <point x="607" y="10" type="curve" smooth="yes"/>
      <point x="634" y="10"/>
      <point x="655" y="15"/>
      <point x="679" y="25" type="curve"/>
      <point x="679" y="116" type="line"/>
      <point x="663" y="109"/>
      <point x="639" y="102"/>
      <point x="615" y="102" type="curve" smooth="yes"/>
      <point x="582" y="102"/>
      <point x="561" y="116"/>
      <point x="561" y="144" type="curve" smooth="yes"/>
      <point x="561" y="172"/>
      <point x="582" y="186"/>
      <point x="615" y="186" type="curve" smooth="yes"/>
      <point x="636" y="186" type="line"/>
      <point x="636" y="451" type="line"/>
      <point x="538" y="451" type="line"/>
      <point x="538" y="419"/>
      <point x="505" y="395"/>
      <point x="456" y="395" type="curve" smooth="yes"/>
      <point x="379" y="395" type="line"/>
    </contour>
  </outline>
</glyph>
<glyph name="eShort-deva" format="1">
  <advance width="491"/>
  <unicode hex="090E"/>
  <outline>
    <contour>
      <point x="513" y="606" type="line"/>
      <point x="421" y="606" type="line"/>
      <point x="421" y="636" type="line" smooth="yes"/>
      <point x="421" y="726"/>
      <point x="401" y="794"/>
      <point x="282" y="794" type="curve" smooth="yes"/>
      <point x="219" y="794"/>
      <point x="92" y="769"/>
      <point x="42" y="769" type="curve" smooth="yes"/>
      <point x="15" y="769"/>
      <point x="2" y="781"/>
      <point x="2" y="814" type="curve" smooth="yes"/>
      <point x="2" y="827" type="line"/>
      <point x="-87" y="827" type="line"/>
      <point x="-88" y="820"/>
      <point x="-88" y="814"/>
      <point x="-88" y="806" type="curve" smooth="yes"/>
      <point x="-88" y="732"/>
      <point x="-57" y="677"/>
      <point x="32" y="677" type="curve" smooth="yes"/>
      <point x="87" y="677"/>
      <point x="222" y="701"/>
      <point x="268" y="701" type="curve" smooth="yes"/>
      <point x="300" y="701"/>
      <point x="315" y="677"/>
      <point x="315" y="646" type="curve" smooth="yes"/>
      <point x="315" y="606" type="line"/>
      <point x="-22" y="606" type="line"/>
      <point x="-22" y="513" type="line"/>
      <point x="70" y="513" type="line"/>
      <point x="70" y="287" type="line" smooth="yes"/>
      <point x="70" y="248"/>
      <point x="81" y="224"/>
      <point x="105" y="201" type="curve" smooth="yes"/>
      <point x="275" y="42" type="line" smooth="yes"/>
      <point x="294" y="23"/>
      <point x="300" y="7"/>
      <point x="300" y="-17" type="curve" smooth="yes"/>
      <point x="300" y="-26"/>
      <point x="300" y="-35"/>
      <point x="298" y="-47" type="curve"/>
      <point x="387" y="-47" type="line"/>
      <point x="397" y="-24"/>
      <point x="403" y="-6"/>
      <point x="403" y="14" type="curve" smooth="yes"/>
      <point x="403" y="40"/>
      <point x="386" y="71"/>
      <point x="342" y="108" type="curve"/>
      <point x="190" y="250" type="line" smooth="yes"/>
      <point x="180" y="259"/>
      <point x="176" y="273"/>
      <point x="176" y="294" type="curve" smooth="yes"/>
      <point x="176" y="513" type="line"/>
      <point x="316" y="513" type="line"/>
      <point x="316" y="384" type="line" smooth="yes"/>
      <point x="316" y="356"/>
      <point x="303" y="341"/>
      <point x="280" y="341" type="curve" smooth="yes"/>
      <point x="261" y="341" type="line"/>
      <point x="261" y="263" type="line"/>
      <point x="275" y="257"/>
      <point x="296" y="252"/>
      <point x="316" y="252" type="curve" smooth="yes"/>
      <point x="400" y="252"/>
      <point x="422" y="315"/>
      <point x="422" y="377" type="curve" smooth="yes"/>
      <point x="422" y="513" type="line"/>
      <point x="513" y="513" type="line"/>
    </contour>
    <contour>
      <point x="246" y="465" type="move" name="top"/>
    </contour>
    <contour>
      <point x="246" y="0" type="move" name="bottom"/>
    </contour>
  </outline>
</glyph>
<glyph name="eshortdeva" format="1">
  <advance width="491"/>
  <unicode hex="090E"/>
  <outline>
    <contour>
      <point x="246" y="0" type="move" name="bottom"/>
    </contour>
    <contour>
      <point x="246" y="465" type="move" name="top"/>
    </contour>
    <contour>
      <point x="513" y="513" type="line"/>
      <point x="513" y="606" type="line"/>
      <point x="421" y="606" type="line"/>
      <point x="421" y="636" type="line" smooth="yes"/>
      <point x="421" y="726"/>
      <point x="401" y="794"/>
      <point x="282" y="794" type="curve" smooth="yes"/>
      <point x="219" y="794"/>
      <point x="92" y="769"/>
      <point x="42" y="769" type="curve" smooth="yes"/>
      <point x="15" y="769"/>
      <point x="2" y="781"/>
      <point x="2" y="814" type="curve" smooth="yes"/>
      <point x="2" y="827" type="line"/>
      <point x="-87" y="827" type="line"/>
      <point x="-88" y="820"/>
      <point x="-88" y="814"/>
      <point x="-88" y="806" type="curve" smooth="yes"/>
      <point x="-88" y="732"/>
      <point x="-57" y="677"/>
      <point x="32" y="677" type="curve" smooth="yes"/>
      <point x="87" y="677"/>
      <point x="222" y="701"/>
      <point x="268" y="701" type="curve" smooth="yes"/>
      <point x="300" y="701"/>
      <point x="315" y="677"/>
      <point x="315" y="646" type="curve" smooth="yes"/>
      <point x="315" y="606" type="line"/>
      <point x="-22" y="606" type="line"/>
      <point x="-22" y="513" type="line"/>
      <point x="70" y="513" type="line"/>
      <point x="70" y="287" type="line" smooth="yes"/>
      <point x="70" y="248"/>
      <point x="81" y="224"/>
      <point x="105" y="201" type="curve" smooth="yes"/>
      <point x="275" y="42" type="line"/>
      <point x="294" y="23"/>
      <point x="300" y="7"/>
      <point x="300" y="-17" type="curve" smooth="yes"/>
      <point x="300" y="-26"/>
      <point x="300" y="-35"/>
      <point x="298" y="-47" type="curve"/>
      <point x="387" y="-47" type="line"/>
      <point x="397" y="-24"/>
      <point x="403" y="-6"/>
      <point x="403" y="14" type="curve" smooth="yes"/>
      <point x="403" y="40"/>
      <point x="386" y="71"/>
      <point x="342" y="108" type="curve"/>
      <point x="190" y="250" type="line" smooth="yes"/>
      <point x="180" y="259"/>
      <point x="176" y="273"/>
      <point x="176" y="294" type="curve" smooth="yes"/>
      <point x="176" y="513" type="line"/>
      <point x="316" y="513" type="line"/>
      <point x="316" y="384" type="line" smooth="yes"/>
      <point x="316" y="356"/>
      <point x="303" y="341"/>
      <point x="280" y="341" type="curve" smooth="yes"/>
      <point x="261" y="341" type="line"/>
      <point x="261" y="263" type="line"/>
      <point x="275" y="257"/>
      <point x="296" y="252"/>
      <point x="316" y="252" type="curve" smooth="yes"/>
      <point x="400" y="252"/>
      <point x="422" y="315"/>
      <point x="422" y="377" type="curve" smooth="yes"/>
      <point x="422" y="513" type="line"/>
    </contour>
  </outline>
</glyph>
<glyph name="oShort-deva" format="1">
  <advance width="900"/>
  <unicode hex="0912"/>
  <outline>
    <contour>
      <point x="922" y="606" type="line"/>
      <point x="830" y="606" type="line"/>
      <point x="830" y="636" type="line" smooth="yes"/>
      <point x="830" y="726"/>
      <point x="810" y="794"/>
      <point x="691" y="794" type="curve" smooth="yes"/>
      <point x="627" y="794"/>
      <point x="500" y="769"/>
      <point x="450" y="769" type="curve" smooth="yes"/>
      <point x="423" y="769"/>
      <point x="410" y="781"/>
      <point x="410" y="814" type="curve" smooth="yes"/>
      <point x="410" y="827" type="line"/>
      <point x="321" y="827" type="line"/>
      <point x="320" y="820"/>
      <point x="320" y="814"/>
      <point x="320" y="806" type="curve" smooth="yes"/>
      <point x="320" y="732"/>
      <point x="351" y="677"/>
      <point x="440" y="677" type="curve" smooth="yes"/>
      <point x="495" y="677"/>
      <point x="630" y="701"/>
      <point x="677" y="701" type="curve" smooth="yes"/>
      <point x="709" y="701"/>
      <point x="724" y="677"/>
      <point x="724" y="646" type="curve" smooth="yes"/>
      <point x="724" y="606" type="line"/>
      <point x="434" y="606" type="line"/>
      <point x="434" y="513" type="line"/>
      <point x="479" y="513" type="line"/>
      <point x="479" y="301" type="line"/>
      <point x="317.005" y="301" type="line"/>
      <point x="303.523" y="317.583"/>
      <point x="286.365" y="329.583"/>
      <point x="267" y="336.583" type="curve"/>
      <point x="267" y="339.583" type="line"/>
      <point x="310" y="363.583"/>
      <point x="339" y="400.583"/>
      <point x="339" y="465.583" type="curve" smooth="yes"/>
      <point x="339" y="562.583"/>
      <point x="278" y="616.583"/>
      <point x="185" y="616.583" type="curve" smooth="yes"/>
      <point x="96" y="616.583"/>
      <point x="33" y="560.583"/>
      <point x="33" y="473.583" type="curve" smooth="yes"/>
      <point x="33" y="447.583" type="line"/>
      <point x="143" y="447.583" type="line"/>
      <point x="143" y="465.583" type="line" smooth="yes"/>
      <point x="143" y="506.583"/>
      <point x="157" y="528.583"/>
      <point x="186" y="528.583" type="curve" smooth="yes"/>
      <point x="215" y="528.583"/>
      <point x="229" y="506.583"/>
      <point x="229" y="462.583" type="curve" smooth="yes"/>
      <point x="229" y="404.583"/>
      <point x="208" y="377.583"/>
      <point x="177" y="377.583" type="curve" smooth="yes"/>
      <point x="147" y="377.583" type="line"/>
      <point x="147" y="289.583" type="line"/>
      <point x="176" y="289.583" type="line" smooth="yes"/>
      <point x="208" y="289.583"/>
      <point x="237" y="272.583"/>
      <point x="237" y="206.583" type="curve" smooth="yes"/>
      <point x="237" y="153.583"/>
      <point x="217" y="130.583"/>
      <point x="186" y="130.583" type="curve" smooth="yes"/>
      <point x="153" y="130.583"/>
      <point x="134" y="152.583"/>
      <point x="134" y="192.583" type="curve" smooth="yes"/>
      <point x="134" y="214.583" type="line"/>
      <point x="23" y="214.583" type="line"/>
      <point x="23" y="195.583" type="line" smooth="yes"/>
      <point x="23" y="102.583"/>
      <point x="83" y="41.5834"/>
      <point x="185" y="41.5834" type="curve" smooth="yes"/>
      <point x="283" y="41.5834"/>
      <point x="348" y="102.583"/>
      <point x="348" y="201.583" type="curve"/>
      <point x="348" y="204"/>
      <point x="348" y="206"/>
      <point x="347.92" y="207.583" type="curve"/>
      <point x="479" y="207.583" type="line"/>
      <point x="479" y="0" type="line"/>
      <point x="585" y="0" type="line"/>
      <point x="585" y="512.583" type="line"/>
      <point x="724" y="512.583" type="line"/>
      <point x="724" y="0" type="line"/>
      <point x="830" y="0" type="line"/>
      <point x="830" y="512.583" type="line"/>
      <point x="922" y="512.583" type="line"/>
    </contour>
  </outline>
</glyph>
<glyph name="ka-deva" format="1">
  <advance width="642"/>
  <unicode hex="0915"/>
  <outline>
    <contour>
      <point x="438" y="491"/>
      <point x="406" y="470"/>
      <point x="386" y="427" type="curve"/>
      <point x="382" y="427" type="line"/>
      <point x="382" y="472" type="line"/>
      <point x="262" y="472" type="line"/>
      <point x="262" y="283" type="line"/>
      <point x="382" y="283" type="line"/>
      <point x="382" y="293" type="line" smooth="yes"/>
      <point x="382" y="350"/>
      <point x="394" y="382"/>
      <point x="437" y="382" type="curve" smooth="yes"/>
      <point x="480" y="382"/>
      <point x="492" y="350"/>
      <point x="492" y="293" type="curve" smooth="yes"/>
      <point x="492" y="269" type="line" smooth="yes"/>
      <point x="492" y="212"/>
      <point x="480" y="180"/>
      <point x="437" y="180" type="curve" smooth="yes"/>
      <point x="431" y="180" type="line"/>
      <point x="431" y="73" type="line"/>
      <point x="437" y="72"/>
      <point x="443" y="71"/>
      <point x="448" y="71" type="curve" smooth="yes"/>
      <point x="548" y="71"/>
      <point x="617" y="134"/>
      <point x="617" y="280" type="curve" smooth="yes"/>
      <point x="617" y="426"/>
      <point x="563" y="491"/>
      <point x="478" y="491" type="curve" smooth="yes"/>
    </contour>
    <contour>
      <point x="432" y="686" type="line"/>
      <point x="432" y="580" type="line"/>
      <point x="658" y="580" type="line"/>
      <point x="658" y="686" type="line"/>
    </contour>
    <component base="vadeva"/>
    <contour>
      <point x="323" y="686" type="move" name="top"/>
    </contour>
    <contour>
      <point x="323" y="0" type="move" name="bottom"/>
    </contour>
  </outline>
</glyph>
<glyph name="kadeva" format="1">
  <advance width="616"/>
  <unicode hex="0915"/>
  <outline>
    <contour>
      <point x="309" y="0" type="move" name="bottom"/>
    </contour>
    <contour>
      <point x="151" y="94" type="move" name="nukta"/>
    </contour>
    <contour>
      <point x="309" y="606" type="move" name="top"/>
    </contour>
    <contour>
      <point x="366" y="436" type="line"/>
      <point x="366" y="513" type="line"/>
      <point x="636" y="513" type="line"/>
      <point x="636" y="606" type="line"/>
      <point x="-12" y="606" type="line"/>
      <point x="-12" y="513" type="line"/>
      <point x="260" y="513" type="line"/>
      <point x="260" y="436" type="line"/>
      <point x="256" y="436" type="line"/>
      <point x="238" y="450"/>
      <point x="208" y="461"/>
      <point x="171" y="461" type="curve" smooth="yes"/>
      <point x="84" y="461"/>
      <point x="30" y="405"/>
      <point x="30" y="276" type="curve" smooth="yes"/>
      <point x="30" y="147"/>
      <point x="85" y="89"/>
      <point x="171" y="89" type="curve" smooth="yes"/>
      <point x="208" y="89"/>
      <point x="238" y="100"/>
      <point x="256" y="114" type="curve"/>
      <point x="260" y="114" type="line"/>
      <point x="260" y="0" type="line"/>
      <point x="366" y="0" type="line"/>
      <point x="366" y="286" type="line" smooth="yes"/>
      <point x="366" y="336"/>
      <point x="381" y="364"/>
      <point x="426" y="364" type="curve" smooth="yes"/>
      <point x="471" y="364"/>
      <point x="486" y="336"/>
      <point x="486" y="286" type="curve" smooth="yes"/>
      <point x="486" y="264" type="line" smooth="yes"/>
      <point x="486" y="214"/>
      <point x="471" y="186"/>
      <point x="426" y="186" type="curve" smooth="yes"/>
      <point x="419" y="186" type="line"/>
      <point x="419" y="91" type="line"/>
      <point x="425" y="90"/>
      <point x="431" y="89"/>
      <point x="436" y="89" type="curve" smooth="yes"/>
      <point x="529" y="89"/>
      <point x="596" y="145"/>
      <point x="596" y="274" type="curve" smooth="yes"/>
      <point x="596" y="403"/>
      <point x="539" y="461"/>
      <point x="455" y="461" type="curve" smooth="yes"/>
      <point x="419" y="461"/>
      <point x="389" y="450"/>
      <point x="371" y="436" type="curve"/>
    </contour>
    <contour>
      <point x="260" y="264" type="line" smooth="yes"/>
      <point x="260" y="214"/>
      <point x="245" y="186"/>
      <point x="200" y="186" type="curve" smooth="yes"/>
      <point x="156" y="186"/>
      <point x="140" y="214"/>
      <point x="140" y="264" type="curve" smooth="yes"/>
      <point x="140" y="286" type="line" smooth="yes"/>
      <point x="140" y="336"/>
      <point x="156" y="364"/>
      <point x="200" y="364" type="curve" smooth="yes"/>
      <point x="245" y="364"/>
      <point x="260" y="335"/>
      <point x="260" y="284" type="curve" smooth="yes"/>
    </contour>
  </outline>
</glyph>
<glyph name="khadeva" format="1">
  <advance width="690"/>
  <unicode hex="0916"/>
  <outline>
    <contour>
      <point x="568" y="0" type="move" name="bottom"/>
    </contour>
    <contour>
      <point x="62" y="154" type="move" name="nukta"/>
    </contour>
    <contour>
      <point x="568" y="606" type="move" name="top"/>
    </contour>
    <contour>
      <point x="712" y="513" type="line"/>
      <point x="712" y="606" type="line"/>
      <point x="-23" y="606" type="line"/>
      <point x="-23" y="513" type="line"/>
      <point x="154" y="513" type="line"/>
      <point x="154" y="429" type="line" smooth="yes"/>
      <point x="154" y="373"/>
      <point x="131" y="344"/>
      <point x="88" y="344" type="curve" smooth="yes"/>
      <point x="27" y="344" type="line"/>
      <point x="27" y="137"/>
      <point x="160" y="26"/>
      <point x="343" y="26" type="curve" smooth="yes"/>
      <point x="413" y="26"/>
      <point x="476" y="41"/>
      <point x="514" y="71" type="curve"/>
      <point x="514" y="0" type="line"/>
      <point x="620" y="0" type="line"/>
      <point x="620" y="513" type="line"/>
    </contour>
    <contour>
      <point x="514" y="513" type="line"/>
      <point x="514" y="436" type="line"/>
      <point x="509" y="436" type="line"/>
      <point x="492" y="450"/>
      <point x="465" y="461"/>
      <point x="430" y="461" type="curve" smooth="yes"/>
      <point x="349" y="461"/>
      <point x="299" y="417"/>
      <point x="299" y="316" type="curve" smooth="yes"/>
      <point x="299" y="214"/>
      <point x="349" y="169"/>
      <point x="430" y="169" type="curve" smooth="yes"/>
      <point x="465" y="169"/>
      <point x="492" y="180"/>
      <point x="509" y="194" type="curve"/>
      <point x="513" y="194" type="line"/>
      <point x="499" y="145"/>
      <point x="450" y="114"/>
      <point x="348" y="114" type="curve" smooth="yes"/>
      <point x="233" y="114"/>
      <point x="172" y="177"/>
      <point x="145" y="262" type="curve"/>
      <point x="220" y="275"/>
      <point x="260" y="335"/>
      <point x="260" y="439" type="curve" smooth="yes"/>
      <point x="260" y="513" type="line"/>
    </contour>
    <contour>
      <point x="514" y="309" type="line" smooth="yes"/>
      <point x="514" y="281"/>
      <point x="500" y="266"/>
      <point x="461" y="266" type="curve" smooth="yes"/>
      <point x="422" y="266"/>
      <point x="409" y="281"/>
      <point x="409" y="309" type="curve" smooth="yes"/>
      <point x="409" y="321" type="line" smooth="yes"/>
      <point x="409" y="349"/>
      <point x="422" y="364"/>
      <point x="461" y="364" type="curve" smooth="yes"/>
      <point x="500" y="364"/>
      <point x="514" y="348"/>
      <point x="514" y="320" type="curve" smooth="yes"/>
    </contour>
  </outline>
</glyph>
<glyph name="ga-deva" format="1">
  <advance width="583"/>
  <unicode hex="0917"/>
  <outline>
    <contour>
      <point x="-34" y="686" type="line"/>
      <point x="-34" y="580" type="line"/>
      <point x="488" y="580" type="line"/>
      <point x="488" y="686" type="line"/>
    </contour>
    <contour>
      <point x="179" y="624" type="line"/>
      <point x="179" y="237" type="line" smooth="yes"/>
      <point x="179" y="213"/>
      <point x="167" y="191"/>
      <point x="145" y="191" type="curve" smooth="yes"/>
      <point x="123" y="191"/>
      <point x="111" y="208"/>
      <point x="111" y="237" type="curve" smooth="yes"/>
      <point x="111" y="262"/>
      <point x="125" y="283"/>
      <point x="146" y="283" type="curve" smooth="yes"/>
      <point x="241" y="283" type="line"/>
      <point x="241" y="389" type="line"/>
      <point x="146" y="389" type="line" smooth="yes"/>
      <point x="59" y="389"/>
      <point x="1" y="326"/>
      <point x="1" y="237" type="curve" smooth="yes"/>
      <point x="1" y="139"/>
      <point x="51" y="85"/>
      <point x="145" y="85" type="curve" smooth="yes"/>
      <point x="241" y="85"/>
      <point x="299" y="149"/>
      <point x="299" y="237" type="curve" smooth="yes"/>
      <point x="299" y="624" type="line"/>
    </contour>
    <component base="uni093E" xOffset="329"/>
    <contour>
      <point x="461" y="686" type="move" name="top"/>
    </contour>
    <contour>
      <point x="461" y="0" type="move" name="bottom"/>
    </contour>
  </outline>
</glyph>
<glyph name="gha-deva" format="1">
  <advance width="511"/>
  <unicode hex="0918"/>
  <outline>
    <contour>
      <point x="534" y="606" type="line"/>
      <point x="-22" y="606" type="line"/>
      <point x="-22" y="513" type="line"/>
      <point x="61.9043" y="513" type="line"/>
      <point x="54.0897" y="499.302"/>
      <point x="50" y="483.5"/>
      <point x="50" y="466" type="curve" smooth="yes"/>
      <point x="50" y="415"/>
      <point x="87" y="387"/>
      <point x="127" y="374" type="curve"/>
      <point x="83" y="358"/>
      <point x="50" y="317"/>
      <point x="50" y="257" type="curve" smooth="yes"/>
      <point x="50" y="167"/>
      <point x="124" y="103"/>
      <point x="232" y="103" type="curve" smooth="yes"/>
      <point x="276.325" y="103"/>
      <point x="311.02" y="114.171"/>
      <point x="336" y="134.4" type="curve"/>
      <point x="336" y="0" type="line"/>
      <point x="442" y="0" type="line"/>
      <point x="442" y="513" type="line"/>
      <point x="534" y="513" type="line"/>
    </contour>
    <contour>
      <point x="262" y="326" type="line"/>
      <point x="262" y="413" type="line"/>
      <point x="218" y="413" type="line" smooth="yes"/>
      <point x="185" y="413"/>
      <point x="161" y="432"/>
      <point x="161" y="469" type="curve" smooth="yes"/>
      <point x="161" y="489"/>
      <point x="167" y="513"/>
      <point x="194" y="513" type="curve" smooth="yes"/>
      <point x="336" y="513" type="line"/>
      <point x="336" y="300" type="line" smooth="yes"/>
      <point x="336" y="230"/>
      <point x="311" y="190"/>
      <point x="253" y="190" type="curve" smooth="yes"/>
      <point x="201" y="190"/>
      <point x="161" y="218"/>
      <point x="161" y="270" type="curve" smooth="yes"/>
      <point x="161" y="309"/>
      <point x="187" y="326"/>
      <point x="219" y="326" type="curve" smooth="yes"/>
    </contour>
    <contour>
      <point x="390" y="606" type="move" name="top"/>
    </contour>
    <contour>
      <point x="390" y="0" type="move" name="bottom"/>
    </contour>
  </outline>
</glyph>
<glyph name="ghadeva" format="1">
  <advance width="511"/>
  <unicode hex="0918"/>
  <outline>
    <contour>
      <point x="390" y="0" type="move" name="bottom"/>
    </contour>
    <contour>
      <point x="390" y="606" type="move" name="top"/>
    </contour>
    <contour>
      <point x="534" y="513" type="line"/>
      <point x="534" y="606" type="line"/>
      <point x="-22" y="606" type="line"/>
      <point x="-22" y="513" type="line"/>
      <point x="62" y="513" type="line"/>
      <point x="54" y="499"/>
      <point x="50" y="484"/>
      <point x="50" y="466" type="curve" smooth="yes"/>
      <point x="50" y="415"/>
      <point x="87" y="387"/>
      <point x="127" y="374" type="curve"/>
      <point x="83" y="358"/>
      <point x="50" y="317"/>
      <point x="50" y="257" type="curve" smooth="yes"/>
      <point x="50" y="167"/>
      <point x="124" y="103"/>
      <point x="232" y="103" type="curve" smooth="yes"/>
      <point x="276" y="103"/>
      <point x="311" y="114"/>
      <point x="336" y="134" type="curve"/>
      <point x="336" y="0" type="line"/>
      <point x="442" y="0" type="line"/>
      <point x="442" y="513" type="line"/>
    </contour>
    <contour>
      <point x="262" y="326" type="line"/>
      <point x="262" y="413" type="line"/>
      <point x="218" y="413" type="line" smooth="yes"/>
      <point x="185" y="413"/>
      <point x="161" y="432"/>
      <point x="161" y="469" type="curve" smooth="yes"/>
      <point x="161" y="489"/>
      <point x="167" y="513"/>
      <point x="194" y="513" type="curve" smooth="yes"/>
      <point x="336" y="513" type="line"/>
      <point x="336" y="300" type="line" smooth="yes"/>
      <point x="336" y="230"/>
      <point x="311" y="190"/>
      <point x="253" y="190" type="curve" smooth="yes"/>
      <point x="201" y="190"/>
      <point x="161" y="218"/>
      <point x="161" y="270" type="curve" smooth="yes"/>
      <point x="161" y="309"/>
      <point x="187" y="326"/>
      <point x="219" y="326" type="curve" smooth="yes"/>
    </contour>
  </outline>
</glyph>
<glyph name="nga-deva" format="1">
  <advance width="402"/>
  <unicode hex="0919"/>
  <outline>
    <contour>
      <point x="-16" y="606" type="line"/>
      <point x="-16" y="513" type="line"/>
      <point x="225" y="513" type="line"/>
      <point x="225" y="447" type="line"/>
      <point x="198" y="447" type="line" smooth="yes"/>
      <point x="105" y="447"/>
      <point x="36" y="409"/>
      <point x="36" y="307" type="curve" smooth="yes"/>
      <point x="36" y="189"/>
      <point x="122" y="175"/>
      <point x="186" y="172" type="curve" smooth="yes"/>
      <point x="217" y="170"/>
      <point x="252" y="167"/>
      <point x="252" y="127" type="curve" smooth="yes"/>
      <point x="252" y="92"/>
      <point x="226" y="76"/>
      <point x="198" y="76" type="curve" smooth="yes"/>
      <point x="170" y="76"/>
      <point x="140" y="93"/>
      <point x="140" y="141" type="curve" smooth="yes"/>
      <point x="140" y="148" type="line"/>
      <point x="32" y="148" type="line" smooth="yes"/>
      <point x="32" y="148"/>
      <point x="31" y="144"/>
      <point x="31" y="133" type="curve" smooth="yes"/>
      <point x="31" y="49"/>
      <point x="89" y="-11"/>
      <point x="195" y="-11" type="curve" smooth="yes"/>
      <point x="285" y="-11"/>
      <point x="360" y="27"/>
      <point x="360" y="132" type="curve" smooth="yes"/>
      <point x="360" y="251"/>
      <point x="273" y="260"/>
      <point x="210" y="264" type="curve" smooth="yes"/>
      <point x="174" y="266"/>
      <point x="144" y="272"/>
      <point x="144" y="308" type="curve" smooth="yes"/>
      <point x="144" y="340"/>
      <point x="171" y="354"/>
      <point x="195" y="354" type="curve" smooth="yes"/>
      <point x="331" y="354" type="line"/>
      <point x="331" y="513" type="line"/>
      <point x="479" y="513" type="line"/>
      <point x="479" y="606" type="line"/>
    </contour>
    <contour>
      <point x="359" y="250" type="line"/>
      <point x="458" y="250" type="line"/>
      <point x="458" y="333" type="line"/>
      <point x="359" y="333" type="line"/>
    </contour>
  </outline>
</glyph>
<glyph name="ca-deva" format="1">
  <advance width="483"/>
  <unicode hex="091A"/>
  <outline>
    <contour>
      <point x="505" y="606" type="line"/>
      <point x="-33" y="606" type="line"/>
      <point x="-33" y="513" type="line"/>
      <point x="307" y="513" type="line"/>
      <point x="307" y="247" type="line" smooth="yes"/>
      <point x="307" y="197"/>
      <point x="292" y="169"/>
      <point x="247" y="169" type="curve" smooth="yes"/>
      <point x="202" y="169"/>
      <point x="188" y="197"/>
      <point x="188" y="247" type="curve" smooth="yes"/>
      <point x="188" y="266" type="line" smooth="yes"/>
      <point x="188" y="310"/>
      <point x="202" y="334"/>
      <point x="247" y="334" type="curve" smooth="yes"/>
      <point x="257" y="334" type="line"/>
      <point x="257" y="428" type="line"/>
      <point x="4" y="428" type="line"/>
      <point x="4" y="334" type="line"/>
      <point x="97.2602" y="334" type="line"/>
      <point x="84.1142" y="311.489"/>
      <point x="76.9999" y="282.003"/>
      <point x="76.9999" y="245" type="curve" smooth="yes"/>
      <point x="76.9999" y="126"/>
      <point x="132" y="72"/>
      <point x="218" y="72" type="curve" smooth="yes"/>
      <point x="255" y="72"/>
      <point x="285" y="83"/>
      <point x="303" y="97" type="curve"/>
      <point x="307" y="97" type="line"/>
      <point x="307" y="0" type="line"/>
      <point x="413" y="0" type="line"/>
      <point x="413" y="513" type="line"/>
      <point x="505" y="513" type="line"/>
    </contour>
    <contour>
      <point x="363" y="606" type="move" name="top"/>
    </contour>
    <contour>
      <point x="363" y="0" type="move" name="bottom"/>
    </contour>
  </outline>
</glyph>
<glyph name="cadeva" format="1">
  <advance width="483"/>
  <unicode hex="091A"/>
  <outline>
    <contour>
      <point x="363" y="0" type="move" name="bottom"/>
    </contour>
    <contour>
      <point x="363" y="606" type="move" name="top"/>
    </contour>
    <contour>
      <point x="505" y="513" type="line"/>
      <point x="505" y="606" type="line"/>
      <point x="-33" y="606" type="line"/>
      <point x="-33" y="513" type="line"/>
      <point x="307" y="513" type="line"/>
      <point x="307" y="247" type="line" smooth="yes"/>
      <point x="307" y="197"/>
      <point x="292" y="169"/>
      <point x="247" y="169" type="curve" smooth="yes"/>
      <point x="202" y="169"/>
      <point x="188" y="197"/>
      <point x="188" y="247" type="curve" smooth="yes"/>
      <point x="188" y="266" type="line" smooth="yes"/>
      <point x="188" y="310"/>
      <point x="202" y="334"/>
      <point x="247" y="334" type="curve" smooth="yes"/>
      <point x="257" y="334" type="line"/>
      <point x="257" y="428" type="line"/>
      <point x="4" y="428" type="line"/>
      <point x="4" y="334" type="line"/>
      <point x="97" y="334" type="line"/>
      <point x="84" y="311"/>
      <point x="77" y="282"/>
      <point x="77" y="245" type="curve" smooth="yes"/>
      <point x="77" y="126"/>
      <point x="132" y="72"/>
      <point x="218" y="72" type="curve" smooth="yes"/>
      <point x="255" y="72"/>
      <point x="285" y="83"/>
      <point x="303" y="97" type="curve"/>
      <point x="307" y="97" type="line"/>
      <point x="307" y="0" type="line"/>
      <point x="413" y="0" type="line"/>
      <point x="413" y="513" type="line"/>
    </contour>
  </outline>
</glyph>
<glyph name="cha-deva" format="1">
  <advance width="565"/>
  <unicode hex="091B"/>
  <outline>
    <contour>
      <point x="587" y="513" type="line"/>
      <point x="587" y="606" type="line"/>
      <point x="-12" y="606" type="line"/>
      <point x="-12" y="513" type="line"/>
      <point x="68.2244" y="513" type="line"/>
      <point x="56.273" y="494.537"/>
      <point x="50" y="472.221"/>
      <point x="50" y="447" type="curve" smooth="yes"/>
      <point x="50" y="381"/>
      <point x="87" y="344"/>
      <point x="127" y="328" type="curve"/>
      <point x="83" y="310"/>
      <point x="50" y="268"/>
      <point x="50" y="206" type="curve" smooth="yes"/>
      <point x="50" y="100"/>
      <point x="142" y="39"/>
      <point x="252" y="39" type="curve" smooth="yes"/>
      <point x="424" y="39"/>
      <point x="536" y="144"/>
      <point x="536" y="299" type="curve" smooth="yes"/>
      <point x="536" y="356.056"/>
      <point x="506.692" y="401.276"/>
      <point x="454" y="420.275" type="curve"/>
      <point x="454" y="513" type="line"/>
    </contour>
    <contour>
      <point x="348" y="425.008" type="line"/>
      <point x="291.507" y="411.634"/>
      <point x="263" y="372.88"/>
      <point x="263" y="327" type="curve" smooth="yes"/>
      <point x="263" y="313"/>
      <point x="266" y="302"/>
      <point x="267" y="297" type="curve"/>
      <point x="357" y="297" type="line"/>
      <point x="357" y="318" type="line" smooth="yes"/>
      <point x="357" y="337"/>
      <point x="366" y="353"/>
      <point x="392" y="353" type="curve" smooth="yes"/>
      <point x="423" y="353"/>
      <point x="430" y="319"/>
      <point x="430" y="290" type="curve" smooth="yes"/>
      <point x="430" y="191"/>
      <point x="365" y="126"/>
      <point x="263" y="126" type="curve" smooth="yes"/>
      <point x="197" y="126"/>
      <point x="161" y="164"/>
      <point x="161" y="217" type="curve" smooth="yes"/>
      <point x="161" y="262"/>
      <point x="180" y="280"/>
      <point x="207" y="280" type="curve" smooth="yes"/>
      <point x="216" y="280" type="line"/>
      <point x="216" y="367" type="line"/>
      <point x="206" y="367" type="line" smooth="yes"/>
      <point x="179" y="367"/>
      <point x="161" y="394"/>
      <point x="161" y="447" type="curve" smooth="yes"/>
      <point x="161" y="477"/>
      <point x="168" y="513"/>
      <point x="199" y="513" type="curve" smooth="yes"/>
      <point x="348" y="513" type="line"/>
    </contour>
    <contour>
      <point x="401.5" y="606" type="move" name="top"/>
    </contour>
    <contour>
      <point x="287.5" y="0" type="move" name="bottom"/>
    </contour>
  </outline>
</glyph>
<glyph name="nyadeva" format="1">
  <advance width="555"/>
  <unicode hex="091E"/>
  <outline>
    <contour>
      <point x="433" y="0" type="move" name="bottom"/>
    </contour>
    <contour>
      <point x="433" y="606" type="move" name="top"/>
    </contour>
    <contour>
      <point x="577" y="513" type="line"/>
      <point x="577" y="606" type="line"/>
      <point x="-20" y="606" type="line"/>
      <point x="-20" y="513" type="line"/>
      <point x="379" y="513" type="line"/>
      <point x="379" y="311" type="line"/>
      <point x="329" y="311" type="line"/>
      <point x="316" y="395"/>
      <point x="267" y="435"/>
      <point x="186" y="435" type="curve" smooth="yes"/>
      <point x="100" y="435"/>
      <point x="44" y="394"/>
      <point x="44" y="299" type="curve"/>
      <point x="152" y="299" type="line"/>
      <point x="152" y="330"/>
      <point x="164" y="345"/>
      <point x="187" y="345" type="curve" smooth="yes"/>
      <point x="216" y="345"/>
      <point x="227" y="325"/>
      <point x="227" y="276" type="curve" smooth="yes"/>
      <point x="227" y="248" type="line" smooth="yes"/>
      <point x="227" y="199"/>
      <point x="216" y="178"/>
      <point x="184" y="178" type="curve" smooth="yes"/>
      <point x="160" y="178"/>
      <point x="149" y="194"/>
      <point x="149" y="224" type="curve"/>
      <point x="44" y="224" type="line"/>
      <point x="44" y="129"/>
      <point x="99" y="88"/>
      <point x="183" y="88" type="curve" smooth="yes"/>
      <point x="270" y="88"/>
      <point x="319" y="129"/>
      <point x="330" y="217" type="curve"/>
      <point x="379" y="217" type="line"/>
      <point x="379" y="0" type="line"/>
      <point x="485" y="0" type="line"/>
      <point x="485" y="513" type="line"/>
    </contour>
  </outline>
</glyph>
<glyph name="ttha-deva" format="1">
  <advance width="409"/>
  <unicode hex="0920"/>
  <outline>
    <contour>
      <point x="417" y="513" type="line"/>
      <point x="417" y="606" type="line"/>
      <point x="-8" y="606" type="line"/>
      <point x="-8" y="513" type="line"/>
      <point x="213" y="513" type="line"/>
      <point x="213" y="434" type="line"/>
      <point x="200" y="434" type="line" smooth="yes"/>
      <point x="96" y="434"/>
      <point x="30" y="372"/>
      <point x="30" y="238" type="curve" smooth="yes"/>
      <point x="30" y="116"/>
      <point x="84" y="42"/>
      <point x="204" y="42" type="curve" smooth="yes"/>
      <point x="324" y="42"/>
      <point x="379" y="116"/>
      <point x="379" y="238" type="curve" smooth="yes"/>
      <point x="379" y="312.961"/>
      <point x="357.008" y="368.769"/>
      <point x="319" y="404.227" type="curve"/>
      <point x="319" y="513" type="line"/>
    </contour>
    <contour>
      <point x="236.706" y="340" type="line"/>
      <point x="257.025" y="321.271"/>
      <point x="270" y="289.083"/>
      <point x="270" y="237" type="curve" smooth="yes"/>
      <point x="270" y="171"/>
      <point x="249" y="132"/>
      <point x="204" y="132" type="curve" smooth="yes"/>
      <point x="159" y="132"/>
      <point x="140" y="171"/>
      <point x="140" y="237" type="curve" smooth="yes"/>
      <point x="140" y="311"/>
      <point x="165" y="340"/>
      <point x="203" y="340" type="curve" smooth="yes"/>
    </contour>
    <contour>
      <point x="265" y="606" type="move" name="top"/>
    </contour>
    <contour>
      <point x="204" y="0" type="move" name="bottom"/>
    </contour>
  </outline>
</glyph>
<glyph name="dda-deva" format="1">
  <advance width="402"/>
  <unicode hex="0921"/>
  <outline>
    <contour>
      <point x="331" y="354" type="line"/>
      <point x="331" y="513" type="line"/>
      <point x="426" y="513" type="line"/>
      <point x="426" y="606" type="line"/>
      <point x="-16" y="606" type="line"/>
      <point x="-16" y="513" type="line"/>
      <point x="225" y="513" type="line"/>
      <point x="225" y="447" type="line"/>
      <point x="198" y="447" type="line" smooth="yes"/>
      <point x="105" y="447"/>
      <point x="36" y="409"/>
      <point x="36" y="307" type="curve" smooth="yes"/>
      <point x="36" y="189"/>
      <point x="122" y="175"/>
      <point x="186" y="172" type="curve" smooth="yes"/>
      <point x="217" y="170"/>
      <point x="252" y="167"/>
      <point x="252" y="127" type="curve" smooth="yes"/>
      <point x="252" y="92"/>
      <point x="226" y="76"/>
      <point x="198" y="76" type="curve" smooth="yes"/>
      <point x="170" y="76"/>
      <point x="140" y="93"/>
      <point x="140" y="141" type="curve" smooth="yes"/>
      <point x="140" y="148" type="line"/>
      <point x="32" y="148" type="line" smooth="yes"/>
      <point x="32" y="148"/>
      <point x="31" y="144"/>
      <point x="31" y="133" type="curve" smooth="yes"/>
      <point x="31" y="49"/>
      <point x="89" y="-11"/>
      <point x="195" y="-11" type="curve" smooth="yes"/>
      <point x="285" y="-11"/>
      <point x="360" y="27"/>
      <point x="360" y="132" type="curve" smooth="yes"/>
      <point x="360" y="251"/>
      <point x="273" y="260"/>
      <point x="210" y="264" type="curve" smooth="yes"/>
      <point x="174" y="266"/>
      <point x="144" y="272"/>
      <point x="144" y="308" type="curve" smooth="yes"/>
      <point x="144" y="340"/>
      <point x="171" y="354"/>
      <point x="195" y="354" type="curve" smooth="yes"/>
    </contour>
    <contour>
      <point x="196" y="14" type="move" name="nukta"/>
    </contour>
    <contour>
      <point x="199.5" y="0" type="move" name="bottom"/>
    </contour>
    <contour>
      <point x="280" y="606" type="move" name="top"/>
    </contour>
  </outline>
</glyph>
<glyph name="ddadeva" format="1">
  <advance width="402"/>
  <unicode hex="0921"/>
  <outline>
    <contour>
      <point x="200" y="0" type="move" name="bottom"/>
    </contour>
    <contour>
      <point x="196" y="14" type="move" name="nukta"/>
    </contour>
    <contour>
      <point x="280" y="606" type="move" name="top"/>
    </contour>
    <contour>
      <point x="331" y="354" type="line"/>
      <point x="331" y="513" type="line"/>
      <point x="426" y="513" type="line"/>
      <point x="426" y="606" type="line"/>
      <point x="-16" y="606" type="line"/>
      <point x="-16" y="513" type="line"/>
      <point x="225" y="513" type="line"/>
      <point x="225" y="447" type="line"/>
      <point x="198" y="447" type="line" smooth="yes"/>
      <point x="105" y="447"/>
      <point x="36" y="409"/>
      <point x="36" y="307" type="curve" smooth="yes"/>
      <point x="36" y="189"/>
      <point x="122" y="175"/>
      <point x="186" y="172" type="curve" smooth="yes"/>
      <point x="217" y="170"/>
      <point x="252" y="167"/>
      <point x="252" y="127" type="curve" smooth="yes"/>
      <point x="252" y="92"/>
      <point x="226" y="76"/>
      <point x="198" y="76" type="curve" smooth="yes"/>
      <point x="170" y="76"/>
      <point x="140" y="93"/>
      <point x="140" y="141" type="curve" smooth="yes"/>
      <point x="140" y="148" type="line"/>
      <point x="32" y="148" type="line"/>
      <point x="32" y="148"/>
      <point x="31" y="144"/>
      <point x="31" y="133" type="curve" smooth="yes"/>
      <point x="31" y="49"/>
      <point x="89" y="-11"/>
      <point x="195" y="-11" type="curve" smooth="yes"/>
      <point x="285" y="-11"/>
      <point x="360" y="27"/>
      <point x="360" y="132" type="curve" smooth="yes"/>
      <point x="360" y="251"/>
      <point x="273" y="260"/>
      <point x="210" y="264" type="curve" smooth="yes"/>
      <point x="174" y="266"/>
      <point x="144" y="272"/>
      <point x="144" y="308" type="curve" smooth="yes"/>
      <point x="144" y="340"/>
      <point x="171" y="354"/>
      <point x="195" y="354" type="curve" smooth="yes"/>
    </contour>
  </outline>
</glyph>
<glyph name="ddha-deva" format="1">
  <advance width="401"/>
  <unicode hex="0922"/>
  <outline>
    <contour>
      <point x="327" y="354" type="line"/>
      <point x="327" y="513" type="line"/>
      <point x="417" y="513" type="line"/>
      <point x="417" y="606" type="line"/>
      <point x="-8" y="606" type="line"/>
      <point x="-8" y="513" type="line"/>
      <point x="221" y="513" type="line"/>
      <point x="221" y="447" type="line"/>
      <point x="211" y="447" type="line" smooth="yes"/>
      <point x="101" y="447"/>
      <point x="30" y="381"/>
      <point x="30" y="238" type="curve" smooth="yes"/>
      <point x="30" y="110"/>
      <point x="88" y="34"/>
      <point x="207" y="34" type="curve" smooth="yes"/>
      <point x="292" y="34"/>
      <point x="358" y="87"/>
      <point x="358" y="173" type="curve" smooth="yes"/>
      <point x="358" y="249"/>
      <point x="301" y="288"/>
      <point x="240" y="288" type="curve" smooth="yes"/>
      <point x="223" y="288"/>
      <point x="207" y="285"/>
      <point x="191" y="278" type="curve"/>
      <point x="191" y="190" type="line"/>
      <point x="197" y="195"/>
      <point x="208" y="199"/>
      <point x="219" y="199" type="curve" smooth="yes"/>
      <point x="239" y="199"/>
      <point x="252" y="187"/>
      <point x="252" y="168" type="curve" smooth="yes"/>
      <point x="252" y="141"/>
      <point x="234" y="124"/>
      <point x="204" y="124" type="curve" smooth="yes"/>
      <point x="159" y="124"/>
      <point x="140" y="156"/>
      <point x="140" y="233" type="curve" smooth="yes"/>
      <point x="140" y="321"/>
      <point x="170" y="354"/>
      <point x="214" y="354" type="curve" smooth="yes"/>
    </contour>
    <contour>
      <point x="207.5" y="37.5" type="move" name="nukta"/>
    </contour>
    <contour>
      <point x="205" y="0" type="move" name="bottom"/>
    </contour>
    <contour>
      <point x="273.5" y="606" type="move" name="top"/>
    </contour>
  </outline>
</glyph>
<glyph name="nna-deva" format="1">
  <advance width="643"/>
  <unicode hex="0923"/>
  <outline>
    <contour>
      <point x="665" y="606" type="line"/>
      <point x="-17" y="606" type="line"/>
      <point x="-17" y="513" type="line"/>
      <point x="35" y="513" type="line"/>
      <point x="35" y="266" type="line" smooth="yes"/>
      <point x="35" y="171"/>
      <point x="100" y="117"/>
      <point x="198" y="117" type="curve" smooth="yes"/>
      <point x="295" y="117"/>
      <point x="361" y="171"/>
      <point x="361" y="266" type="curve" smooth="yes"/>
      <point x="361" y="513" type="line"/>
      <point x="467" y="513" type="line"/>
      <point x="467" y="0" type="line"/>
      <point x="573" y="0" type="line"/>
      <point x="573" y="513" type="line"/>
      <point x="665" y="513" type="line"/>
    </contour>
    <contour>
      <point x="255" y="266" type="line" smooth="yes"/>
      <point x="255" y="232"/>
      <point x="231" y="207"/>
      <point x="198" y="207" type="curve" smooth="yes"/>
      <point x="164" y="207"/>
      <point x="141" y="232"/>
      <point x="141" y="266" type="curve" smooth="yes"/>
      <point x="141" y="513" type="line"/>
      <point x="255" y="513" type="line"/>
    </contour>
    <contour>
      <point x="518" y="606" type="move" name="top"/>
    </contour>
    <contour>
      <point x="518" y="0" type="move" name="bottom"/>
    </contour>
  </outline>
</glyph>
<glyph name="nnadeva" format="1">
  <advance width="643"/>
  <unicode hex="0923"/>
  <outline>
    <contour>
      <point x="518" y="0" type="move" name="bottom"/>
    </contour>
    <contour>
      <point x="518" y="606" type="move" name="top"/>
    </contour>
    <contour>
      <point x="665" y="513" type="line"/>
      <point x="665" y="606" type="line"/>
      <point x="-17" y="606" type="line"/>
      <point x="-17" y="513" type="line"/>
      <point x="35" y="513" type="line"/>
      <point x="35" y="266" type="line" smooth="yes"/>
      <point x="35" y="171"/>
      <point x="100" y="117"/>
      <point x="198" y="117" type="curve" smooth="yes"/>
      <point x="295" y="117"/>
      <point x="361" y="171"/>
      <point x="361" y="266" type="curve" smooth="yes"/>
      <point x="361" y="513" type="line"/>
      <point x="467" y="513" type="line"/>
      <point x="467" y="0" type="line"/>
      <point x="573" y="0" type="line"/>
      <point x="573" y="513" type="line"/>
    </contour>
    <contour>
      <point x="255" y="513" type="line"/>
      <point x="255" y="266" type="line" smooth="yes"/>
      <point x="255" y="232"/>
      <point x="231" y="207"/>
      <point x="198" y="207" type="curve" smooth="yes"/>
      <point x="164" y="207"/>
      <point x="141" y="232"/>
      <point x="141" y="266" type="curve" smooth="yes"/>
      <point x="141" y="513" type="line"/>
    </contour>
  </outline>
</glyph>
<glyph name="ta-deva" format="1">
  <advance width="448"/>
  <unicode hex="0924"/>
  <outline>
    <contour>
      <point x="480" y="606" type="line"/>
      <point x="-20" y="606" type="line"/>
      <point x="-20" y="513" type="line"/>
      <point x="282" y="513" type="line"/>
      <point x="282" y="401" type="line"/>
      <point x="189" y="401" type="line" smooth="yes"/>
      <point x="72" y="401"/>
      <point x="26" y="325"/>
      <point x="26" y="242" type="curve" smooth="yes"/>
      <point x="26" y="206"/>
      <point x="29" y="141"/>
      <point x="91" y="0" type="curve"/>
      <point x="203" y="0" type="line"/>
      <point x="138" y="138"/>
      <point x="135" y="205"/>
      <point x="135" y="235" type="curve" smooth="yes"/>
      <point x="135" y="280"/>
      <point x="150" y="308"/>
      <point x="195" y="308" type="curve" smooth="yes"/>
      <point x="282" y="308" type="line"/>
      <point x="282" y="0" type="line"/>
      <point x="388" y="0" type="line"/>
      <point x="388" y="513" type="line"/>
      <point x="480" y="513" type="line"/>
    </contour>
    <contour>
      <point x="333" y="606" type="move" name="top"/>
    </contour>
    <contour>
      <point x="333" y="0" type="move" name="bottom"/>
    </contour>
  </outline>
</glyph>
<glyph name="tadeva" format="1">
  <advance width="448"/>
  <unicode hex="0924"/>
  <outline>
    <contour>
      <point x="333" y="0" type="move" name="bottom"/>
    </contour>
    <contour>
      <point x="333" y="606" type="move" name="top"/>
    </contour>
    <contour>
      <point x="480" y="513" type="line"/>
      <point x="480" y="606" type="line"/>
      <point x="-20" y="606" type="line"/>
      <point x="-20" y="513" type="line"/>
      <point x="282" y="513" type="line"/>
      <point x="282" y="401" type="line"/>
      <point x="189" y="401" type="line" smooth="yes"/>
      <point x="72" y="401"/>
      <point x="26" y="325"/>
      <point x="26" y="242" type="curve" smooth="yes"/>
      <point x="26" y="206"/>
      <point x="29" y="141"/>
      <point x="91" y="0" type="curve"/>
      <point x="203" y="0" type="line"/>
      <point x="138" y="138"/>
      <point x="135" y="205"/>
      <point x="135" y="235" type="curve" smooth="yes"/>
      <point x="135" y="280"/>
      <point x="150" y="308"/>
      <point x="195" y="308" type="curve" smooth="yes"/>
      <point x="282" y="308" type="line"/>
      <point x="282" y="0" type="line"/>
      <point x="388" y="0" type="line"/>
      <point x="388" y="513" type="line"/>
    </contour>
  </outline>
</glyph>
